999
dxflib 3.17.0.0
  0
SECTION
  2
HEADER
  9
$ACADVER
  1
AC1015
  9
$HANDSEED
  5
FFFF
  9
$ANGBASE
 50
0.0
  9
$ANGDIR
 70
0
  9
$ATTMODE
 70
1
  9
$AUNITS
 70
0
  9
$AUPREC
 70
0
  9
$CECOLOR
 62
256
  9
$CELTSCALE
 40
1.0
  9
$CHAMFERA
 40
0.5
  9
$CHAMFERB
 40
0.5
  9
$CHAMFERC
 40
1.0
  9
$CHAMFERD
 40
0.0
  9
$CMLJUST
 70
0
  9
$CMLSCALE
 40
1.0
  9
$DIMADEC
 70
0
  9
$DIMALT
 70
0
  9
$DIMALTD
 70
2
  9
$DIMALTF
 40
25.3999999999999986
  9
$DIMALTRND
 40
0.0
  9
$DIMALTTD
 70
2
  9
$DIMALTTZ
 70
0
  9
$DIMALTU
 70
2
  9
$DIMALTZ
 70
0
  9
$DIMAPOST
  1

  9
$DIMASZ
 40
0.18
  9
$DIMATFIT
 70
3
  9
$DIMAUNIT
 70
0
  9
$DIMAZIN
 70
0
  9
$DIMBLK
  1

  9
$DIMBLK1
  1

  9
$DIMBLK2
  1

  9
$DIMCEN
 40
0.09
  9
$DIMCLRD
 70
0
  9
$DIMCLRE
 70
0
  9
$DIMCLRT
 70
0
  9
$DIMDEC
 70
4
  9
$DIMDLE
 40
0.0
  9
$DIMDLI
 40
0.38
  9
$DIMDSEP
 70
46
  9
$DIMEXE
 40
0.18
  9
$DIMEXO
 40
0.0625
  9
$DIMFRAC
 70
0
  9
$DIMGAP
 40
0.09
  9
$DIMJUST
 70
0
  9
$DIMLDRBLK
  1

  9
$DIMLFAC
 40
1.0
  9
$DIMLIM
 70
0
  9
$DIMLUNIT
 70
2
  9
$DIMLWD
 70
-2
  9
$DIMLWE
 70
-2
  9
$DIMPOST
  1

  9
$DIMRND
 40
0.0
  9
$DIMSAH
 70
0
  9
$DIMSCALE
 40
1.0
  9
$DIMSD1
 70
0
  9
$DIMSD2
 70
0
  9
$DIMSE1
 70
0
  9
$DIMSE2
 70
0
  9
$DIMSOXD
 70
0
  9
$DIMTAD
 70
0
  9
$DIMTDEC
 70
4
  9
$DIMTFAC
 40
1.0
  9
$DIMTIH
 70
1
  9
$DIMTIX
 70
0
  9
$DIMTM
 40
0.0
  9
$DIMTOFL
 70
0
  9
$DIMTOH
 70
1
  9
$DIMTOL
 70
0
  9
$DIMTOLJ
 70
1
  9
$DIMTP
 40
0.0
  9
$DIMTSZ
 40
0.0
  9
$DIMTVP
 40
0.0
  9
$DIMTXSTY
  7
Standard
  9
$DIMTXT
 40
0.18
  9
$DIMTZIN
 70
0
  9
$DIMUPT
 70
0
  9
$DIMZIN
 70
0
  9
$DISPSILH
 70
0
  9
$DWGCODEPAGE
  3
ANSI_1252
  9
$ELEVATION
 40
0.0
  9
$EXTMAX
 10
-100000000000000000000.0
 20
-100000000000000000000.0
 30
-100000000000000000000.0
  9
$EXTMIN
 10
100000000000000000000.0
 20
100000000000000000000.0
 30
100000000000000000000.0
  9
$FILLETRAD
 40
0.5
  9
$FILLMODE
 70
1
  9
$INSBASE
 10
0.0
 20
0.0
 30
0.0
  9
$INSUNITS
 70
1
  9
$LIMCHECK
 70
0
  9
$LIMMAX
 10
12.0
 20
9.0
  9
$LIMMIN
 10
0.0
 20
0.0
  9
$LTSCALE
 40
1.0
  9
$LUNITS
 70
2
  9
$LUPREC
 70
4
  9
$MAXACTVP
 70
64
  9
$MEASUREMENT
 70
0
  9
$MIRRTEXT
 70
1
  9
$ORTHOMODE
 70
0
  9
$PDMODE
 70
0
  9
$PDSIZE
 40
0.0
  9
$PELEVATION
 40
0.0
  9
$PEXTMAX
 10
-100000000000000000000.0
 20
-100000000000000000000.0
 30
-100000000000000000000.0
  9
$PEXTMIN
 10
100000000000000000000.0
 20
100000000000000000000.0
 30
100000000000000000000.0
  9
$PINSBASE
 10
0.0
 20
0.0
 30
0.0
  9
$PLIMCHECK
 70
0
  9
$PLIMMAX
 10
12.0
 20
9.0
  9
$PLIMMIN
 10
0.0
 20
0.0
  9
$PLINEGEN
 70
0
  9
$PLINEWID
 40
0.0
  9
$PROXYGRAPHICS
 70
1
  9
$PSLTSCALE
 70
1
  9
$PUCSNAME
  2

  9
$PUCSORG
 10
0.0
 20
0.0
 30
0.0
  9
$PUCSXDIR
 10
1.0
 20
0.0
 30
0.0
  9
$PUCSYDIR
 10
0.0
 20
1.0
 30
0.0
  9
$QTEXTMODE
 70
0
  9
$REGENMODE
 70
1
  9
$SHADEDGE
 70
3
  9
$SHADEDIF
 70
70
  9
$SKETCHINC
 40
0.1
  9
$SKPOLY
 70
0
  9
$SPLFRAME
 70
0
  9
$SPLINESEGS
 70
8
  9
$SPLINETYPE
 70
6
  9
$SURFTAB1
 70
6
  9
$SURFTAB2
 70
6
  9
$SURFTYPE
 70
6
  9
$SURFU
 70
6
  9
$SURFV
 70
6
  9
$TEXTSIZE
 40
0.2
  9
$TEXTSTYLE
  7
Standard
  9
$THICKNESS
 40
0.0
  9
$TILEMODE
 70
1
  9
$TRACEWID
 40
0.05
  9
$TREEDEPTH
 70
3020
  9
$UCSNAME
  2

  9
$UCSORG
 10
0.0
 20
0.0
 30
0.0
  9
$UCSXDIR
 10
1.0
 20
0.0
 30
0.0
  9
$UCSYDIR
 10
0.0
 20
1.0
 30
0.0
  9
$UNITMODE
 70
0
  9
$USERI1
 70
0
  9
$USERI2
 70
0
  9
$USERI3
 70
0
  9
$USERI4
 70
0
  9
$USERI5
 70
0
  9
$USERR1
 40
0.0
  9
$USERR2
 40
0.0
  9
$USERR3
 40
0.0
  9
$USERR4
 40
0.0
  9
$USERR5
 40
0.0
  9
$USRTIMER
 70
1
  9
$VISRETAIN
 70
1
  0
ENDSEC
  0
SECTION
  2
TABLES
  0
TABLE
  2
VPORT
  5
8
100
AcDbSymbolTable
 70
1
  0
VPORT
  5
30
100
AcDbSymbolTableRecord
100
AcDbViewportTableRecord
  2
*Active
 70
0
 10
0.0
 20
0.0
 11
1.0
 21
1.0
 12
286.3055555555554861
 22
148.5
 13
0.0
 23
0.0
 14
10.0
 24
10.0
 15
10.0
 25
10.0
 16
0.0
 26
0.0
 36
1.0
 17
0.0
 27
0.0
 37
0.0
 40
297.0
 41
1.92798353909465
 42
50.0
 43
0.0
 44
0.0
 50
0.0
 51
0.0
 71
0
 72
100
 73
1
 74
3
 75
1
 76
1
 77
0
 78
0
281
0
 65
1
110
0.0
120
0.0
130
0.0
111
1.0
121
0.0
131
0.0
112
0.0
122
1.0
132
0.0
 79
0
146
0.0
  0
ENDTAB
  0
TABLE
  2
LTYPE
  5
5
100
AcDbSymbolTable
 70
41
  0
LTYPE
  5
16
100
AcDbSymbolTableRecord
100
AcDbLinetypeTableRecord
  2
Continuous
 70
0
  3
Solid line
 72
65
 73
0
 40
0.0
  0
LTYPE
  5
31
100
AcDbSymbolTableRecord
100
AcDbLinetypeTableRecord
  2
DIVIDE2
 70
0
  3
Divide (.5x) __..__..__..__..__..__..__..__.._
 72
65
 73
6
 40
15.875
 49
6.3499999999999996
 74
0
 49
-3.1749999999999998
 74
0
 49
0.0
 74
0
 49
-3.1749999999999998
 74
0
 49
0.0
 74
0
 49
-3.1749999999999998
 74
0
  0
LTYPE
  5
32
100
AcDbSymbolTableRecord
100
AcDbLinetypeTableRecord
  2
HIDDEN
 70
0
  3
Hidden __ __ __ __ __ __ __ __ __ __ __ __ __ __
 72
65
 73
2
 40
9.5249999999999986
 49
6.3499999999999996
 74
0
 49
-3.1749999999999998
 74
0
  0
LTYPE
  5
33
100
AcDbSymbolTableRecord
100
AcDbLinetypeTableRecord
  2
DIVIDE
 70
0
  3
Divide ____ . . ____ . . ____ . . ____ . . ____
 72
65
 73
6
 40
31.75
 49
12.6999999999999993
 74
0
 49
-6.3499999999999996
 74
0
 49
0.0
 74
0
 49
-6.3499999999999996
 74
0
 49
0.0
 74
0
 49
-6.3499999999999996
 74
0
  0
LTYPE
  5
34
100
AcDbSymbolTableRecord
100
AcDbLinetypeTableRecord
  2
ACAD_ISO09W100
 70
0
  3
ISO long-dash double-short-dash ____ __ __ ____
 72
65
 73
6
 40
45.0
 49
24.0
 74
0
 49
-3.0
 74
0
 49
6.0
 74
0
 49
-3.0
 74
0
 49
6.0
 74
0
 49
-3.0
 74
0
  0
LTYPE
  5
35
100
AcDbSymbolTableRecord
100
AcDbLinetypeTableRecord
  2
ACAD_ISO15W100
 70
0
  3
ISO double-dash triple-dot __ __ . . . __ __ . .
 72
65
 73
10
 40
39.0
 49
12.0
 74
0
 49
-3.0
 74
0
 49
12.0
 74
0
 49
-3.0
 74
0
 49
0.0
 74
0
 49
-3.0
 74
0
 49
0.0
 74
0
 49
-3.0
 74
0
 49
0.0
 74
0
 49
-3.0
 74
0
  0
LTYPE
  5
36
100
AcDbSymbolTableRecord
100
AcDbLinetypeTableRecord
  2
DOT
 70
0
  3
Dot . . . . . . . . . . . . . . . . . . . . . . . .
 72
65
 73
2
 40
6.3499999999999996
 49
0.0
 74
0
 49
-6.3499999999999996
 74
0
  0
LTYPE
  5
37
100
AcDbSymbolTableRecord
100
AcDbLinetypeTableRecord
  2
ACAD_ISO02W100
 70
0
  3
ISO dash __ __ __ __ __ __ __ __ __ __ __ __ __
 72
65
 73
2
 40
15.0
 49
12.0
 74
0
 49
-3.0
 74
0
  0
LTYPE
  5
38
100
AcDbSymbolTableRecord
100
AcDbLinetypeTableRecord
  2
CENTER
 70
0
  3
Center ____ _ ____ _ ____ _ ____ _ ____ _ ____
 72
65
 73
4
 40
50.8000000000000043
 49
31.75
 74
0
 49
-6.3499999999999996
 74
0
 49
6.3499999999999996
 74
0
 49
-6.3499999999999996
 74
0
  0
LTYPE
  5
39
100
AcDbSymbolTableRecord
100
AcDbLinetypeTableRecord
  2
ACAD_ISO08W100
 70
0
  3
ISO long-dash short-dash ____ __ ____ __ ____ _
 72
65
 73
4
 40
36.0
 49
24.0
 74
0
 49
-3.0
 74
0
 49
6.0
 74
0
 49
-3.0
 74
0
  0
LTYPE
  5
3A
100
AcDbSymbolTableRecord
100
AcDbLinetypeTableRecord
  2
CENTERX2
 70
0
  3
Center (2x) ________  __  ________  __  _____
 72
65
 73
4
 40
101.6000000000000085
 49
63.5
 74
0
 49
-12.6999999999999993
 74
0
 49
12.6999999999999993
 74
0
 49
-12.6999999999999993
 74
0
  0
LTYPE
  5
3B
100
AcDbSymbolTableRecord
100
AcDbLinetypeTableRecord
  2
DOTX2
 70
0
  3
Dot (2x) .  .  .  .  .  .  .  .  .  .  .  .  .  .
 72
65
 73
2
 40
12.6999999999999993
 49
0.0
 74
0
 49
-12.6999999999999993
 74
0
  0
LTYPE
  5
3C
100
AcDbSymbolTableRecord
100
AcDbLinetypeTableRecord
  2
ACAD_ISO04W100
 70
0
  3
ISO long-dash dot ____ . ____ . ____ . ____ . _
 72
65
 73
4
 40
30.0
 49
24.0
 74
0
 49
-3.0
 74
0
 49
0.0
 74
0
 49
-3.0
 74
0
  0
LTYPE
  5
3D
100
AcDbSymbolTableRecord
100
AcDbLinetypeTableRecord
  2
PHANTOM2
 70
0
  3
Phantom (.5x) ___ _ _ ___ _ _ ___ _ _ ___ _ _
 72
65
 73
6
 40
31.7500000000000036
 49
15.875
 74
0
 49
-3.1749999999999998
 74
0
 49
3.1749999999999998
 74
0
 49
-3.1749999999999998
 74
0
 49
3.1749999999999998
 74
0
 49
-3.1749999999999998
 74
0
  0
LTYPE
  5
3E
100
AcDbSymbolTableRecord
100
AcDbLinetypeTableRecord
  2
PHANTOMX2
 70
0
  3
Phantom (2x) ____________    ____    ____   _
 72
65
 73
6
 40
127.0000000000000142
 49
63.5
 74
0
 49
-12.6999999999999993
 74
0
 49
12.6999999999999993
 74
0
 49
-12.6999999999999993
 74
0
 49
12.6999999999999993
 74
0
 49
-12.6999999999999993
 74
0
  0
LTYPE
  5
3F
100
AcDbSymbolTableRecord
100
AcDbLinetypeTableRecord
  2
DASHDOT
 70
0
  3
Dash dot __ . __ . __ . __ . __ . __ . __ . __
 72
65
 73
4
 40
25.3999999999999986
 49
12.6999999999999993
 74
0
 49
-6.3499999999999996
 74
0
 49
0.0
 74
0
 49
-6.3499999999999996
 74
0
  0
LTYPE
  5
40
100
AcDbSymbolTableRecord
100
AcDbLinetypeTableRecord
  2
DASHDOTX2
 70
0
  3
Dash dot (2x) ____  .  ____  .  ____  .  ___
 72
65
 73
4
 40
50.7999999999999972
 49
25.3999999999999986
 74
0
 49
-12.6999999999999993
 74
0
 49
0.0
 74
0
 49
-12.6999999999999993
 74
0
  0
LTYPE
  5
41
100
AcDbSymbolTableRecord
100
AcDbLinetypeTableRecord
  2
ACAD_ISO12W100
 70
0
  3
ISO dash double-dot __ . . __ . . __ . . __ . . 
 72
65
 73
6
 40
21.0
 49
12.0
 74
0
 49
-3.0
 74
0
 49
0.0
 74
0
 49
-3.0
 74
0
 49
0.0
 74
0
 49
-3.0
 74
0
  0
LTYPE
  5
42
100
AcDbSymbolTableRecord
100
AcDbLinetypeTableRecord
  2
ACAD_ISO07W100
 70
0
  3
ISO dot . . . . . . . . . . . . . . . . . . . . 
 72
65
 73
2
 40
3.0
 49
0.0
 74
0
 49
-3.0
 74
0
  0
LTYPE
  5
43
100
AcDbSymbolTableRecord
100
AcDbLinetypeTableRecord
  2
HIDDENX2
 70
0
  3
Hidden (2x) ____ ____ ____ ____ ____ ____ ____ 
 72
65
 73
2
 40
19.0499999999999972
 49
12.6999999999999993
 74
0
 49
-6.3499999999999996
 74
0
  0
LTYPE
  5
15
100
AcDbSymbolTableRecord
100
AcDbLinetypeTableRecord
  2
ByLayer
 70
0
  3

 72
65
 73
0
 40
0.0
  0
LTYPE
  5
44
100
AcDbSymbolTableRecord
100
AcDbLinetypeTableRecord
  2
ACAD_ISO03W100
 70
0
  3
ISO dash space __    __    __    __    __    __
 72
65
 73
2
 40
30.0
 49
12.0
 74
0
 49
-18.0
 74
0
  0
LTYPE
  5
45
100
AcDbSymbolTableRecord
100
AcDbLinetypeTableRecord
  2
CENTER2
 70
0
  3
Center (.5x) ___ _ ___ _ ___ _ ___ _ ___ _ ___
 72
65
 73
4
 40
28.5750000000000028
 49
19.0500000000000007
 74
0
 49
-3.1749999999999998
 74
0
 49
3.1749999999999998
 74
0
 49
-3.1749999999999998
 74
0
  0
LTYPE
  5
46
100
AcDbSymbolTableRecord
100
AcDbLinetypeTableRecord
  2
ACAD_ISO06W100
 70
0
  3
ISO long-dash triple-dot ____ ... ____ ... ____
 72
65
 73
8
 40
36.0
 49
24.0
 74
0
 49
-3.0
 74
0
 49
0.0
 74
0
 49
-3.0
 74
0
 49
0.0
 74
0
 49
-3.0
 74
0
 49
0.0
 74
0
 49
-3.0
 74
0
  0
LTYPE
  5
47
100
AcDbSymbolTableRecord
100
AcDbLinetypeTableRecord
  2
PHANTOM
 70
0
  3
Phantom ______  __  __  ______  __  __  ______ 
 72
65
 73
6
 40
63.5000000000000071
 49
31.75
 74
0
 49
-6.3499999999999996
 74
0
 49
6.3499999999999996
 74
0
 49
-6.3499999999999996
 74
0
 49
6.3499999999999996
 74
0
 49
-6.3499999999999996
 74
0
  0
LTYPE
  5
48
100
AcDbSymbolTableRecord
100
AcDbLinetypeTableRecord
  2
ACAD_ISO10W100
 70
0
  3
ISO dash dot __ . __ . __ . __ . __ . __ . __ . 
 72
65
 73
4
 40
18.0
 49
12.0
 74
0
 49
-3.0
 74
0
 49
0.0
 74
0
 49
-3.0
 74
0
  0
LTYPE
  5
49
100
AcDbSymbolTableRecord
100
AcDbLinetypeTableRecord
  2
DOT2
 70
0
  3
Dot (.5x) ........................................
 72
65
 73
2
 40
3.1749999999999998
 49
0.0
 74
0
 49
-3.1749999999999998
 74
0
  0
LTYPE
  5
4A
100
AcDbSymbolTableRecord
100
AcDbLinetypeTableRecord
  2
ACAD_ISO14W100
 70
0
  3
ISO dash triple-dot __ . . . __ . . . __ . . . _
 72
65
 73
8
 40
24.0
 49
12.0
 74
0
 49
-3.0
 74
0
 49
0.0
 74
0
 49
-3.0
 74
0
 49
0.0
 74
0
 49
-3.0
 74
0
 49
0.0
 74
0
 49
-3.0
 74
0
  0
LTYPE
  5
4B
100
AcDbSymbolTableRecord
100
AcDbLinetypeTableRecord
  2
HIDDEN2
 70
0
  3
Hidden (.5x) _ _ _ _ _ _ _ _ _ _ _ _ _ _ _ _ _ 
 72
65
 73
2
 40
4.7624999999999993
 49
3.1749999999999998
 74
0
 49
-1.5874999999999999
 74
0
  0
LTYPE
  5
14
100
AcDbSymbolTableRecord
100
AcDbLinetypeTableRecord
  2
ByBlock
 70
0
  3

 72
65
 73
0
 40
0.0
  0
LTYPE
  5
4C
100
AcDbSymbolTableRecord
100
AcDbLinetypeTableRecord
  2
DASHDOT2
 70
0
  3
Dash dot (.5x) _._._._._._._._._._._._._._._.
 72
65
 73
4
 40
12.6999999999999993
 49
6.3499999999999996
 74
0
 49
-3.1749999999999998
 74
0
 49
0.0
 74
0
 49
-3.1749999999999998
 74
0
  0
LTYPE
  5
4D
100
AcDbSymbolTableRecord
100
AcDbLinetypeTableRecord
  2
DIVIDEX2
 70
0
  3
Divide (2x) ________  .  .  ________  .  .  _
 72
65
 73
6
 40
63.5
 49
25.3999999999999986
 74
0
 49
-12.6999999999999993
 74
0
 49
0.0
 74
0
 49
-12.6999999999999993
 74
0
 49
0.0
 74
0
 49
-12.6999999999999993
 74
0
  0
LTYPE
  5
4E
100
AcDbSymbolTableRecord
100
AcDbLinetypeTableRecord
  2
ACAD_ISO11W100
 70
0
  3
ISO double-dash dot __ __ . __ __ . __ __ . __ _
 72
65
 73
6
 40
33.0
 49
12.0
 74
0
 49
-3.0
 74
0
 49
12.0
 74
0
 49
-3.0
 74
0
 49
0.0
 74
0
 49
-3.0
 74
0
  0
LTYPE
  5
4F
100
AcDbSymbolTableRecord
100
AcDbLinetypeTableRecord
  2
ACAD_ISO13W100
 70
0
  3
ISO double-dash double-dot __ __ . . __ __ . . _
 72
65
 73
8
 40
36.0
 49
12.0
 74
0
 49
-3.0
 74
0
 49
12.0
 74
0
 49
-3.0
 74
0
 49
0.0
 74
0
 49
-3.0
 74
0
 49
0.0
 74
0
 49
-3.0
 74
0
  0
LTYPE
  5
50
100
AcDbSymbolTableRecord
100
AcDbLinetypeTableRecord
  2
BORDER2
 70
0
  3
Border (.5x) __.__.__.__.__.__.__.__.__.__.__.
 72
65
 73
6
 40
22.2249999999999979
 49
6.3499999999999996
 74
0
 49
-3.1749999999999998
 74
0
 49
6.3499999999999996
 74
0
 49
-3.1749999999999998
 74
0
 49
0.0
 74
0
 49
-3.1749999999999998
 74
0
  0
LTYPE
  5
51
100
AcDbSymbolTableRecord
100
AcDbLinetypeTableRecord
  2
DASHED
 70
0
  3
Dashed __ __ __ __ __ __ __ __ __ __ __ __ __ _
 72
65
 73
2
 40
19.0499999999999972
 49
12.6999999999999993
 74
0
 49
-6.3499999999999996
 74
0
  0
LTYPE
  5
52
100
AcDbSymbolTableRecord
100
AcDbLinetypeTableRecord
  2
DASHED2
 70
0
  3
Dashed (.5x) _ _ _ _ _ _ _ _ _ _ _ _ _ _ _ _ _ 
 72
65
 73
2
 40
9.5249999999999986
 49
6.3499999999999996
 74
0
 49
-3.1749999999999998
 74
0
  0
LTYPE
  5
53
100
AcDbSymbolTableRecord
100
AcDbLinetypeTableRecord
  2
DASHEDX2
 70
0
  3
Dashed (2x) ____  ____  ____  ____  ____  ___
 72
65
 73
2
 40
38.0999999999999943
 49
25.3999999999999986
 74
0
 49
-12.6999999999999993
 74
0
  0
LTYPE
  5
54
100
AcDbSymbolTableRecord
100
AcDbLinetypeTableRecord
  2
BORDERX2
 70
0
  3
Border (2x) ____  ____  .  ____  ____  .  ___
 72
65
 73
6
 40
88.8999999999999915
 49
25.3999999999999986
 74
0
 49
-12.6999999999999993
 74
0
 49
25.3999999999999986
 74
0
 49
-12.6999999999999993
 74
0
 49
0.0
 74
0
 49
-12.6999999999999993
 74
0
  0
LTYPE
  5
55
100
AcDbSymbolTableRecord
100
AcDbLinetypeTableRecord
  2
ACAD_ISO05W100
 70
0
  3
ISO long-dash double-dot ____ .. ____ .. ____ . 
 72
65
 73
6
 40
33.0
 49
24.0
 74
0
 49
-3.0
 74
0
 49
0.0
 74
0
 49
-3.0
 74
0
 49
0.0
 74
0
 49
-3.0
 74
0
  0
LTYPE
  5
56
100
AcDbSymbolTableRecord
100
AcDbLinetypeTableRecord
  2
BORDER
 70
0
  3
Border __ __ . __ __ . __ __ . __ __ . __ __ .
 72
65
 73
6
 40
44.4499999999999957
 49
12.6999999999999993
 74
0
 49
-6.3499999999999996
 74
0
 49
12.6999999999999993
 74
0
 49
-6.3499999999999996
 74
0
 49
0.0
 74
0
 49
-6.3499999999999996
 74
0
  0
ENDTAB
  0
TABLE
  2
LAYER
  5
2
100
AcDbSymbolTable
 70
3
  0
LAYER
  5
10
100
AcDbSymbolTableRecord
100
AcDbLayerTableRecord
  2
0
 70
0
 62
7
420
16777215
  6
Continuous
370
-3
390
F
  0
LAYER
  5
57
100
AcDbSymbolTableRecord
100
AcDbLayerTableRecord
  2
_U+5207_U+65AD_U+30D1_U+30B9
 70
0
 62
7
420
16777215
  6
Continuous
370
-3
390
F
  0
LAYER
  5
58
100
AcDbSymbolTableRecord
100
AcDbLayerTableRecord
  2
_U+5F6B_U+523B_U+30D1_U+30B9
 70
0
 62
7
420
16777215
  6
Continuous
370
-3
390
F
  0
ENDTAB
  0
TABLE
  2
STYLE
  5
3
100
AcDbSymbolTable
 70
1
  0
STYLE
  5
59
100
AcDbSymbolTableRecord
100
AcDbTextStyleTableRecord
  2
Standard
 70
0
 40
0.0
 41
1.0
 50
0.0
 71
0
 42
2.5
  3

  4

1001
ACAD
1000
txt
1071
0
  0
ENDTAB
  0
TABLE
  2
VIEW
  5
6
100
AcDbSymbolTable
 70
0
  0
ENDTAB
  0
TABLE
  2
UCS
  5
7
100
AcDbSymbolTable
 70
0
  0
ENDTAB
  0
TABLE
  2
APPID
  5
9
100
AcDbSymbolTable
 70
1
  0
APPID
  5
12
100
AcDbSymbolTableRecord
100
AcDbRegAppTableRecord
  2
ACAD
 70
0
  0
APPID
  5
5A
100
AcDbSymbolTableRecord
100
AcDbRegAppTableRecord
  2
QCAD
 70
0
  0
ENDTAB
  0
TABLE
  2
DIMSTYLE
  5
A
100
AcDbSymbolTable
 70
1
100
AcDbDimStyleTable
 71
0
  0
DIMSTYLE
105
27
100
AcDbSymbolTableRecord
100
AcDbDimStyleTableRecord
  2
Standard
 41
0.18
 42
0.0625
 43
3.75
 44
0.18
 70
0
 73
0
 74
0
 77
1
 78
8
140
0.18
141
2.5
143
0.03937007874016
147
0.09
171
3
172
1
271
2
272
2
274
3
278
44
283
0
284
8
340
59
  0
ENDTAB
  0
TABLE
  2
BLOCK_RECORD
  5
1
100
AcDbSymbolTable
 70
1
  0
BLOCK_RECORD
  5
1F
100
AcDbSymbolTableRecord
100
AcDbBlockTableRecord
  2
*Model_Space
340
22
  0
BLOCK_RECORD
  5
1B
100
AcDbSymbolTableRecord
100
AcDbBlockTableRecord
  2
*Paper_Space
340
1E
  0
BLOCK_RECORD
  5
23
100
AcDbSymbolTableRecord
100
AcDbBlockTableRecord
  2
*Paper_Space0
340
26
  0
BLOCK_RECORD
  5
5B
100
AcDbSymbolTableRecord
100
AcDbBlockTableRecord
  2
block 56
340
0
  0
BLOCK_RECORD
  5
5C
100
AcDbSymbolTableRecord
100
AcDbBlockTableRecord
  2
block 38
340
0
  0
BLOCK_RECORD
  5
5D
100
AcDbSymbolTableRecord
100
AcDbBlockTableRecord
  2
block 77
340
0
  0
BLOCK_RECORD
  5
5E
100
AcDbSymbolTableRecord
100
AcDbBlockTableRecord
  2
block 29
340
0
  0
BLOCK_RECORD
  5
5F
100
AcDbSymbolTableRecord
100
AcDbBlockTableRecord
  2
block 50
340
0
  0
BLOCK_RECORD
  5
60
100
AcDbSymbolTableRecord
100
AcDbBlockTableRecord
  2
block 35
340
0
  0
BLOCK_RECORD
  5
61
100
AcDbSymbolTableRecord
100
AcDbBlockTableRecord
  2
block 9
340
0
  0
BLOCK_RECORD
  5
62
100
AcDbSymbolTableRecord
100
AcDbBlockTableRecord
  2
block 2
340
0
  0
BLOCK_RECORD
  5
63
100
AcDbSymbolTableRecord
100
AcDbBlockTableRecord
  2
block 10
340
0
  0
BLOCK_RECORD
  5
64
100
AcDbSymbolTableRecord
100
AcDbBlockTableRecord
  2
block 4
340
0
  0
BLOCK_RECORD
  5
65
100
AcDbSymbolTableRecord
100
AcDbBlockTableRecord
  2
block 78
340
0
  0
BLOCK_RECORD
  5
66
100
AcDbSymbolTableRecord
100
AcDbBlockTableRecord
  2
block 71
340
0
  0
BLOCK_RECORD
  5
67
100
AcDbSymbolTableRecord
100
AcDbBlockTableRecord
  2
block 17
340
0
  0
BLOCK_RECORD
  5
68
100
AcDbSymbolTableRecord
100
AcDbBlockTableRecord
  2
block 66
340
0
  0
BLOCK_RECORD
  5
69
100
AcDbSymbolTableRecord
100
AcDbBlockTableRecord
  2
block 60
340
0
  0
BLOCK_RECORD
  5
6A
100
AcDbSymbolTableRecord
100
AcDbBlockTableRecord
  2
block 55
340
0
  0
BLOCK_RECORD
  5
6B
100
AcDbSymbolTableRecord
100
AcDbBlockTableRecord
  2
block 79
340
0
  0
BLOCK_RECORD
  5
6C
100
AcDbSymbolTableRecord
100
AcDbBlockTableRecord
  2
block 5
340
0
  0
BLOCK_RECORD
  5
6D
100
AcDbSymbolTableRecord
100
AcDbBlockTableRecord
  2
block 27
340
0
  0
BLOCK_RECORD
  5
6E
100
AcDbSymbolTableRecord
100
AcDbBlockTableRecord
  2
block 69
340
0
  0
BLOCK_RECORD
  5
6F
100
AcDbSymbolTableRecord
100
AcDbBlockTableRecord
  2
block 65
340
0
  0
BLOCK_RECORD
  5
70
100
AcDbSymbolTableRecord
100
AcDbBlockTableRecord
  2
block 18
340
0
  0
BLOCK_RECORD
  5
71
100
AcDbSymbolTableRecord
100
AcDbBlockTableRecord
  2
block 57
340
0
  0
BLOCK_RECORD
  5
72
100
AcDbSymbolTableRecord
100
AcDbBlockTableRecord
  2
block 20
340
0
  0
BLOCK_RECORD
  5
73
100
AcDbSymbolTableRecord
100
AcDbBlockTableRecord
  2
block 16
340
0
  0
BLOCK_RECORD
  5
74
100
AcDbSymbolTableRecord
100
AcDbBlockTableRecord
  2
block 49
340
0
  0
BLOCK_RECORD
  5
75
100
AcDbSymbolTableRecord
100
AcDbBlockTableRecord
  2
block 23
340
0
  0
BLOCK_RECORD
  5
76
100
AcDbSymbolTableRecord
100
AcDbBlockTableRecord
  2
block 62
340
0
  0
BLOCK_RECORD
  5
77
100
AcDbSymbolTableRecord
100
AcDbBlockTableRecord
  2
block 39
340
0
  0
BLOCK_RECORD
  5
78
100
AcDbSymbolTableRecord
100
AcDbBlockTableRecord
  2
block 45
340
0
  0
BLOCK_RECORD
  5
79
100
AcDbSymbolTableRecord
100
AcDbBlockTableRecord
  2
block 15
340
0
  0
BLOCK_RECORD
  5
7A
100
AcDbSymbolTableRecord
100
AcDbBlockTableRecord
  2
block 68
340
0
  0
BLOCK_RECORD
  5
7B
100
AcDbSymbolTableRecord
100
AcDbBlockTableRecord
  2
block 76
340
0
  0
BLOCK_RECORD
  5
7C
100
AcDbSymbolTableRecord
100
AcDbBlockTableRecord
  2
block 40
340
0
  0
BLOCK_RECORD
  5
7D
100
AcDbSymbolTableRecord
100
AcDbBlockTableRecord
  2
block 26
340
0
  0
BLOCK_RECORD
  5
7E
100
AcDbSymbolTableRecord
100
AcDbBlockTableRecord
  2
block 13
340
0
  0
BLOCK_RECORD
  5
7F
100
AcDbSymbolTableRecord
100
AcDbBlockTableRecord
  2
block 74
340
0
  0
BLOCK_RECORD
  5
80
100
AcDbSymbolTableRecord
100
AcDbBlockTableRecord
  2
block 37
340
0
  0
BLOCK_RECORD
  5
81
100
AcDbSymbolTableRecord
100
AcDbBlockTableRecord
  2
block 42
340
0
  0
BLOCK_RECORD
  5
82
100
AcDbSymbolTableRecord
100
AcDbBlockTableRecord
  2
block 58
340
0
  0
BLOCK_RECORD
  5
83
100
AcDbSymbolTableRecord
100
AcDbBlockTableRecord
  2
block 28
340
0
  0
BLOCK_RECORD
  5
84
100
AcDbSymbolTableRecord
100
AcDbBlockTableRecord
  2
block 34
340
0
  0
BLOCK_RECORD
  5
85
100
AcDbSymbolTableRecord
100
AcDbBlockTableRecord
  2
block 11
340
0
  0
BLOCK_RECORD
  5
86
100
AcDbSymbolTableRecord
100
AcDbBlockTableRecord
  2
block 51
340
0
  0
BLOCK_RECORD
  5
87
100
AcDbSymbolTableRecord
100
AcDbBlockTableRecord
  2
block 63
340
0
  0
BLOCK_RECORD
  5
88
100
AcDbSymbolTableRecord
100
AcDbBlockTableRecord
  2
block 59
340
0
  0
BLOCK_RECORD
  5
89
100
AcDbSymbolTableRecord
100
AcDbBlockTableRecord
  2
block 24
340
0
  0
BLOCK_RECORD
  5
8A
100
AcDbSymbolTableRecord
100
AcDbBlockTableRecord
  2
block 70
340
0
  0
BLOCK_RECORD
  5
8B
100
AcDbSymbolTableRecord
100
AcDbBlockTableRecord
  2
block 64
340
0
  0
BLOCK_RECORD
  5
8C
100
AcDbSymbolTableRecord
100
AcDbBlockTableRecord
  2
block 48
340
0
  0
BLOCK_RECORD
  5
8D
100
AcDbSymbolTableRecord
100
AcDbBlockTableRecord
  2
block 61
340
0
  0
BLOCK_RECORD
  5
8E
100
AcDbSymbolTableRecord
100
AcDbBlockTableRecord
  2
block 52
340
0
  0
BLOCK_RECORD
  5
8F
100
AcDbSymbolTableRecord
100
AcDbBlockTableRecord
  2
block 19
340
0
  0
BLOCK_RECORD
  5
90
100
AcDbSymbolTableRecord
100
AcDbBlockTableRecord
  2
block 44
340
0
  0
BLOCK_RECORD
  5
91
100
AcDbSymbolTableRecord
100
AcDbBlockTableRecord
  2
block 67
340
0
  0
BLOCK_RECORD
  5
92
100
AcDbSymbolTableRecord
100
AcDbBlockTableRecord
  2
block 14
340
0
  0
BLOCK_RECORD
  5
93
100
AcDbSymbolTableRecord
100
AcDbBlockTableRecord
  2
block 30
340
0
  0
BLOCK_RECORD
  5
94
100
AcDbSymbolTableRecord
100
AcDbBlockTableRecord
  2
block 22
340
0
  0
BLOCK_RECORD
  5
95
100
AcDbSymbolTableRecord
100
AcDbBlockTableRecord
  2
block 6
340
0
  0
BLOCK_RECORD
  5
96
100
AcDbSymbolTableRecord
100
AcDbBlockTableRecord
  2
block 53
340
0
  0
BLOCK_RECORD
  5
97
100
AcDbSymbolTableRecord
100
AcDbBlockTableRecord
  2
block 41
340
0
  0
BLOCK_RECORD
  5
98
100
AcDbSymbolTableRecord
100
AcDbBlockTableRecord
  2
block 33
340
0
  0
BLOCK_RECORD
  5
99
100
AcDbSymbolTableRecord
100
AcDbBlockTableRecord
  2
block 73
340
0
  0
BLOCK_RECORD
  5
9A
100
AcDbSymbolTableRecord
100
AcDbBlockTableRecord
  2
block 3
340
0
  0
BLOCK_RECORD
  5
9B
100
AcDbSymbolTableRecord
100
AcDbBlockTableRecord
  2
block 12
340
0
  0
BLOCK_RECORD
  5
9C
100
AcDbSymbolTableRecord
100
AcDbBlockTableRecord
  2
block 8
340
0
  0
BLOCK_RECORD
  5
9D
100
AcDbSymbolTableRecord
100
AcDbBlockTableRecord
  2
block 46
340
0
  0
BLOCK_RECORD
  5
9E
100
AcDbSymbolTableRecord
100
AcDbBlockTableRecord
  2
block 43
340
0
  0
BLOCK_RECORD
  5
9F
100
AcDbSymbolTableRecord
100
AcDbBlockTableRecord
  2
block 47
340
0
  0
BLOCK_RECORD
  5
A0
100
AcDbSymbolTableRecord
100
AcDbBlockTableRecord
  2
block 54
340
0
  0
BLOCK_RECORD
  5
A1
100
AcDbSymbolTableRecord
100
AcDbBlockTableRecord
  2
block 21
340
0
  0
BLOCK_RECORD
  5
A2
100
AcDbSymbolTableRecord
100
AcDbBlockTableRecord
  2
block 7
340
0
  0
BLOCK_RECORD
  5
A3
100
AcDbSymbolTableRecord
100
AcDbBlockTableRecord
  2
block 36
340
0
  0
BLOCK_RECORD
  5
A4
100
AcDbSymbolTableRecord
100
AcDbBlockTableRecord
  2
block 72
340
0
  0
BLOCK_RECORD
  5
A5
100
AcDbSymbolTableRecord
100
AcDbBlockTableRecord
  2
block 32
340
0
  0
BLOCK_RECORD
  5
A6
100
AcDbSymbolTableRecord
100
AcDbBlockTableRecord
  2
block 31
340
0
  0
BLOCK_RECORD
  5
A7
100
AcDbSymbolTableRecord
100
AcDbBlockTableRecord
  2
block 75
340
0
  0
BLOCK_RECORD
  5
A8
100
AcDbSymbolTableRecord
100
AcDbBlockTableRecord
  2
block 25
340
0
  0
ENDTAB
  0
ENDSEC
  0
SECTION
  2
BLOCKS
  0
BLOCK
  5
20
100
AcDbEntity
  8
0
100
AcDbBlockBegin
  2
*Model_Space
 70
0
 10
0.0
 20
0.0
 30
0.0
  3
*Model_Space
  1

  0
ENDBLK
  5
21
100
AcDbEntity
  8
0
100
AcDbBlockEnd
  0
BLOCK
  5
1C
100
AcDbEntity
 67
1
  8
0
100
AcDbBlockBegin
  2
*Paper_Space
 70
0
 10
0.0
 20
0.0
 30
0.0
  3
*Paper_Space
  1

  0
ENDBLK
  5
1D
100
AcDbEntity
 67
1
  8
0
100
AcDbBlockEnd
  0
BLOCK
  5
24
100
AcDbEntity
  8
0
100
AcDbBlockBegin
  2
*Paper_Space0
 70
0
 10
0.0
 20
0.0
 30
0.0
  3
*Paper_Space0
  1

  0
ENDBLK
  5
25
100
AcDbEntity
  8
0
100
AcDbBlockEnd
  0
BLOCK
  5
A9
100
AcDbEntity
  8
0
100
AcDbBlockBegin
  2
block 56
 70
0
 10
0.0
 20
0.0
 30
0.0
  3
block 56
  1

  0
LWPOLYLINE
  5
AA
100
AcDbEntity
  8
_U+5207_U+65AD_U+30D1_U+30B9
 62
1
420
16711680
370
9
 48
1.0
  6
ByLayer
100
AcDbPolyline
 90
5
 70
0
 10
-27.410549882117639
 20
-55.8727072624747265
 10
-27.4105498827397582
 20
-69.7236896327296165
 10
-41.2615322529962469
 20
-69.7236896321078063
 10
-41.261532252374117
 20
-55.8727072618529235
 10
-27.410549882117639
 20
-55.8727072624747265
  0
ENDBLK
  5
AB
100
AcDbEntity
  8
0
100
AcDbBlockEnd
  0
BLOCK
  5
AC
100
AcDbEntity
  8
0
100
AcDbBlockBegin
  2
block 38
 70
0
 10
0.0
 20
0.0
 30
0.0
  3
block 38
  1

  0
SPLINE
  5
AD
100
AcDbEntity
  8
_U+5207_U+65AD_U+30D1_U+30B9
 62
1
420
16711680
370
9
 48
1.0
  6
ByLayer
100
AcDbSpline
 70
8
 71
3
 72
128
 73
124
 74
0
 40
0.0
 40
0.0
 40
0.0
 40
0.0
 40
1.0
 40
1.0
 40
1.0
 40
2.0
 40
2.0
 40
2.0
 40
3.0
 40
3.0
 40
3.0
 40
4.0
 40
4.0
 40
4.0
 40
5.0
 40
5.0
 40
5.0
 40
6.0
 40
6.0
 40
6.0
 40
7.0
 40
7.0
 40
7.0
 40
8.0
 40
8.0
 40
8.0
 40
9.0
 40
9.0
 40
9.0
 40
10.0
 40
10.0
 40
10.0
 40
11.0
 40
11.0
 40
11.0
 40
12.0
 40
12.0
 40
12.0
 40
13.0
 40
13.0
 40
13.0
 40
14.0
 40
14.0
 40
14.0
 40
15.0
 40
15.0
 40
15.0
 40
16.0
 40
16.0
 40
16.0
 40
17.0
 40
17.0
 40
17.0
 40
18.0
 40
18.0
 40
18.0
 40
19.0
 40
19.0
 40
19.0
 40
20.0
 40
20.0
 40
20.0
 40
21.0
 40
21.0
 40
21.0
 40
22.0
 40
22.0
 40
22.0
 40
23.0
 40
23.0
 40
23.0
 40
24.0
 40
24.0
 40
24.0
 40
25.0
 40
25.0
 40
25.0
 40
26.0
 40
26.0
 40
26.0
 40
27.0
 40
27.0
 40
27.0
 40
28.0
 40
28.0
 40
28.0
 40
29.0
 40
29.0
 40
29.0
 40
30.0
 40
30.0
 40
30.0
 40
31.0
 40
31.0
 40
31.0
 40
32.0
 40
32.0
 40
32.0
 40
33.0
 40
33.0
 40
33.0
 40
34.0
 40
34.0
 40
34.0
 40
35.0
 40
35.0
 40
35.0
 40
36.0
 40
36.0
 40
36.0
 40
37.0
 40
37.0
 40
37.0
 40
38.0
 40
38.0
 40
38.0
 40
39.0
 40
39.0
 40
39.0
 40
40.0
 40
40.0
 40
40.0
 40
41.0
 40
41.0
 40
41.0
 40
41.0
 10
87.7165606134437894
 20
-71.0217574340208415
 30
0.0
 10
87.8103354535823115
 20
-70.9279825938932333
 30
0.0
 10
87.9375214305995172
 20
-70.8753004372781419
 30
0.0
 10
88.0701390813269427
 20
-70.8753004372839257
 30
0.0
 10
88.0701390813269427
 20
-70.8753004372839257
 30
0.0
 10
124.0726925346981062
 20
-70.8753004389003536
 30
0.0
 10
124.0726925346981062
 20
-70.8753004389003536
 30
0.0
 10
124.0726925346981062
 20
-70.8753004389003536
 30
0.0
 10
126.072834393216894
 20
-70.8753004389901946
 30
0.0
 10
126.072834393216894
 20
-70.8753004389901946
 30
0.0
 10
126.072834393216894
 20
-70.8753004389901946
 30
0.0
 10
143.0740401906423926
 20
-70.8753004397531754
 30
0.0
 10
143.0740401906423926
 20
-70.8753004397531754
 30
0.0
 10
143.3502021521323115
 20
-70.8753004397660078
 30
0.0
 10
143.574075655283707
 20
-70.6514269366293206
 30
0.0
 10
143.574075655295303
 20
-70.3752649751459245
 30
0.0
 10
143.574075655295303
 20
-70.3752649751459245
 30
0.0
 10
143.5740756577760919
 20
-15.1213461335123505
 30
0.0
 10
143.5740756577760919
 20
-15.1213461335123505
 30
0.0
 10
143.5740756577889101
 20
-14.8451841720225506
 30
0.0
 10
143.3502021546580067
 20
-14.6213106688704499
 30
0.0
 10
143.0740401931682015
 20
-14.6213106688576104
 30
0.0
 10
143.0740401931682015
 20
-14.6213106688576104
 30
0.0
 10
126.0728343957427029
 20
-14.6213106680946296
 30
0.0
 10
126.0728343957427029
 20
-14.6213106680946296
 30
0.0
 10
126.0728343957427029
 20
-14.6213106680946296
 30
0.0
 10
124.0726925372238014
 20
-14.6213106680047993
 30
0.0
 10
124.0726925372238014
 20
-14.6213106680047993
 30
0.0
 10
124.0726925372238014
 20
-14.6213106680047993
 30
0.0
 10
106.0714158105350009
 20
-14.6213106671968998
 30
0.0
 10
106.0714158105350009
 20
-14.6213106671968998
 30
0.0
 10
105.7952538490491037
 20
-14.6213106671840603
 30
0.0
 10
105.5713803459182003
 20
-14.3974371640358196
 30
0.0
 10
105.5713803459310043
 20
-14.1212752025421597
 30
0.0
 10
105.5713803459310043
 20
-14.1212752025421597
 30
0.0
 10
105.5713803460991045
 20
-10.37100921781742
 30
0.0
 10
105.5713803460991045
 20
-10.37100921781742
 30
0.0
 10
105.5713803461119937
 20
-10.0948472563301799
 30
0.0
 10
105.3475068429822983
 20
-9.8709737531748729
 30
0.0
 10
105.0713448814899067
 20
-9.87097375316268
 30
0.0
 10
105.0713448814899067
 20
-9.87097375316268
 30
0.0
 10
87.0700681548062931
 20
-9.8709737523541392
 30
0.0
 10
87.0700681548062931
 20
-9.8709737523541392
 30
0.0
 10
86.793906193315209
 20
-9.8709737523419481
 30
0.0
 10
86.5700326901842914
 20
-9.6471002491969085
 30
0.0
 10
86.5700326901971238
 20
-9.3709382877058207
 30
0.0
 10
86.5700326901971238
 20
-9.3709382877058207
 30
0.0
 10
86.5700326902535977
 20
-8.1208496261257732
 30
0.0
 10
86.5700326902535977
 20
-8.1208496261257732
 30
0.0
 10
86.5700326902651369
 20
-7.8446876646385357
 30
0.0
 10
86.3461591871354983
 20
-7.620814161490288
 30
0.0
 10
86.0699972256457073
 20
-7.6208141614774538
 30
0.0
 10
86.0699972256457073
 20
-7.6208141614774538
 30
0.0
 10
69.0687914282201803
 20
-7.6208141607144739
 30
0.0
 10
69.0687914282201803
 20
-7.6208141607144739
 30
0.0
 10
68.7926294667290961
 20
-7.6208141607016398
 30
0.0
 10
68.5687559635776438
 20
-7.8446876638306371
 30
0.0
 10
68.5687559635660904
 20
-8.1208496253178737
 30
0.0
 10
68.5687559635660904
 20
-8.1208496253178737
 30
0.0
 10
68.5687559635096164
 20
-9.370938286897923
 30
0.0
 10
68.5687559635096164
 20
-9.370938286897923
 30
0.0
 10
68.568755963496784
 20
-9.6471002483890089
 30
0.0
 10
68.3448824603491829
 20
-9.8709737515135139
 30
0.0
 10
68.0687204988593777
 20
-9.8709737515013227
 30
0.0
 10
68.0687204988593777
 20
-9.8709737515013227
 30
0.0
 10
50.0674437721725099
 20
-9.8709737506927819
 30
0.0
 10
50.0674437721725099
 20
-9.8709737506927819
 30
0.0
 10
49.7912818106814328
 20
-9.870973750680589
 30
0.0
 10
49.5674083075302931
 20
-10.0948472538153595
 30
0.0
 10
49.5674083075180931
 20
-10.3710092153025997
 30
0.0
 10
49.5674083075180931
 20
-10.3710092153025997
 30
0.0
 10
49.5674083074507195
 20
-11.8711156091917296
 30
0.0
 10
49.5674083074507195
 20
-11.8711156091917296
 30
0.0
 10
49.5674083074417311
 20
-12.1472775706866596
 30
0.0
 10
49.3435348042893125
 20
-12.3711510738118093
 30
0.0
 10
49.0673728427995073
 20
-12.3711510737989805
 30
0.0
 10
49.0673728427995073
 20
-12.3711510737989805
 30
0.0
 10
31.0660961161145792
 20
-12.3711510729910792
 30
0.0
 10
31.0660961161145792
 20
-12.3711510729910792
 30
0.0
 10
30.7899341546260494
 20
-12.3711510729788792
 30
0.0
 10
30.5660606514746007
 20
-12.5950245761136603
 30
0.0
 10
30.5660606514624007
 20
-12.8711865376008898
 30
0.0
 10
30.5660606514624007
 20
-12.8711865376008898
 30
0.0
 10
30.5660606514069002
 20
-14.1057803756975506
 30
0.0
 10
30.5660606514069002
 20
-14.1057803756975506
 30
0.0
 10
30.5376440364243713
 20
-14.3739023965513493
 30
0.0
 10
30.3318214011509788
 20
-14.5890480564124996
 30
0.0
 10
30.0652203113143592
 20
-14.6293069805787006
 30
0.0
 10
30.0652203113143592
 20
-14.6293069805787006
 30
0.0
 10
10.3138194584247902
 20
-14.6293069796918704
 30
0.0
 10
10.3138194584247902
 20
-14.6293069796918704
 30
0.0
 10
10.0376574969375607
 20
-14.6293069796796793
 30
0.0
 10
9.8137839937860996
 20
-14.8531804828118901
 30
0.0
 10
9.8137839937739066
 20
-15.1293424443029707
 30
0.0
 10
9.8137839937739066
 20
-15.1293424443029707
 30
0.0
 10
9.8137290178620411
 20
-74.0901236035379895
 30
0.0
 10
9.8137290178620411
 20
-74.0901236035379895
 30
0.0
 10
9.8570480409365686
 20
-74.90343547859176
 30
0.0
 10
10.1026573337873895
 20
-75.6930781135854289
 30
0.0
 10
10.5282937062439306
 20
-76.3874745582024559
 30
0.0
 10
10.5282937062439306
 20
-76.3874745582024559
 30
0.0
 10
23.7655783286065798
 20
-99.4273254647762883
 30
0.0
 10
23.7655783286065798
 20
-99.4273254647762883
 30
0.0
 10
23.7703230842858098
 20
-99.4344770517734986
 30
0.0
 10
23.7751731509487989
 20
-99.4415582085683667
 30
0.0
 10
23.7801269434731495
 20
-99.44856662085148
 30
0.0
 10
24.0581342256244604
 20
-99.8418793485736984
 30
0.0
 10
24.6023466201538206
 20
-99.9353528808956924
 30
0.0
 10
24.9956593478808387
 20
-99.6573455987415002
 30
0.0
 10
24.9956593478808387
 20
-99.6573455987415002
 30
0.0
 10
39.7453285506095071
 20
-91.1678212737689933
 30
0.0
 10
39.7453285506095071
 20
-91.1678212737689933
 30
0.0
 10
39.8365616719256934
 20
-91.1361022797478455
 30
0.0
 10
39.9302632242557323
 20
-91.1119876571017073
 30
0.0
 10
40.0254739356728777
 20
-91.0957242798775582
 30
0.0
 10
40.0254739356728777
 20
-91.0957242798775582
 30
0.0
 10
76.819341126484062
 20
-85.6263466433636751
 30
0.0
 10
76.819341126484062
 20
-85.6263466433636751
 30
0.0
 10
76.9485884904201498
 20
-85.6132261418024711
 30
0.0
 10
77.0707287858125625
 20
-85.5608803009257883
 30
0.0
 10
77.1693659517342212
 20
-85.4763360039905393
 30
0.0
 10
77.1693659517342212
 20
-85.4763360039905393
 30
0.0
 10
87.7201142560780625
 20
-71.0170836176073408
 30
0.0
 10
87.7165606134437894
 20
-71.0217574340208415
 30
0.0
  0
ENDBLK
  5
AE
100
AcDbEntity
  8
0
100
AcDbBlockEnd
  0
BLOCK
  5
AF
100
AcDbEntity
  8
0
100
AcDbBlockBegin
  2
block 77
 70
0
 10
0.0
 20
0.0
 30
0.0
  3
block 77
  1

  0
SPLINE
  5
B0
100
AcDbEntity
  8
_U+5207_U+65AD_U+30D1_U+30B9
 62
1
420
16711680
370
9
 48
1.0
  6
ByLayer
100
AcDbSpline
 70
8
 71
3
 72
32
 73
28
 74
0
 40
0.0
 40
0.0
 40
0.0
 40
0.0
 40
1.0
 40
1.0
 40
1.0
 40
2.0
 40
2.0
 40
2.0
 40
3.0
 40
3.0
 40
3.0
 40
4.0
 40
4.0
 40
4.0
 40
5.0
 40
5.0
 40
5.0
 40
6.0
 40
6.0
 40
6.0
 40
7.0
 40
7.0
 40
7.0
 40
8.0
 40
8.0
 40
8.0
 40
9.0
 40
9.0
 40
9.0
 40
9.0
 10
-123.0964896706303051
 20
-13.3102444757072593
 30
0.0
 10
-123.0964896706303051
 20
-13.3102444757072593
 30
0.0
 10
-123.0964887438417037
 20
-60.6668311966366574
 30
0.0
 10
-123.0964887438417037
 20
-60.6668311966366574
 30
0.0
 10
-123.1563383260311042
 20
-61.189582120697267
 30
0.0
 10
-123.3906948967212998
 20
-61.4479821142450788
 30
0.0
 10
-123.735379222051094
 20
-61.7485953038189521
 30
0.0
 10
-123.735379222051094
 20
-61.7485953038189521
 30
0.0
 10
-142.5751690791836097
 20
-72.6050107119160941
 30
0.0
 10
-142.5751690791836097
 20
-72.6050107119160941
 30
0.0
 10
-142.9798728998329125
 20
-72.7751275849656736
 30
0.0
 10
-143.4458571421374984
 20
-72.5849572897381705
 30
0.0
 10
-143.6159740151886979
 20
-72.1802534690843771
 30
0.0
 10
-143.6410346314596893
 20
-72.1206348847080676
 30
0.0
 10
-143.6587259012389097
 20
-72.0581807696707131
 30
0.0
 10
-143.6686555180394862
 20
-71.9942760530945662
 30
0.0
 10
-143.6686555180394862
 20
-71.9942760530945662
 30
0.0
 10
-143.667486843256313
 20
-13.3205537625668704
 30
0.0
 10
-143.667486843256313
 20
-13.3205537625668704
 30
0.0
 10
-143.6674866789983867
 20
-13.0443918010770705
 30
0.0
 10
-143.4436130426992122
 20
-12.8205184310916405
 30
0.0
 10
-143.1674510812106007
 20
-12.8205185953505492
 30
0.0
 10
-143.1674510812106007
 20
-12.8205185953505492
 30
0.0
 10
-123.5967171295078941
 20
-12.8097110474835905
 30
0.0
 10
-123.5967171295078941
 20
-12.8097110474835905
 30
0.0
 10
-123.320480161196997
 20
-12.8100739886280603
 30
0.0
 10
-123.0966837001527949
 20
-13.0340073371080702
 30
0.0
 10
-123.0964896706303051
 20
-13.3102444757072593
 30
0.0
  0
ENDBLK
  5
B1
100
AcDbEntity
  8
0
100
AcDbBlockEnd
  0
BLOCK
  5
B2
100
AcDbEntity
  8
0
100
AcDbBlockBegin
  2
block 29
 70
0
 10
0.0
 20
0.0
 30
0.0
  3
block 29
  1

  0
LWPOLYLINE
  5
B3
100
AcDbEntity
  8
_U+5207_U+65AD_U+30D1_U+30B9
 62
1
420
16711680
370
9
 48
1.0
  6
ByLayer
100
AcDbPolyline
 90
5
 70
0
 10
84.6872187997071251
 20
92.9111801851619532
 10
84.6872187997071251
 20
79.0601978149096425
 10
98.5382011699632869
 20
79.0601978149096425
 10
98.5382011699632869
 20
92.9111801851619532
 10
84.6872187997071251
 20
92.9111801851619532
  0
ENDBLK
  5
B4
100
AcDbEntity
  8
0
100
AcDbBlockEnd
  0
BLOCK
  5
B5
100
AcDbEntity
  8
0
100
AcDbBlockBegin
  2
block 50
 70
0
 10
0.0
 20
0.0
 30
0.0
  3
block 50
  1

  0
SPLINE
  5
B6
100
AcDbEntity
  8
_U+5207_U+65AD_U+30D1_U+30B9
 62
1
420
16711680
370
9
 48
1.0
  6
ByLayer
100
AcDbSpline
 70
8
 71
3
 72
20
 73
16
 74
0
 40
0.0
 40
0.0
 40
0.0
 40
0.0
 40
1.0
 40
1.0
 40
1.0
 40
2.0
 40
2.0
 40
2.0
 40
3.0
 40
3.0
 40
3.0
 40
4.0
 40
4.0
 40
4.0
 40
5.0
 40
5.0
 40
5.0
 40
5.0
 10
-66.9867418963907397
 20
-70.4279074460944088
 30
0.0
 10
-66.9867418963637817
 20
-69.8203511308147853
 30
0.0
 10
-67.4792636032442488
 20
-69.3278294238836423
 30
0.0
 10
-68.0868199185251513
 20
-69.3278294238560449
 30
0.0
 10
-68.6943762338047748
 20
-69.3278294238290869
 30
0.0
 10
-69.1868979407301481
 20
-69.820351130715963
 30
0.0
 10
-69.1868979407570919
 20
-70.4279074459955865
 30
0.0
 10
-69.1868979407846894
 20
-71.035463761273931
 30
0.0
 10
-68.694376233903597
 20
-71.5279854681980112
 30
0.0
 10
-68.0868199186239735
 20
-71.5279854682249692
 30
0.0
 10
-67.4792636033430711
 20
-71.5279854682525666
 30
0.0
 10
-66.9867418964183372
 20
-71.0354637613727391
 30
0.0
 10
-66.9867418963907397
 20
-70.4279074460944088
 30
0.0
 10
-66.9867418963907397
 20
-70.4279074460944088
 30
0.0
 10
-66.9867418963907397
 20
-70.4279074460944088
 30
0.0
 10
-66.9867418963907397
 20
-70.4279074460944088
 30
0.0
  0
ENDBLK
  5
B7
100
AcDbEntity
  8
0
100
AcDbBlockEnd
  0
BLOCK
  5
B8
100
AcDbEntity
  8
0
100
AcDbBlockBegin
  2
block 35
 70
0
 10
0.0
 20
0.0
 30
0.0
  3
block 35
  1

  0
LWPOLYLINE
  5
B9
100
AcDbEntity
  8
_U+5207_U+65AD_U+30D1_U+30B9
 62
1
420
16711680
370
9
 48
1.0
  6
ByLayer
100
AcDbPolyline
 90
5
 70
0
 10
75.1865449717362253
 20
35.2820928865414274
 10
75.1865449717362253
 20
21.4311105162852691
 10
89.0375273419911082
 20
21.4311105162852691
 10
89.0375273419911082
 20
35.2820928865414274
 10
75.1865449717362253
 20
35.2820928865414274
  0
ENDBLK
  5
BA
100
AcDbEntity
  8
0
100
AcDbBlockEnd
  0
BLOCK
  5
BB
100
AcDbEntity
  8
0
100
AcDbBlockBegin
  2
block 9
 70
0
 10
0.0
 20
0.0
 30
0.0
  3
block 9
  1

  0
SPLINE
  5
BC
100
AcDbEntity
  8
_U+5207_U+65AD_U+30D1_U+30B9
 62
1
420
16711680
370
9
 48
1.0
  6
ByLayer
100
AcDbSpline
 70
8
 71
3
 72
20
 73
16
 74
0
 40
0.0
 40
0.0
 40
0.0
 40
0.0
 40
1.0
 40
1.0
 40
1.0
 40
2.0
 40
2.0
 40
2.0
 40
3.0
 40
3.0
 40
3.0
 40
4.0
 40
4.0
 40
4.0
 40
5.0
 40
5.0
 40
5.0
 40
5.0
 10
-36.1338359200602071
 20
30.3165377101371796
 30
0.0
 10
-36.1338359200602071
 20
30.9240940254167995
 30
0.0
 10
-35.6413142131534428
 20
31.4166157323299906
 30
0.0
 10
-35.0337578978738193
 20
31.4166157323299906
 30
0.0
 10
-34.426201582596768
 20
31.4166157323299906
 30
0.0
 10
-33.9336798756874316
 20
30.9240940254167995
 30
0.0
 10
-33.9336798756874316
 20
30.3165377101371796
 30
0.0
 10
-33.9336798756874316
 20
29.7089813948665409
 30
0.0
 10
-34.426201582596768
 20
29.2164596879559291
 30
0.0
 10
-35.0337578978738193
 20
29.2164596879559291
 30
0.0
 10
-35.6413142131534428
 20
29.2164596879559291
 30
0.0
 10
-36.1338359200602071
 20
29.7089813948665409
 30
0.0
 10
-36.1338359200602071
 20
30.3165377101371796
 30
0.0
 10
-36.1338359200602071
 20
30.3165377101371796
 30
0.0
 10
-36.1338359200602071
 20
30.3165377101371796
 30
0.0
 10
-36.1338359200602071
 20
30.3165377101371796
 30
0.0
  0
ENDBLK
  5
BD
100
AcDbEntity
  8
0
100
AcDbBlockEnd
  0
BLOCK
  5
BE
100
AcDbEntity
  8
0
100
AcDbBlockBegin
  2
block 2
 70
0
 10
0.0
 20
0.0
 30
0.0
  3
block 2
  1

  0
SPLINE
  5
BF
100
AcDbEntity
  8
_U+5F6B_U+523B_U+30D1_U+30B9
 62
256
370
0
 48
1.0
  6
ByLayer
100
AcDbSpline
 70
8
 71
3
 72
35
 73
31
 74
0
 40
0.0
 40
0.0
 40
0.0
 40
0.0
 40
1.0
 40
1.0
 40
1.0
 40
2.0
 40
2.0
 40
2.0
 40
3.0
 40
3.0
 40
3.0
 40
4.0
 40
4.0
 40
4.0
 40
5.0
 40
5.0
 40
5.0
 40
6.0
 40
6.0
 40
6.0
 40
7.0
 40
7.0
 40
7.0
 40
8.0
 40
8.0
 40
8.0
 40
9.0
 40
9.0
 40
9.0
 40
10.0
 40
10.0
 40
10.0
 40
10.0
 10
-117.0762484596428976
 20
41.0398138630908207
 30
0.0
 10
-117.3191147480113017
 20
39.7311914256231873
 30
0.0
 10
-118.438102182618195
 20
39.0904493454867321
 30
0.0
 10
-119.557019932632997
 20
39.0818316842842322
 30
0.0
 10
-120.8462932817387951
 20
39.0625445377821165
 30
0.0
 10
-122.1484892512827969
 20
39.9143999605613118
 30
0.0
 10
-122.1484892512827969
 20
41.635191273875499
 30
0.0
 10
-122.1484892512827969
 20
43.3477443198779184
 30
0.0
 10
-120.8634589195524001
 20
44.188705718117248
 30
0.0
 10
-119.5737287492335952
 20
44.188705718117248
 30
0.0
 10
-118.4461933380148935
 20
44.188705718117248
 30
0.0
 10
-117.3191147480113017
 20
43.5400273372306827
 30
0.0
 10
-117.0762484596428976
 20
42.2199766266857992
 30
0.0
 10
-117.0762484596428976
 20
42.2199766266857992
 30
0.0
 10
-117.9986479176603069
 20
42.2199766266857992
 30
0.0
 10
-117.9986479176603069
 20
42.2199766266857992
 30
0.0
 10
-118.2158005916035961
 20
43.008240987956782
 30
0.0
 10
-118.8865612454011966
 20
43.3923512248324172
 30
0.0
 10
-119.565188515355004
 20
43.3923512248324172
 30
0.0
 10
-120.3982136128454954
 20
43.3923512248324172
 30
0.0
 10
-121.2480172115278947
 20
42.8159579706020992
 30
0.0
 10
-121.2480172115278947
 20
41.635191273875499
 30
0.0
 10
-121.2480172115278947
 20
40.4462559944275384
 30
0.0
 10
-120.4063744528348963
 20
39.8698637635807671
 30
0.0
 10
-119.557019932632997
 20
39.8698637635807671
 30
0.0
 10
-118.8775631723016062
 20
39.8698637635807671
 30
0.0
 10
-118.2158005916035961
 20
40.2544297982882
 30
0.0
 10
-117.9986479176603069
 20
41.0398138630908207
 30
0.0
 10
-117.9986479176603069
 20
41.0398138630908207
 30
0.0
 10
-117.0762484596428976
 20
41.0398138630908207
 30
0.0
 10
-117.0762484596428976
 20
41.0398138630908207
 30
0.0
  0
HATCH
  5
C0
100
AcDbEntity
  8
_U+5F6B_U+523B_U+30D1_U+30B9
 62
7
420
16777215
370
-1
 48
1.0
  6
ByLayer
100
AcDbHatch
 10
0.0
 20
0.0
 30
0.0
210
0.0
220
0.0
230
1.0
  2
SOLID
 70
1
 71
0
 91
1
 92
1
 93
1
 72
4
 94
3
 73
0
 74
0
 95
35
 96
31
 40
0.0
 40
0.0
 40
0.0
 40
0.0
 40
1.0
 40
1.0
 40
1.0
 40
2.0
 40
2.0
 40
2.0
 40
3.0
 40
3.0
 40
3.0
 40
4.0
 40
4.0
 40
4.0
 40
5.0
 40
5.0
 40
5.0
 40
6.0
 40
6.0
 40
6.0
 40
7.0
 40
7.0
 40
7.0
 40
8.0
 40
8.0
 40
8.0
 40
9.0
 40
9.0
 40
9.0
 40
10.0
 40
10.0
 40
10.0
 40
10.0
 10
-117.0762484596428976
 20
41.0398138630908207
 10
-117.3191147480113017
 20
39.7311914256231873
 10
-118.438102182618195
 20
39.0904493454867321
 10
-119.557019932632997
 20
39.0818316842842322
 10
-120.8462932817387951
 20
39.0625445377821165
 10
-122.1484892512827969
 20
39.9143999605613118
 10
-122.1484892512827969
 20
41.635191273875499
 10
-122.1484892512827969
 20
43.3477443198779184
 10
-120.8634589195524001
 20
44.188705718117248
 10
-119.5737287492335952
 20
44.188705718117248
 10
-118.4461933380148935
 20
44.188705718117248
 10
-117.3191147480113017
 20
43.5400273372306827
 10
-117.0762484596428976
 20
42.2199766266857992
 10
-117.0762484596428976
 20
42.2199766266857992
 10
-117.9986479176603069
 20
42.2199766266857992
 10
-117.9986479176603069
 20
42.2199766266857992
 10
-118.2158005916035961
 20
43.008240987956782
 10
-118.8865612454011966
 20
43.3923512248324172
 10
-119.565188515355004
 20
43.3923512248324172
 10
-120.3982136128454954
 20
43.3923512248324172
 10
-121.2480172115278947
 20
42.8159579706020992
 10
-121.2480172115278947
 20
41.635191273875499
 10
-121.2480172115278947
 20
40.4462559944275384
 10
-120.4063744528348963
 20
39.8698637635807671
 10
-119.557019932632997
 20
39.8698637635807671
 10
-118.8775631723016062
 20
39.8698637635807671
 10
-118.2158005916035961
 20
40.2544297982882
 10
-117.9986479176603069
 20
41.0398138630908207
 10
-117.9986479176603069
 20
41.0398138630908207
 10
-117.0762484596428976
 20
41.0398138630908207
 10
-117.0762484596428976
 20
41.0398138630908207
 97
0
 75
0
 76
1
 98
0
1001
ACAD
1010
0.0
1020
0.0
1030
0
  0
SPLINE
  5
C1
100
AcDbEntity
  8
_U+5F6B_U+523B_U+30D1_U+30B9
 62
256
370
0
 48
1.0
  6
ByLayer
100
AcDbSpline
 70
8
 71
3
 72
17
 73
13
 74
0
 40
0.0
 40
0.0
 40
0.0
 40
0.0
 40
1.0
 40
1.0
 40
1.0
 40
2.0
 40
2.0
 40
2.0
 40
3.0
 40
3.0
 40
3.0
 40
4.0
 40
4.0
 40
4.0
 40
4.0
 10
-114.0225534999366062
 20
39.0625445377821165
 30
0.0
 10
-115.3556042582443979
 20
39.0625445377821165
 30
0.0
 10
-116.6787520617642997
 20
39.9247597365631606
 30
0.0
 10
-116.6787520617642997
 20
41.6268755792372076
 30
0.0
 10
-116.6787520617642997
 20
43.3372296892268665
 30
0.0
 10
-115.3422945011843979
 20
44.188705718117248
 30
0.0
 10
-113.9976761006143988
 20
44.188705718117248
 30
0.0
 10
-112.6606908591712966
 20
44.188705718117248
 30
0.0
 10
-111.3413292184824996
 20
43.3286120280230875
 30
0.0
 10
-111.3413292184824996
 20
41.6268755792372076
 30
0.0
 10
-111.3413292184824996
 20
39.9143999605613118
 30
0.0
 10
-112.6777802447191021
 20
39.0625445377821165
 30
0.0
 10
-114.0225534999366062
 20
39.0625445377821165
 30
0.0
  0
SPLINE
  5
C2
100
AcDbEntity
  8
_U+5F6B_U+523B_U+30D1_U+30B9
 62
256
370
0
 48
1.0
  6
ByLayer
100
AcDbSpline
 70
8
 71
3
 72
17
 73
13
 74
0
 40
0.0
 40
0.0
 40
0.0
 40
0.0
 40
1.0
 40
1.0
 40
1.0
 40
2.0
 40
2.0
 40
2.0
 40
3.0
 40
3.0
 40
3.0
 40
4.0
 40
4.0
 40
4.0
 40
4.0
 10
-114.0225534999366062
 20
39.8698637635807671
 30
0.0
 10
-113.1267735560391969
 20
39.8591245936900975
 30
0.0
 10
-112.2293986092600022
 20
40.4552530495207776
 30
0.0
 10
-112.2293986092600022
 20
41.6268755792372076
 30
0.0
 10
-112.2293986092600022
 20
42.7993962659191425
 30
0.0
 10
-113.117846185539193
 20
43.3923512248324172
 30
0.0
 10
-113.9976761006143988
 20
43.3923512248324172
 30
0.0
 10
-114.8942148322907997
 20
43.3923512248324172
 30
0.0
 10
-115.7822133300878988
 20
42.8075648486398634
 30
0.0
 10
-115.7822133300878988
 20
41.6268755792372076
 30
0.0
 10
-115.7822133300878988
 20
40.4634216322421167
 30
0.0
 10
-114.902840236226794
 20
39.8784039974586619
 30
0.0
 10
-114.0225534999366062
 20
39.8698637635807671
 30
0.0
  0
HATCH
  5
C3
100
AcDbEntity
  8
_U+5F6B_U+523B_U+30D1_U+30B9
 62
7
420
16777215
370
-1
 48
1.0
  6
ByLayer
100
AcDbHatch
 10
0.0
 20
0.0
 30
0.0
210
0.0
220
0.0
230
1.0
  2
SOLID
 70
1
 71
0
 91
2
 92
1
 93
1
 72
4
 94
3
 73
0
 74
0
 95
17
 96
13
 40
0.0
 40
0.0
 40
0.0
 40
0.0
 40
1.0
 40
1.0
 40
1.0
 40
2.0
 40
2.0
 40
2.0
 40
3.0
 40
3.0
 40
3.0
 40
4.0
 40
4.0
 40
4.0
 40
4.0
 10
-114.0225534999366062
 20
39.0625445377821165
 10
-115.3556042582443979
 20
39.0625445377821165
 10
-116.6787520617642997
 20
39.9247597365631606
 10
-116.6787520617642997
 20
41.6268755792372076
 10
-116.6787520617642997
 20
43.3372296892268665
 10
-115.3422945011843979
 20
44.188705718117248
 10
-113.9976761006143988
 20
44.188705718117248
 10
-112.6606908591712966
 20
44.188705718117248
 10
-111.3413292184824996
 20
43.3286120280230875
 10
-111.3413292184824996
 20
41.6268755792372076
 10
-111.3413292184824996
 20
39.9143999605613118
 10
-112.6777802447191021
 20
39.0625445377821165
 10
-114.0225534999366062
 20
39.0625445377821165
 97
0
 92
1
 93
1
 72
4
 94
3
 73
0
 74
0
 95
17
 96
13
 40
0.0
 40
0.0
 40
0.0
 40
0.0
 40
1.0
 40
1.0
 40
1.0
 40
2.0
 40
2.0
 40
2.0
 40
3.0
 40
3.0
 40
3.0
 40
4.0
 40
4.0
 40
4.0
 40
4.0
 10
-114.0225534999366062
 20
39.8698637635807671
 10
-113.1267735560391969
 20
39.8591245936900975
 10
-112.2293986092600022
 20
40.4552530495207776
 10
-112.2293986092600022
 20
41.6268755792372076
 10
-112.2293986092600022
 20
42.7993962659191425
 10
-113.117846185539193
 20
43.3923512248324172
 10
-113.9976761006143988
 20
43.3923512248324172
 10
-114.8942148322907997
 20
43.3923512248324172
 10
-115.7822133300878988
 20
42.8075648486398634
 10
-115.7822133300878988
 20
41.6268755792372076
 10
-115.7822133300878988
 20
40.4634216322421167
 10
-114.902840236226794
 20
39.8784039974586619
 10
-114.0225534999366062
 20
39.8698637635807671
 97
0
 75
0
 76
1
 98
0
1001
ACAD
1010
0.0
1020
0.0
1030
0
  0
SPLINE
  5
C4
100
AcDbEntity
  8
_U+5F6B_U+523B_U+30D1_U+30B9
 62
256
370
0
 48
1.0
  6
ByLayer
100
AcDbSpline
 70
8
 71
3
 72
29
 73
25
 74
0
 40
0.0
 40
0.0
 40
0.0
 40
0.0
 40
1.0
 40
1.0
 40
1.0
 40
2.0
 40
2.0
 40
2.0
 40
3.0
 40
3.0
 40
3.0
 40
4.0
 40
4.0
 40
4.0
 40
5.0
 40
5.0
 40
5.0
 40
6.0
 40
6.0
 40
6.0
 40
7.0
 40
7.0
 40
7.0
 40
8.0
 40
8.0
 40
8.0
 40
8.0
 10
-109.7619368933304003
 20
44.0969078823370069
 30
0.0
 10
-109.7619368933304003
 20
44.0969078823370069
 30
0.0
 10
-109.7619368933304003
 20
43.4951891736846434
 30
0.0
 10
-109.7619368933304003
 20
43.4951891736846434
 30
0.0
 10
-109.2876171042063049
 20
44.1608009104113535
 30
0.0
 10
-108.5618830501026935
 20
44.3172428193125896
 30
0.0
 10
-107.7721165987397001
 20
44.1356989718498625
 30
0.0
 10
-107.7721165987397001
 20
44.1356989718498625
 30
0.0
 10
-107.7721165987397001
 20
43.3477443198779184
 30
0.0
 10
-107.7721165987397001
 20
43.3477443198779184
 30
0.0
 10
-108.7923532238389015
 20
43.6489830680919582
 30
0.0
 10
-109.7619368933304003
 20
42.9076009517337766
 30
0.0
 10
-109.7619368933304003
 20
41.8380586064716269
 30
0.0
 10
-109.7619368933304003
 20
41.8380586064716269
 30
0.0
 10
-109.7619368933304003
 20
39.1547914520422182
 30
0.0
 10
-109.7619368933304003
 20
39.1547914520422182
 30
0.0
 10
-109.7619368933304003
 20
39.1547914520422182
 30
0.0
 10
-110.6499276483963001
 20
39.1547914520422182
 30
0.0
 10
-110.6499276483963001
 20
39.1547914520422182
 30
0.0
 10
-110.6499276483963001
 20
39.1547914520422182
 30
0.0
 10
-110.6499276483963001
 20
44.0969078823370069
 30
0.0
 10
-110.6499276483963001
 20
44.0969078823370069
 30
0.0
 10
-110.6499276483963001
 20
44.0969078823370069
 30
0.0
 10
-109.7619368933304003
 20
44.0969078823370069
 30
0.0
 10
-109.7619368933304003
 20
44.0969078823370069
 30
0.0
  0
HATCH
  5
C5
100
AcDbEntity
  8
_U+5F6B_U+523B_U+30D1_U+30B9
 62
7
420
16777215
370
-1
 48
1.0
  6
ByLayer
100
AcDbHatch
 10
0.0
 20
0.0
 30
0.0
210
0.0
220
0.0
230
1.0
  2
SOLID
 70
1
 71
0
 91
1
 92
1
 93
1
 72
4
 94
3
 73
0
 74
0
 95
29
 96
25
 40
0.0
 40
0.0
 40
0.0
 40
0.0
 40
1.0
 40
1.0
 40
1.0
 40
2.0
 40
2.0
 40
2.0
 40
3.0
 40
3.0
 40
3.0
 40
4.0
 40
4.0
 40
4.0
 40
5.0
 40
5.0
 40
5.0
 40
6.0
 40
6.0
 40
6.0
 40
7.0
 40
7.0
 40
7.0
 40
8.0
 40
8.0
 40
8.0
 40
8.0
 10
-109.7619368933304003
 20
44.0969078823370069
 10
-109.7619368933304003
 20
44.0969078823370069
 10
-109.7619368933304003
 20
43.4951891736846434
 10
-109.7619368933304003
 20
43.4951891736846434
 10
-109.2876171042063049
 20
44.1608009104113535
 10
-108.5618830501026935
 20
44.3172428193125896
 10
-107.7721165987397001
 20
44.1356989718498625
 10
-107.7721165987397001
 20
44.1356989718498625
 10
-107.7721165987397001
 20
43.3477443198779184
 10
-107.7721165987397001
 20
43.3477443198779184
 10
-108.7923532238389015
 20
43.6489830680919582
 10
-109.7619368933304003
 20
42.9076009517337766
 10
-109.7619368933304003
 20
41.8380586064716269
 10
-109.7619368933304003
 20
41.8380586064716269
 10
-109.7619368933304003
 20
39.1547914520422182
 10
-109.7619368933304003
 20
39.1547914520422182
 10
-109.7619368933304003
 20
39.1547914520422182
 10
-110.6499276483963001
 20
39.1547914520422182
 10
-110.6499276483963001
 20
39.1547914520422182
 10
-110.6499276483963001
 20
39.1547914520422182
 10
-110.6499276483963001
 20
44.0969078823370069
 10
-110.6499276483963001
 20
44.0969078823370069
 10
-110.6499276483963001
 20
44.0969078823370069
 10
-109.7619368933304003
 20
44.0969078823370069
 10
-109.7619368933304003
 20
44.0969078823370069
 97
0
 75
0
 76
1
 98
0
1001
ACAD
1010
0.0
1020
0.0
1030
0
  0
SPLINE
  5
C6
100
AcDbEntity
  8
_U+5F6B_U+523B_U+30D1_U+30B9
 62
256
370
0
 48
1.0
  6
ByLayer
100
AcDbSpline
 70
8
 71
3
 72
41
 73
37
 74
0
 40
0.0
 40
0.0
 40
0.0
 40
0.0
 40
1.0
 40
1.0
 40
1.0
 40
2.0
 40
2.0
 40
2.0
 40
3.0
 40
3.0
 40
3.0
 40
4.0
 40
4.0
 40
4.0
 40
5.0
 40
5.0
 40
5.0
 40
6.0
 40
6.0
 40
6.0
 40
7.0
 40
7.0
 40
7.0
 40
8.0
 40
8.0
 40
8.0
 40
9.0
 40
9.0
 40
9.0
 40
10.0
 40
10.0
 40
10.0
 40
11.0
 40
11.0
 40
11.0
 40
12.0
 40
12.0
 40
12.0
 40
12.0
 10
-106.2820122556691018
 20
44.1054569003451391
 30
0.0
 10
-106.2820122556691018
 20
44.1054569003451391
 30
0.0
 10
-106.2820122556691018
 20
43.4951891736846434
 30
0.0
 10
-106.2820122556691018
 20
43.4951891736846434
 30
0.0
 10
-105.9184677395296035
 20
44.0245520477074379
 30
0.0
 10
-105.3892583614050977
 20
44.1801577415051625
 30
0.0
 10
-104.7617499697542058
 20
44.1801577415051625
 30
0.0
 10
-103.2540309103884937
 20
44.1801577415051625
 30
0.0
 10
-102.6136682241411933
 20
43.2387111616920379
 30
0.0
 10
-102.6136682241411933
 20
41.8193831358321404
 30
0.0
 10
-102.6136682241411933
 20
41.8193831358321404
 30
0.0
 10
-102.6136682241411933
 20
39.1547914520422182
 30
0.0
 10
-102.6136682241411933
 20
39.1547914520422182
 30
0.0
 10
-102.6136682241411933
 20
39.1547914520422182
 30
0.0
 10
-103.502115800419503
 20
39.1547914520422182
 30
0.0
 10
-103.502115800419503
 20
39.1547914520422182
 30
0.0
 10
-103.502115800419503
 20
39.1547914520422182
 30
0.0
 10
-103.502115800419503
 20
41.8081948874596776
 30
0.0
 10
-103.502115800419503
 20
41.8081948874596776
 30
0.0
 10
-103.502115800419503
 20
42.734597338148312
 30
0.0
 10
-103.7407468141447993
 20
43.3668002071423118
 30
0.0
 10
-104.7913891495255996
 20
43.3841893614610825
 30
0.0
 10
-105.7518983366003056
 20
43.4028648320986434
 30
0.0
 10
-106.2820122556691018
 20
42.7159218675081718
 30
0.0
 10
-106.2820122556691018
 20
41.8468311223233371
 30
0.0
 10
-106.2820122556691018
 20
41.8468311223233371
 30
0.0
 10
-106.2820122556691018
 20
39.1547914520422182
 30
0.0
 10
-106.2820122556691018
 20
39.1547914520422182
 30
0.0
 10
-106.2820122556691018
 20
39.1547914520422182
 30
0.0
 10
-107.1828623758732988
 20
39.1547914520422182
 30
0.0
 10
-107.1828623758732988
 20
39.1547914520422182
 30
0.0
 10
-107.1828623758732988
 20
39.1547914520422182
 30
0.0
 10
-107.1828623758732988
 20
44.1054569003451391
 30
0.0
 10
-107.1828623758732988
 20
44.1054569003451391
 30
0.0
 10
-107.1828623758732988
 20
44.1054569003451391
 30
0.0
 10
-106.2820122556691018
 20
44.1054569003451391
 30
0.0
 10
-106.2820122556691018
 20
44.1054569003451391
 30
0.0
  0
HATCH
  5
C7
100
AcDbEntity
  8
_U+5F6B_U+523B_U+30D1_U+30B9
 62
7
420
16777215
370
-1
 48
1.0
  6
ByLayer
100
AcDbHatch
 10
0.0
 20
0.0
 30
0.0
210
0.0
220
0.0
230
1.0
  2
SOLID
 70
1
 71
0
 91
1
 92
1
 93
1
 72
4
 94
3
 73
0
 74
0
 95
41
 96
37
 40
0.0
 40
0.0
 40
0.0
 40
0.0
 40
1.0
 40
1.0
 40
1.0
 40
2.0
 40
2.0
 40
2.0
 40
3.0
 40
3.0
 40
3.0
 40
4.0
 40
4.0
 40
4.0
 40
5.0
 40
5.0
 40
5.0
 40
6.0
 40
6.0
 40
6.0
 40
7.0
 40
7.0
 40
7.0
 40
8.0
 40
8.0
 40
8.0
 40
9.0
 40
9.0
 40
9.0
 40
10.0
 40
10.0
 40
10.0
 40
11.0
 40
11.0
 40
11.0
 40
12.0
 40
12.0
 40
12.0
 40
12.0
 10
-106.2820122556691018
 20
44.1054569003451391
 10
-106.2820122556691018
 20
44.1054569003451391
 10
-106.2820122556691018
 20
43.4951891736846434
 10
-106.2820122556691018
 20
43.4951891736846434
 10
-105.9184677395296035
 20
44.0245520477074379
 10
-105.3892583614050977
 20
44.1801577415051625
 10
-104.7617499697542058
 20
44.1801577415051625
 10
-103.2540309103884937
 20
44.1801577415051625
 10
-102.6136682241411933
 20
43.2387111616920379
 10
-102.6136682241411933
 20
41.8193831358321404
 10
-102.6136682241411933
 20
41.8193831358321404
 10
-102.6136682241411933
 20
39.1547914520422182
 10
-102.6136682241411933
 20
39.1547914520422182
 10
-102.6136682241411933
 20
39.1547914520422182
 10
-103.502115800419503
 20
39.1547914520422182
 10
-103.502115800419503
 20
39.1547914520422182
 10
-103.502115800419503
 20
39.1547914520422182
 10
-103.502115800419503
 20
41.8081948874596776
 10
-103.502115800419503
 20
41.8081948874596776
 10
-103.502115800419503
 20
42.734597338148312
 10
-103.7407468141447993
 20
43.3668002071423118
 10
-104.7913891495255996
 20
43.3841893614610825
 10
-105.7518983366003056
 20
43.4028648320986434
 10
-106.2820122556691018
 20
42.7159218675081718
 10
-106.2820122556691018
 20
41.8468311223233371
 10
-106.2820122556691018
 20
41.8468311223233371
 10
-106.2820122556691018
 20
39.1547914520422182
 10
-106.2820122556691018
 20
39.1547914520422182
 10
-106.2820122556691018
 20
39.1547914520422182
 10
-107.1828623758732988
 20
39.1547914520422182
 10
-107.1828623758732988
 20
39.1547914520422182
 10
-107.1828623758732988
 20
39.1547914520422182
 10
-107.1828623758732988
 20
44.1054569003451391
 10
-107.1828623758732988
 20
44.1054569003451391
 10
-107.1828623758732988
 20
44.1054569003451391
 10
-106.2820122556691018
 20
44.1054569003451391
 10
-106.2820122556691018
 20
44.1054569003451391
 97
0
 75
0
 76
1
 98
0
1001
ACAD
1010
0.0
1020
0.0
1030
0
  0
SPLINE
  5
C8
100
AcDbEntity
  8
_U+5F6B_U+523B_U+30D1_U+30B9
 62
256
370
0
 48
1.0
  6
ByLayer
100
AcDbSpline
 70
8
 71
3
 72
32
 73
28
 74
0
 40
0.0
 40
0.0
 40
0.0
 40
0.0
 40
1.0
 40
1.0
 40
1.0
 40
2.0
 40
2.0
 40
2.0
 40
3.0
 40
3.0
 40
3.0
 40
4.0
 40
4.0
 40
4.0
 40
5.0
 40
5.0
 40
5.0
 40
6.0
 40
6.0
 40
6.0
 40
7.0
 40
7.0
 40
7.0
 40
8.0
 40
8.0
 40
8.0
 40
9.0
 40
9.0
 40
9.0
 40
9.0
 10
-96.934931457935491
 20
41.4156848092724417
 30
0.0
 10
-96.934931457935491
 20
41.4156848092724417
 30
0.0
 10
-101.1278068984455984
 20
41.4156848092724417
 30
0.0
 10
-101.1278068984455984
 20
41.4156848092724417
 30
0.0
 10
-101.1278068984455984
 20
40.4462559944275384
 30
0.0
 10
-100.2054074404288997
 20
39.8591245936900975
 30
0.0
 10
-99.4625154912435363
 20
39.8591245936900975
 30
0.0
 10
-98.8479361040126605
 20
39.8591245936900975
 30
0.0
 10
-98.279704713154004
 20
40.1260398090085104
 30
0.0
 10
-97.9851928536341603
 20
40.6831526360873568
 30
0.0
 10
-97.9851928536341603
 20
40.6831526360873568
 30
0.0
 10
-97.0628723687330677
 20
40.6831526360873568
 30
0.0
 10
-97.0628723687330677
 20
40.6831526360873568
 30
0.0
 10
-97.4388904268309659
 20
39.6028711209358306
 30
0.0
 10
-98.4547446653691765
 20
39.0625445377821165
 30
0.0
 10
-99.4711331524460434
 20
39.0625445377821165
 30
0.0
 10
-100.7432408637371992
 20
39.0625445377821165
 30
0.0
 10
-102.0247947086030962
 20
39.9247597365631606
 30
0.0
 10
-102.0247947086030962
 20
41.6268755792372076
 30
0.0
 10
-102.0247947086030962
 20
43.3286120280230875
 30
0.0
 10
-100.7607781527089941
 20
44.1801577415051625
 30
0.0
 10
-99.4538900873081246
 20
44.1801577415051625
 30
0.0
 10
-98.2242822343655462
 20
44.1801577415051625
 30
0.0
 10
-97.0203709402181431
 20
43.4028648320986434
 30
0.0
 10
-96.9173925961975442
 20
41.8468311223233371
 30
0.0
 10
-96.9006776096318703
 20
41.6998430897300381
 30
0.0
 10
-96.9092255862426839
 20
41.5433934380958902
 30
0.0
 10
-96.934931457935491
 20
41.4156848092724417
 30
0.0
  0
SPLINE
  5
C9
100
AcDbEntity
  8
_U+5F6B_U+523B_U+30D1_U+30B9
 62
256
370
0
 48
1.0
  6
ByLayer
100
AcDbSpline
 70
8
 71
3
 72
14
 73
10
 74
0
 40
0.0
 40
0.0
 40
0.0
 40
0.0
 40
1.0
 40
1.0
 40
1.0
 40
2.0
 40
2.0
 40
2.0
 40
3.0
 40
3.0
 40
3.0
 40
3.0
 10
-97.8611867967068605
 20
42.1562384532606487
 30
0.0
 10
-98.0324482954926566
 20
43.0464281443373622
 30
0.0
 10
-98.7405598905689459
 20
43.3923512248324172
 30
0.0
 10
-99.4538900873081246
 20
43.3923512248324172
 30
0.0
 10
-100.1758441975304947
 20
43.3923512248324172
 30
0.0
 10
-100.9054278801073963
 20
43.0361380529259065
 30
0.0
 10
-101.0938550167071952
 20
42.1562384532606487
 30
0.0
 10
-101.0938550167071952
 20
42.1562384532606487
 30
0.0
 10
-97.8611867967068605
 20
42.1562384532606487
 30
0.0
 10
-97.8611867967068605
 20
42.1562384532606487
 30
0.0
  0
HATCH
  5
CA
100
AcDbEntity
  8
_U+5F6B_U+523B_U+30D1_U+30B9
 62
7
420
16777215
370
-1
 48
1.0
  6
ByLayer
100
AcDbHatch
 10
0.0
 20
0.0
 30
0.0
210
0.0
220
0.0
230
1.0
  2
SOLID
 70
1
 71
0
 91
2
 92
1
 93
1
 72
4
 94
3
 73
0
 74
0
 95
32
 96
28
 40
0.0
 40
0.0
 40
0.0
 40
0.0
 40
1.0
 40
1.0
 40
1.0
 40
2.0
 40
2.0
 40
2.0
 40
3.0
 40
3.0
 40
3.0
 40
4.0
 40
4.0
 40
4.0
 40
5.0
 40
5.0
 40
5.0
 40
6.0
 40
6.0
 40
6.0
 40
7.0
 40
7.0
 40
7.0
 40
8.0
 40
8.0
 40
8.0
 40
9.0
 40
9.0
 40
9.0
 40
9.0
 10
-96.934931457935491
 20
41.4156848092724417
 10
-96.934931457935491
 20
41.4156848092724417
 10
-101.1278068984455984
 20
41.4156848092724417
 10
-101.1278068984455984
 20
41.4156848092724417
 10
-101.1278068984455984
 20
40.4462559944275384
 10
-100.2054074404288997
 20
39.8591245936900975
 10
-99.4625154912435363
 20
39.8591245936900975
 10
-98.8479361040126605
 20
39.8591245936900975
 10
-98.279704713154004
 20
40.1260398090085104
 10
-97.9851928536341603
 20
40.6831526360873568
 10
-97.9851928536341603
 20
40.6831526360873568
 10
-97.0628723687330677
 20
40.6831526360873568
 10
-97.0628723687330677
 20
40.6831526360873568
 10
-97.4388904268309659
 20
39.6028711209358306
 10
-98.4547446653691765
 20
39.0625445377821165
 10
-99.4711331524460434
 20
39.0625445377821165
 10
-100.7432408637371992
 20
39.0625445377821165
 10
-102.0247947086030962
 20
39.9247597365631606
 10
-102.0247947086030962
 20
41.6268755792372076
 10
-102.0247947086030962
 20
43.3286120280230875
 10
-100.7607781527089941
 20
44.1801577415051625
 10
-99.4538900873081246
 20
44.1801577415051625
 10
-98.2242822343655462
 20
44.1801577415051625
 10
-97.0203709402181431
 20
43.4028648320986434
 10
-96.9173925961975442
 20
41.8468311223233371
 10
-96.9006776096318703
 20
41.6998430897300381
 10
-96.9092255862426839
 20
41.5433934380958902
 10
-96.934931457935491
 20
41.4156848092724417
 97
0
 92
1
 93
1
 72
4
 94
3
 73
0
 74
0
 95
14
 96
10
 40
0.0
 40
0.0
 40
0.0
 40
0.0
 40
1.0
 40
1.0
 40
1.0
 40
2.0
 40
2.0
 40
2.0
 40
3.0
 40
3.0
 40
3.0
 40
3.0
 10
-97.8611867967068605
 20
42.1562384532606487
 10
-98.0324482954926566
 20
43.0464281443373622
 10
-98.7405598905689459
 20
43.3923512248324172
 10
-99.4538900873081246
 20
43.3923512248324172
 10
-100.1758441975304947
 20
43.3923512248324172
 10
-100.9054278801073963
 20
43.0361380529259065
 10
-101.0938550167071952
 20
42.1562384532606487
 10
-101.0938550167071952
 20
42.1562384532606487
 10
-97.8611867967068605
 20
42.1562384532606487
 10
-97.8611867967068605
 20
42.1562384532606487
 97
0
 75
0
 76
1
 98
0
1001
ACAD
1010
0.0
1020
0.0
1030
0
  0
ENDBLK
  5
CB
100
AcDbEntity
  8
0
100
AcDbBlockEnd
  0
BLOCK
  5
CC
100
AcDbEntity
  8
0
100
AcDbBlockBegin
  2
block 10
 70
0
 10
0.0
 20
0.0
 30
0.0
  3
block 10
  1

  0
INSERT
  5
CD
100
AcDbEntity
  8
_U+5207_U+65AD_U+30D1_U+30B9
 62
256
370
-1
 48
1.0
  6
ByLayer
100
AcDbBlockReference
  2
block 11
 10
0.0
 20
0.0
 30
0.0
  0
INSERT
  5
CE
100
AcDbEntity
  8
_U+5207_U+65AD_U+30D1_U+30B9
 62
256
370
-1
 48
1.0
  6
ByLayer
100
AcDbBlockReference
  2
block 12
 10
0.0
 20
0.0
 30
0.0
  0
INSERT
  5
CF
100
AcDbEntity
  8
_U+5207_U+65AD_U+30D1_U+30B9
 62
256
370
-1
 48
1.0
  6
ByLayer
100
AcDbBlockReference
  2
block 13
 10
0.0
 20
0.0
 30
0.0
  0
INSERT
  5
D0
100
AcDbEntity
  8
_U+5207_U+65AD_U+30D1_U+30B9
 62
256
370
-1
 48
1.0
  6
ByLayer
100
AcDbBlockReference
  2
block 14
 10
0.0
 20
0.0
 30
0.0
  0
INSERT
  5
D1
100
AcDbEntity
  8
_U+5207_U+65AD_U+30D1_U+30B9
 62
256
370
-1
 48
1.0
  6
ByLayer
100
AcDbBlockReference
  2
block 15
 10
0.0
 20
0.0
 30
0.0
  0
INSERT
  5
D2
100
AcDbEntity
  8
_U+5207_U+65AD_U+30D1_U+30B9
 62
256
370
-1
 48
1.0
  6
ByLayer
100
AcDbBlockReference
  2
block 16
 10
0.0
 20
0.0
 30
0.0
  0
INSERT
  5
D3
100
AcDbEntity
  8
_U+5207_U+65AD_U+30D1_U+30B9
 62
256
370
-1
 48
1.0
  6
ByLayer
100
AcDbBlockReference
  2
block 17
 10
0.0
 20
0.0
 30
0.0
  0
INSERT
  5
D4
100
AcDbEntity
  8
_U+5207_U+65AD_U+30D1_U+30B9
 62
256
370
-1
 48
1.0
  6
ByLayer
100
AcDbBlockReference
  2
block 18
 10
0.0
 20
0.0
 30
0.0
  0
INSERT
  5
D5
100
AcDbEntity
  8
_U+5207_U+65AD_U+30D1_U+30B9
 62
256
370
-1
 48
1.0
  6
ByLayer
100
AcDbBlockReference
  2
block 19
 10
0.0
 20
0.0
 30
0.0
  0
INSERT
  5
D6
100
AcDbEntity
  8
_U+5207_U+65AD_U+30D1_U+30B9
 62
256
370
-1
 48
1.0
  6
ByLayer
100
AcDbBlockReference
  2
block 20
 10
0.0
 20
0.0
 30
0.0
  0
INSERT
  5
D7
100
AcDbEntity
  8
_U+5207_U+65AD_U+30D1_U+30B9
 62
256
370
-1
 48
1.0
  6
ByLayer
100
AcDbBlockReference
  2
block 21
 10
0.0
 20
0.0
 30
0.0
  0
INSERT
  5
D8
100
AcDbEntity
  8
_U+5207_U+65AD_U+30D1_U+30B9
 62
256
370
-1
 48
1.0
  6
ByLayer
100
AcDbBlockReference
  2
block 22
 10
0.0
 20
0.0
 30
0.0
  0
INSERT
  5
D9
100
AcDbEntity
  8
_U+5207_U+65AD_U+30D1_U+30B9
 62
256
370
-1
 48
1.0
  6
ByLayer
100
AcDbBlockReference
  2
block 23
 10
0.0
 20
0.0
 30
0.0
  0
INSERT
  5
DA
100
AcDbEntity
  8
_U+5207_U+65AD_U+30D1_U+30B9
 62
256
370
-1
 48
1.0
  6
ByLayer
100
AcDbBlockReference
  2
block 24
 10
0.0
 20
0.0
 30
0.0
  0
INSERT
  5
DB
100
AcDbEntity
  8
_U+5207_U+65AD_U+30D1_U+30B9
 62
256
370
-1
 48
1.0
  6
ByLayer
100
AcDbBlockReference
  2
block 25
 10
0.0
 20
0.0
 30
0.0
  0
INSERT
  5
DC
100
AcDbEntity
  8
_U+5207_U+65AD_U+30D1_U+30B9
 62
256
370
-1
 48
1.0
  6
ByLayer
100
AcDbBlockReference
  2
block 26
 10
0.0
 20
0.0
 30
0.0
  0
INSERT
  5
DD
100
AcDbEntity
  8
_U+5207_U+65AD_U+30D1_U+30B9
 62
256
370
-1
 48
1.0
  6
ByLayer
100
AcDbBlockReference
  2
block 27
 10
0.0
 20
0.0
 30
0.0
  0
INSERT
  5
DE
100
AcDbEntity
  8
_U+5207_U+65AD_U+30D1_U+30B9
 62
256
370
-1
 48
1.0
  6
ByLayer
100
AcDbBlockReference
  2
block 28
 10
0.0
 20
0.0
 30
0.0
  0
INSERT
  5
DF
100
AcDbEntity
  8
_U+5207_U+65AD_U+30D1_U+30B9
 62
256
370
-1
 48
1.0
  6
ByLayer
100
AcDbBlockReference
  2
block 29
 10
0.0
 20
0.0
 30
0.0
  0
INSERT
  5
E0
100
AcDbEntity
  8
_U+5207_U+65AD_U+30D1_U+30B9
 62
256
370
-1
 48
1.0
  6
ByLayer
100
AcDbBlockReference
  2
block 30
 10
0.0
 20
0.0
 30
0.0
  0
INSERT
  5
E1
100
AcDbEntity
  8
_U+5207_U+65AD_U+30D1_U+30B9
 62
256
370
-1
 48
1.0
  6
ByLayer
100
AcDbBlockReference
  2
block 31
 10
0.0
 20
0.0
 30
0.0
  0
INSERT
  5
E2
100
AcDbEntity
  8
_U+5207_U+65AD_U+30D1_U+30B9
 62
256
370
-1
 48
1.0
  6
ByLayer
100
AcDbBlockReference
  2
block 32
 10
0.0
 20
0.0
 30
0.0
  0
INSERT
  5
E3
100
AcDbEntity
  8
_U+5207_U+65AD_U+30D1_U+30B9
 62
256
370
-1
 48
1.0
  6
ByLayer
100
AcDbBlockReference
  2
block 33
 10
0.0
 20
0.0
 30
0.0
  0
INSERT
  5
E4
100
AcDbEntity
  8
_U+5207_U+65AD_U+30D1_U+30B9
 62
256
370
-1
 48
1.0
  6
ByLayer
100
AcDbBlockReference
  2
block 34
 10
0.0
 20
0.0
 30
0.0
  0
INSERT
  5
E5
100
AcDbEntity
  8
_U+5207_U+65AD_U+30D1_U+30B9
 62
256
370
-1
 48
1.0
  6
ByLayer
100
AcDbBlockReference
  2
block 35
 10
0.0
 20
0.0
 30
0.0
  0
INSERT
  5
E6
100
AcDbEntity
  8
_U+5207_U+65AD_U+30D1_U+30B9
 62
256
370
-1
 48
1.0
  6
ByLayer
100
AcDbBlockReference
  2
block 36
 10
0.0
 20
0.0
 30
0.0
  0
INSERT
  5
E7
100
AcDbEntity
  8
_U+5207_U+65AD_U+30D1_U+30B9
 62
256
370
-1
 48
1.0
  6
ByLayer
100
AcDbBlockReference
  2
block 37
 10
0.0
 20
0.0
 30
0.0
  0
ENDBLK
  5
E8
100
AcDbEntity
  8
0
100
AcDbBlockEnd
  0
BLOCK
  5
E9
100
AcDbEntity
  8
0
100
AcDbBlockBegin
  2
block 4
 70
0
 10
0.0
 20
0.0
 30
0.0
  3
block 4
  1

  0
SPLINE
  5
EA
100
AcDbEntity
  8
_U+5207_U+65AD_U+30D1_U+30B9
 62
1
420
16711680
370
9
 48
1.0
  6
ByLayer
100
AcDbSpline
 70
8
 71
3
 72
128
 73
124
 74
0
 40
0.0
 40
0.0
 40
0.0
 40
0.0
 40
1.0
 40
1.0
 40
1.0
 40
2.0
 40
2.0
 40
2.0
 40
3.0
 40
3.0
 40
3.0
 40
4.0
 40
4.0
 40
4.0
 40
5.0
 40
5.0
 40
5.0
 40
6.0
 40
6.0
 40
6.0
 40
7.0
 40
7.0
 40
7.0
 40
8.0
 40
8.0
 40
8.0
 40
9.0
 40
9.0
 40
9.0
 40
10.0
 40
10.0
 40
10.0
 40
11.0
 40
11.0
 40
11.0
 40
12.0
 40
12.0
 40
12.0
 40
13.0
 40
13.0
 40
13.0
 40
14.0
 40
14.0
 40
14.0
 40
15.0
 40
15.0
 40
15.0
 40
16.0
 40
16.0
 40
16.0
 40
17.0
 40
17.0
 40
17.0
 40
18.0
 40
18.0
 40
18.0
 40
19.0
 40
19.0
 40
19.0
 40
20.0
 40
20.0
 40
20.0
 40
21.0
 40
21.0
 40
21.0
 40
22.0
 40
22.0
 40
22.0
 40
23.0
 40
23.0
 40
23.0
 40
24.0
 40
24.0
 40
24.0
 40
25.0
 40
25.0
 40
25.0
 40
26.0
 40
26.0
 40
26.0
 40
27.0
 40
27.0
 40
27.0
 40
28.0
 40
28.0
 40
28.0
 40
29.0
 40
29.0
 40
29.0
 40
30.0
 40
30.0
 40
30.0
 40
31.0
 40
31.0
 40
31.0
 40
32.0
 40
32.0
 40
32.0
 40
33.0
 40
33.0
 40
33.0
 40
34.0
 40
34.0
 40
34.0
 40
35.0
 40
35.0
 40
35.0
 40
36.0
 40
36.0
 40
36.0
 40
37.0
 40
37.0
 40
37.0
 40
38.0
 40
38.0
 40
38.0
 40
39.0
 40
39.0
 40
39.0
 40
40.0
 40
40.0
 40
40.0
 40
41.0
 40
41.0
 40
41.0
 40
41.0
 10
-87.4439346644208371
 20
36.4202089037465484
 30
0.0
 10
-87.5377095045542148
 20
36.5139837438786472
 30
0.0
 10
-87.6648954815695021
 20
36.5666659004995225
 30
0.0
 10
-87.797513132297567
 20
36.5666659004995225
 30
0.0
 10
-87.797513132297567
 20
36.5666659004995225
 30
0.0
 10
-123.8000665856674942
 20
36.5666659004995225
 30
0.0
 10
-123.8000665856674942
 20
36.5666659004995225
 30
0.0
 10
-123.8000665856674942
 20
36.5666659004995225
 30
0.0
 10
-125.8002084441872057
 20
36.5666659004995225
 30
0.0
 10
-125.8002084441872057
 20
36.5666659004995225
 30
0.0
 10
-125.8002084441872057
 20
36.5666659004995225
 30
0.0
 10
-142.8014142416128038
 20
36.5666659004995225
 30
0.0
 10
-142.8014142416128038
 20
36.5666659004995225
 30
0.0
 10
-143.077576203102609
 20
36.5666659004995225
 30
0.0
 10
-143.3014497062428063
 20
36.7905394036458375
 30
0.0
 10
-143.3014497062428063
 20
37.0667013651292265
 30
0.0
 10
-143.3014497062428063
 20
37.0667013651292265
 30
0.0
 10
-143.3014497062428063
 20
92.3206202067628112
 30
0.0
 10
-143.3014497062428063
 20
92.3206202067628112
 30
0.0
 10
-143.3014497062428063
 20
92.5967821682526164
 30
0.0
 10
-143.077576203102609
 20
92.8206556713950874
 30
0.0
 10
-142.8014142416128038
 20
92.8206556713950874
 30
0.0
 10
-142.8014142416128038
 20
92.8206556713950874
 30
0.0
 10
-125.8002084441872057
 20
92.8206556713950874
 30
0.0
 10
-125.8002084441872057
 20
92.8206556713950874
 30
0.0
 10
-125.8002084441872057
 20
92.8206556713950874
 30
0.0
 10
-123.8000665856674942
 20
92.8206556713950874
 30
0.0
 10
-123.8000665856674942
 20
92.8206556713950874
 30
0.0
 10
-123.8000665856674942
 20
92.8206556713950874
 30
0.0
 10
-105.7987898589799016
 20
92.8206556713950874
 30
0.0
 10
-105.7987898589799016
 20
92.8206556713950874
 30
0.0
 10
-105.522627897492697
 20
92.8206556713950874
 30
0.0
 10
-105.2987543943524997
 20
93.0445291745337073
 30
0.0
 10
-105.2987543943524997
 20
93.3206911360273637
 30
0.0
 10
-105.2987543943524997
 20
93.3206911360273637
 30
0.0
 10
-105.2987543943524997
 20
97.070957120752098
 30
0.0
 10
-105.2987543943524997
 20
97.070957120752098
 30
0.0
 10
-105.2987543943524997
 20
97.3471190822393453
 30
0.0
 10
-105.0748808912126009
 20
97.5709925853843743
 30
0.0
 10
-104.7987189297201951
 20
97.5709925853843743
 30
0.0
 10
-104.7987189297201951
 20
97.5709925853843743
 30
0.0
 10
-86.7974422030365531
 20
97.5709925853843743
 30
0.0
 10
-86.7974422030365531
 20
97.5709925853843743
 30
0.0
 10
-86.5212802415454547
 20
97.5709925853843743
 30
0.0
 10
-86.2974067384055559
 20
97.7948660885191572
 30
0.0
 10
-86.2974067384055559
 20
98.0710280500102414
 30
0.0
 10
-86.2974067384055559
 20
98.0710280500102414
 30
0.0
 10
-86.2974067384055559
 20
99.3211167115902924
 30
0.0
 10
-86.2974067384055559
 20
99.3211167115902924
 30
0.0
 10
-86.2974067384055559
 20
99.5972786730775255
 30
0.0
 10
-86.0735332352656428
 20
99.8211521762161453
 30
0.0
 10
-85.7973712737758518
 20
99.8211521762161453
 30
0.0
 10
-85.7973712737758518
 20
99.8211521762161453
 30
0.0
 10
-68.7961654763503248
 20
99.8211521762161453
 30
0.0
 10
-68.7961654763503248
 20
99.8211521762161453
 30
0.0
 10
-68.5200035148595674
 20
99.8211521762161453
 30
0.0
 10
-68.2961300117180485
 20
99.5972786730775255
 30
0.0
 10
-68.2961300117180485
 20
99.3211167115902924
 30
0.0
 10
-68.2961300117180485
 20
99.3211167115902924
 30
0.0
 10
-68.2961300117180485
 20
98.0710280500102414
 30
0.0
 10
-68.2961300117180485
 20
98.0710280500102414
 30
0.0
 10
-68.2961300117180485
 20
97.7948660885191572
 30
0.0
 10
-68.0722565085797555
 20
97.5709925853843743
 30
0.0
 10
-67.7960945470896235
 20
97.5709925853843743
 30
0.0
 10
-67.7960945470896235
 20
97.5709925853843743
 30
0.0
 10
-49.7948178204034022
 20
97.5709925853843743
 30
0.0
 10
-49.7948178204034022
 20
97.5709925853843743
 30
0.0
 10
-49.518655858912318
 20
97.5709925853843743
 30
0.0
 10
-49.2947823557714528
 20
97.3471190822393453
 30
0.0
 10
-49.2947823557714528
 20
97.070957120752098
 30
0.0
 10
-49.2947823557714528
 20
97.070957120752098
 30
0.0
 10
-49.2947823557714528
 20
95.5708507268629717
 30
0.0
 10
-49.2947823557714528
 20
95.5708507268629717
 30
0.0
 10
-49.2947823557749771
 20
95.2946887653680363
 30
0.0
 10
-49.0709088526325132
 20
95.0708152622332676
 30
0.0
 10
-48.7947468911427009
 20
95.0708152622332676
 30
0.0
 10
-48.7947468911427009
 20
95.0708152622332676
 30
0.0
 10
-30.7934701644577586
 20
95.0708152622332676
 30
0.0
 10
-30.7934701644577586
 20
95.0708152622332676
 30
0.0
 10
-30.5173082029692395
 20
95.0708152622332676
 30
0.0
 10
-30.293434699828051
 20
94.8469417590882244
 30
0.0
 10
-30.293434699828051
 20
94.5707797976009914
 30
0.0
 10
-30.293434699828051
 20
94.5707797976009914
 30
0.0
 10
-30.293434699828051
 20
93.3361859595043342
 30
0.0
 10
-30.293434699828051
 20
93.3361859595043342
 30
0.0
 10
-30.2650180848577186
 20
93.0680639386492459
 30
0.0
 10
-30.0591954495939504
 20
92.8529182787784748
 30
0.0
 10
-29.7925943597589296
 20
92.8126593546007257
 30
0.0
 10
-29.7925943597589296
 20
92.8126593546007257
 30
0.0
 10
-10.0411935068693694
 20
92.8126593546007257
 30
0.0
 10
-10.0411935068693694
 20
92.8126593546007257
 30
0.0
 10
-9.7650315453821328
 20
92.8126593546007257
 30
0.0
 10
-9.5411580422409443
 20
92.5887858514582547
 30
0.0
 10
-9.5411580422409443
 20
92.3126238899671563
 30
0.0
 10
-9.5411580422409443
 20
92.3126238899671563
 30
0.0
 10
-9.5411030689764083
 20
33.3518427307321517
 30
0.0
 10
-9.5411030689764083
 20
33.3518427307321517
 30
0.0
 10
-9.5844220920871912
 20
32.5385308556802997
 30
0.0
 10
-9.8300313849736263
 20
31.7488882206975482
 30
0.0
 10
-10.2556677574612891
 20
31.0544917760997699
 30
0.0
 10
-10.2556677574612891
 20
31.0544917760997699
 30
0.0
 10
-23.4929523808583589
 20
8.0146408701201413
 30
0.0
 10
-23.4929523808583589
 20
8.0146408701201413
 30
0.0
 10
-23.4976971365379086
 20
8.0074892831229363
 30
0.0
 10
-23.502547203201221
 20
8.000408126328713
 30
0.0
 10
-23.5075009957258914
 20
7.9933997140455908
 30
0.0
 10
-23.7855082778948486
 20
7.6000869863362146
 30
0.0
 10
-24.3297206724283797
 20
7.5066134540385958
 30
0.0
 10
-24.7230334001428886
 20
7.784620736210119
 30
0.0
 10
-24.7230334001428886
 20
7.784620736210119
 30
0.0
 10
-39.4727026024903793
 20
16.2741450618448589
 30
0.0
 10
-39.4727026024903793
 20
16.2741450618448589
 30
0.0
 10
-39.5639357238052796
 20
16.3058640558698507
 30
0.0
 10
-39.6576372761343592
 20
16.3299786785204795
 30
0.0
 10
-39.7528479875505525
 20
16.3462420557491299
 30
0.0
 10
-39.7528479875505525
 20
16.3462420557491299
 30
0.0
 10
-76.5467151781162727
 20
21.8156196939147513
 30
0.0
 10
-76.5467151781162727
 20
21.8156196939147513
 30
0.0
 10
-76.6759625420514084
 20
21.8287401954817213
 30
0.0
 10
-76.7981028374412489
 20
21.8810860363641808
 30
0.0
 10
-76.8967400033590565
 20
21.965630333303281
 30
0.0
 10
-76.8967400033590565
 20
21.965630333303281
 30
0.0
 10
-87.4474883070547833
 20
36.4248827201607028
 30
0.0
 10
-87.4439346644208371
 20
36.4202089037465484
 30
0.0
  0
ENDBLK
  5
EB
100
AcDbEntity
  8
0
100
AcDbBlockEnd
  0
BLOCK
  5
EC
100
AcDbEntity
  8
0
100
AcDbBlockBegin
  2
block 78
 70
0
 10
0.0
 20
0.0
 30
0.0
  3
block 78
  1

  0
SPLINE
  5
ED
100
AcDbEntity
  8
_U+5207_U+65AD_U+30D1_U+30B9
 62
1
420
16711680
370
9
 48
1.0
  6
ByLayer
100
AcDbSpline
 70
8
 71
3
 72
20
 73
16
 74
0
 40
0.0
 40
0.0
 40
0.0
 40
0.0
 40
1.0
 40
1.0
 40
1.0
 40
2.0
 40
2.0
 40
2.0
 40
3.0
 40
3.0
 40
3.0
 40
4.0
 40
4.0
 40
4.0
 40
5.0
 40
5.0
 40
5.0
 40
5.0
 10
-125.5737043408994964
 20
-60.2836360889191667
 30
0.0
 10
-125.5737039795315013
 20
-59.6760797736478992
 30
0.0
 10
-126.0662253934946051
 20
-59.1835577737926926
 30
0.0
 10
-126.6737817087716991
 20
-59.183557412425003
 30
0.0
 10
-127.2813380240462067
 20
-59.1835570510586066
 30
0.0
 10
-127.7738600239029978
 20
-59.6760784650207796
 30
0.0
 10
-127.7738603852710071
 20
-60.2836347802914077
 30
0.0
 10
-127.7738607466390022
 20
-60.8911910955703988
 30
0.0
 10
-127.2813393326738947
 20
-61.3837130954268915
 30
0.0
 10
-126.6737830174000976
 20
-61.3837134567939273
 30
0.0
 10
-126.0662267021230036
 20
-61.3837138181616098
 30
0.0
 10
-125.5737047022675057
 20
-60.8911924041987973
 30
0.0
 10
-125.5737043408994964
 20
-60.2836360889191667
 30
0.0
 10
-125.5737043408994964
 20
-60.2836360889191667
 30
0.0
 10
-125.5737043408994964
 20
-60.2836360889191667
 30
0.0
 10
-125.5737043408994964
 20
-60.2836360889191667
 30
0.0
  0
ENDBLK
  5
EE
100
AcDbEntity
  8
0
100
AcDbBlockEnd
  0
BLOCK
  5
EF
100
AcDbEntity
  8
0
100
AcDbBlockBegin
  2
block 71
 70
0
 10
0.0
 20
0.0
 30
0.0
  3
block 71
  1

  0
LWPOLYLINE
  5
F0
100
AcDbEntity
  8
_U+5207_U+65AD_U+30D1_U+30B9
 62
1
420
16711680
370
9
 48
1.0
  6
ByLayer
100
AcDbPolyline
 90
5
 70
0
 10
-122.5556540320570065
 20
-74.7099407233904742
 10
-115.6383493845405042
 20
-86.7099660998029265
 10
-127.6383747609604029
 20
-93.6272707473165298
 10
-134.5556794084743046
 20
-81.6272453708963752
 10
-122.5556540320570065
 20
-74.7099407233904742
  0
ENDBLK
  5
F1
100
AcDbEntity
  8
0
100
AcDbBlockEnd
  0
BLOCK
  5
F2
100
AcDbEntity
  8
0
100
AcDbBlockBegin
  2
block 17
 70
0
 10
0.0
 20
0.0
 30
0.0
  3
block 17
  1

  0
LWPOLYLINE
  5
F3
100
AcDbEntity
  8
_U+5207_U+65AD_U+30D1_U+30B9
 62
1
420
16711680
370
9
 48
1.0
  6
ByLayer
100
AcDbPolyline
 90
5
 70
0
 10
8.6813201398958562
 20
88.1608432711765175
 10
8.6813201398958562
 20
74.3098609009203415
 10
22.532302510150739
 20
74.3098609009203415
 10
22.532302510150739
 20
88.1608432711765175
 10
8.6813201398958562
 20
88.1608432711765175
  0
ENDBLK
  5
F4
100
AcDbEntity
  8
0
100
AcDbBlockEnd
  0
BLOCK
  5
F5
100
AcDbEntity
  8
0
100
AcDbBlockBegin
  2
block 66
 70
0
 10
0.0
 20
0.0
 30
0.0
  3
block 66
  1

  0
LWPOLYLINE
  5
F6
100
AcDbEntity
  8
_U+5207_U+65AD_U+30D1_U+30B9
 62
1
420
16711680
370
9
 48
1.0
  6
ByLayer
100
AcDbPolyline
 90
5
 70
0
 10
-103.4159405040919069
 20
-15.49484349017753
 10
-103.4159405047137028
 20
-29.3458258604298514
 10
-117.266922874971101
 20
-29.3458258598080413
 10
-117.2669228743493051
 20
-15.4948434895557305
 10
-103.4159405040919069
 20
-15.49484349017753
  0
ENDBLK
  5
F7
100
AcDbEntity
  8
0
100
AcDbBlockEnd
  0
BLOCK
  5
F8
100
AcDbEntity
  8
0
100
AcDbBlockBegin
  2
block 60
 70
0
 10
0.0
 20
0.0
 30
0.0
  3
block 60
  1

  0
LWPOLYLINE
  5
F9
100
AcDbEntity
  8
_U+5207_U+65AD_U+30D1_U+30B9
 62
1
420
16711680
370
9
 48
1.0
  6
ByLayer
100
AcDbPolyline
 90
5
 70
0
 10
-65.4132451919856379
 20
-10.7445065779022109
 10
-65.4132451926074481
 20
-24.5954889481532497
 10
-79.264227562862331
 20
-24.5954889475314395
 10
-79.2642275622405208
 20
-10.7445065772804096
 10
-65.4132451919856379
 20
-10.7445065779022109
  0
ENDBLK
  5
FA
100
AcDbEntity
  8
0
100
AcDbBlockEnd
  0
BLOCK
  5
FB
100
AcDbEntity
  8
0
100
AcDbBlockBegin
  2
block 55
 70
0
 10
0.0
 20
0.0
 30
0.0
  3
block 55
  1

  0
LWPOLYLINE
  5
FC
100
AcDbEntity
  8
_U+5207_U+65AD_U+30D1_U+30B9
 62
1
420
16711680
370
9
 48
1.0
  6
ByLayer
100
AcDbPolyline
 90
5
 70
0
 10
-27.4105498812648207
 20
-36.8713596065278111
 10
-27.4105498818866202
 20
-50.7223419767878312
 10
-41.2615322521431125
 20
-50.722341976166021
 10
-41.2615322515213023
 20
-36.8713596059060009
 10
-27.4105498812648207
 20
-36.8713596065278111
  0
ENDBLK
  5
FD
100
AcDbEntity
  8
0
100
AcDbBlockEnd
  0
BLOCK
  5
FE
100
AcDbEntity
  8
0
100
AcDbBlockBegin
  2
block 79
 70
0
 10
0.0
 20
0.0
 30
0.0
  3
block 79
  1

  0
SPLINE
  5
FF
100
AcDbEntity
  8
_U+5207_U+65AD_U+30D1_U+30B9
 62
1
420
16711680
370
9
 48
1.0
  6
ByLayer
100
AcDbSpline
 70
8
 71
3
 72
20
 73
16
 74
0
 40
0.0
 40
0.0
 40
0.0
 40
0.0
 40
1.0
 40
1.0
 40
1.0
 40
2.0
 40
2.0
 40
2.0
 40
3.0
 40
3.0
 40
3.0
 40
4.0
 40
4.0
 40
4.0
 40
5.0
 40
5.0
 40
5.0
 40
5.0
 10
-140.0747378712345039
 20
-68.7842303625827327
 30
0.0
 10
-140.074737509865912
 20
-68.1766740473044024
 30
0.0
 10
-140.5672589238322132
 20
-67.684152047456891
 30
0.0
 10
-141.1748152391035092
 20
-67.6841516860892085
 30
0.0
 10
-141.7823715543819105
 20
-67.6841513247215261
 30
0.0
 10
-142.2748935542400091
 20
-68.1766727386766433
 30
0.0
 10
-142.2748939156072936
 20
-68.7842290539549737
 30
0.0
 10
-142.2748942769765961
 20
-69.3917853692384483
 30
0.0
 10
-141.7823728630102949
 20
-69.884307369093662
 30
0.0
 10
-141.1748165477318935
 20
-69.8843077304613445
 30
0.0
 10
-140.5672602324600007
 20
-69.8843080918290269
 30
0.0
 10
-140.074738232602499
 20
-69.3917866778662074
 30
0.0
 10
-140.0747378712345039
 20
-68.7842303625827327
 30
0.0
 10
-140.0747378712345039
 20
-68.7842303625827327
 30
0.0
 10
-140.0747378712345039
 20
-68.7842303625827327
 30
0.0
 10
-140.0747378712345039
 20
-68.7842303625827327
 30
0.0
  0
ENDBLK
  5
100
100
AcDbEntity
  8
0
100
AcDbBlockEnd
  0
BLOCK
  5
101
100
AcDbEntity
  8
0
100
AcDbBlockBegin
  2
block 5
 70
0
 10
0.0
 20
0.0
 30
0.0
  3
block 5
  1

  0
SPLINE
  5
102
100
AcDbEntity
  8
_U+5207_U+65AD_U+30D1_U+30B9
 62
1
420
16711680
370
9
 48
1.0
  6
ByLayer
100
AcDbSpline
 70
8
 71
3
 72
20
 73
16
 74
0
 40
0.0
 40
0.0
 40
0.0
 40
0.0
 40
1.0
 40
1.0
 40
1.0
 40
2.0
 40
2.0
 40
2.0
 40
3.0
 40
3.0
 40
3.0
 40
4.0
 40
4.0
 40
4.0
 40
5.0
 40
5.0
 40
5.0
 40
5.0
 10
-82.6538147689175275
 20
38.0710473345992
 30
0.0
 10
-82.6538147689175275
 20
38.6786036498788235
 30
0.0
 10
-82.1612930620094772
 20
39.1711253567919968
 30
0.0
 10
-81.5537367467298537
 20
39.1711253567919968
 30
0.0
 10
-80.9461804314540814
 20
39.1711253567919968
 30
0.0
 10
-80.4536587245434731
 20
38.6786036498788235
 30
0.0
 10
-80.4536587245434731
 20
38.0710473345992
 30
0.0
 10
-80.4536587245434731
 20
37.4634910193208626
 30
0.0
 10
-80.9461804314540814
 20
36.9709693124192285
 30
0.0
 10
-81.5537367467298537
 20
36.9709693124192285
 30
0.0
 10
-82.1612930620094772
 20
36.9709693124192285
 30
0.0
 10
-82.6538147689175275
 20
37.4634910193208626
 30
0.0
 10
-82.6538147689175275
 20
38.0710473345992
 30
0.0
 10
-82.6538147689175275
 20
38.0710473345992
 30
0.0
 10
-82.6538147689175275
 20
38.0710473345992
 30
0.0
 10
-82.6538147689175275
 20
38.0710473345992
 30
0.0
  0
ENDBLK
  5
103
100
AcDbEntity
  8
0
100
AcDbBlockEnd
  0
BLOCK
  5
104
100
AcDbEntity
  8
0
100
AcDbBlockBegin
  2
block 27
 70
0
 10
0.0
 20
0.0
 30
0.0
  3
block 27
  1

  0
LWPOLYLINE
  5
105
100
AcDbEntity
  8
_U+5207_U+65AD_U+30D1_U+30B9
 62
1
420
16711680
370
9
 48
1.0
  6
ByLayer
100
AcDbPolyline
 90
5
 70
0
 10
65.6858711437627676
 20
76.2850009862135323
 10
65.6858711437627676
 20
62.4340186159586494
 10
79.5368535140176505
 20
62.4340186159586494
 10
79.5368535140176505
 20
76.2850009862135323
 10
65.6858711437627676
 20
76.2850009862135323
  0
ENDBLK
  5
106
100
AcDbEntity
  8
0
100
AcDbBlockEnd
  0
BLOCK
  5
107
100
AcDbEntity
  8
0
100
AcDbBlockBegin
  2
block 69
 70
0
 10
0.0
 20
0.0
 30
0.0
  3
block 69
  1

  0
LWPOLYLINE
  5
108
100
AcDbEntity
  8
_U+5207_U+65AD_U+30D1_U+30B9
 62
1
420
16711680
370
9
 48
1.0
  6
ByLayer
100
AcDbPolyline
 90
5
 70
0
 10
-74.9139190226529479
 20
-70.7487623330874555
 10
-74.9139190232753975
 20
-84.5997447033436174
 10
-88.7649013935302804
 20
-84.5997447027211678
 10
-88.7649013929078308
 20
-70.7487623324650059
 10
-74.9139190226529479
 20
-70.7487623330874555
  0
ENDBLK
  5
109
100
AcDbEntity
  8
0
100
AcDbBlockEnd
  0
BLOCK
  5
10A
100
AcDbEntity
  8
0
100
AcDbBlockBegin
  2
block 65
 70
0
 10
0.0
 20
0.0
 30
0.0
  3
block 65
  1

  0
LWPOLYLINE
  5
10B
100
AcDbEntity
  8
_U+5207_U+65AD_U+30D1_U+30B9
 62
1
420
16711680
370
9
 48
1.0
  6
ByLayer
100
AcDbPolyline
 90
5
 70
0
 10
-84.4145928497427889
 20
-51.1223703459340371
 10
-84.414592850364599
 20
-64.9733527161850759
 10
-98.2655752206207751
 20
-64.9733527155632657
 10
-98.2655752199989649
 20
-51.1223703453122269
 10
-84.4145928497427889
 20
-51.1223703459340371
  0
ENDBLK
  5
10C
100
AcDbEntity
  8
0
100
AcDbBlockEnd
  0
BLOCK
  5
10D
100
AcDbEntity
  8
0
100
AcDbBlockBegin
  2
block 18
 70
0
 10
0.0
 20
0.0
 30
0.0
  3
block 18
  1

  0
LWPOLYLINE
  5
10E
100
AcDbEntity
  8
_U+5207_U+65AD_U+30D1_U+30B9
 62
1
420
16711680
370
9
 48
1.0
  6
ByLayer
100
AcDbPolyline
 90
5
 70
0
 10
8.6813201398958562
 20
69.159495615233439
 10
8.6813201398958562
 20
55.3085132449734189
 10
22.532302510150739
 20
55.3085132449734189
 10
22.532302510150739
 20
69.159495615233439
 10
8.6813201398958562
 20
69.159495615233439
  0
ENDBLK
  5
10F
100
AcDbEntity
  8
0
100
AcDbBlockEnd
  0
BLOCK
  5
110
100
AcDbEntity
  8
0
100
AcDbBlockBegin
  2
block 57
 70
0
 10
0.0
 20
0.0
 30
0.0
  3
block 57
  1

  0
LWPOLYLINE
  5
111
100
AcDbEntity
  8
_U+5207_U+65AD_U+30D1_U+30B9
 62
1
420
16711680
370
9
 48
1.0
  6
ByLayer
100
AcDbPolyline
 90
5
 70
0
 10
-46.4118975361503701
 20
-13.1196750357464698
 10
-46.4118975367721731
 20
-26.9706574059987894
 10
-60.2628799070264165
 20
-26.9706574053769792
 10
-60.2628799064039669
 20
-13.1196750351246596
 10
-46.4118975361503701
 20
-13.1196750357464698
  0
ENDBLK
  5
112
100
AcDbEntity
  8
0
100
AcDbBlockEnd
  0
BLOCK
  5
113
100
AcDbEntity
  8
0
100
AcDbBlockBegin
  2
block 20
 70
0
 10
0.0
 20
0.0
 30
0.0
  3
block 20
  1

  0
LWPOLYLINE
  5
114
100
AcDbEntity
  8
_U+5207_U+65AD_U+30D1_U+30B9
 62
1
420
16711680
370
9
 48
1.0
  6
ByLayer
100
AcDbPolyline
 90
5
 70
0
 10
27.6831758318689189
 20
88.1608432711765175
 10
27.6831758318689189
 20
74.3098609009203415
 10
41.5341582021254112
 20
74.3098609009203415
 10
41.5341582021254112
 20
88.1608432711765175
 10
27.6831758318689189
 20
88.1608432711765175
  0
ENDBLK
  5
115
100
AcDbEntity
  8
0
100
AcDbBlockEnd
  0
BLOCK
  5
116
100
AcDbEntity
  8
0
100
AcDbBlockBegin
  2
block 16
 70
0
 10
0.0
 20
0.0
 30
0.0
  3
block 16
  1

  0
SPLINE
  5
117
100
AcDbEntity
  8
_U+5207_U+65AD_U+30D1_U+30B9
 62
1
420
16711680
370
9
 48
1.0
  6
ByLayer
100
AcDbSpline
 70
8
 71
3
 72
20
 73
16
 74
0
 40
0.0
 40
0.0
 40
0.0
 40
0.0
 40
1.0
 40
1.0
 40
1.0
 40
2.0
 40
2.0
 40
2.0
 40
3.0
 40
3.0
 40
3.0
 40
4.0
 40
4.0
 40
4.0
 40
5.0
 40
5.0
 40
5.0
 40
5.0
 10
67.2593678454881285
 20
35.6029477738899729
 30
0.0
 10
67.2593678454881285
 20
36.2105040891696035
 30
0.0
 10
67.7518895523910487
 20
36.7030257960789328
 30
0.0
 10
68.3594458676719512
 20
36.7030257960789328
 30
0.0
 10
68.9670021829515747
 20
36.7030257960789328
 30
0.0
 10
69.4595238898544949
 20
36.2105040891696035
 30
0.0
 10
69.4595238898544949
 20
35.6029477738899729
 30
0.0
 10
69.4595238898544949
 20
34.9953914586116426
 30
0.0
 10
68.9670021829515747
 20
34.5028697517100085
 30
0.0
 10
68.3594458676719512
 20
34.5028697517100085
 30
0.0
 10
67.7518895523910487
 20
34.5028697517100085
 30
0.0
 10
67.2593678454881285
 20
34.9953914586116426
 30
0.0
 10
67.2593678454881285
 20
35.6029477738899729
 30
0.0
 10
67.2593678454881285
 20
35.6029477738899729
 30
0.0
 10
67.2593678454881285
 20
35.6029477738899729
 30
0.0
 10
67.2593678454881285
 20
35.6029477738899729
 30
0.0
  0
ENDBLK
  5
118
100
AcDbEntity
  8
0
100
AcDbBlockEnd
  0
BLOCK
  5
119
100
AcDbEntity
  8
0
100
AcDbBlockBegin
  2
block 49
 70
0
 10
0.0
 20
0.0
 30
0.0
  3
block 49
  1

  0
SPLINE
  5
11A
100
AcDbEntity
  8
_U+5207_U+65AD_U+30D1_U+30B9
 62
1
420
16711680
370
9
 48
1.0
  6
ByLayer
100
AcDbSpline
 70
8
 71
3
 72
20
 73
16
 74
0
 40
0.0
 40
0.0
 40
0.0
 40
0.0
 40
1.0
 40
1.0
 40
1.0
 40
2.0
 40
2.0
 40
2.0
 40
3.0
 40
3.0
 40
3.0
 40
4.0
 40
4.0
 40
4.0
 40
5.0
 40
5.0
 40
5.0
 40
5.0
 10
-113.5067207455964962
 20
-78.1824170684677
 30
0.0
 10
-113.5067207455688987
 20
-77.5748607531880765
 30
0.0
 10
-113.9992424524512984
 20
-77.0823390462569193
 30
0.0
 10
-114.6067987677279945
 20
-77.0823390462293361
 30
0.0
 10
-115.2143550830080017
 20
-77.0823390462023781
 30
0.0
 10
-115.7068767899340003
 20
-77.5748607530892542
 30
0.0
 10
-115.7068767899615978
 20
-78.1824170683688777
 30
0.0
 10
-115.7068767899882005
 20
-78.7899733836395058
 30
0.0
 10
-115.2143550831067955
 20
-79.2824950905751535
 30
0.0
 10
-114.6067987678272004
 20
-79.2824950906020973
 30
0.0
 10
-113.9992424525501065
 20
-79.2824950906296948
 30
0.0
 10
-113.5067207456234968
 20
-78.789973383738328
 30
0.0
 10
-113.5067207455964962
 20
-78.1824170684677
 30
0.0
 10
-113.5067207455964962
 20
-78.1824170684677
 30
0.0
 10
-113.5067207455964962
 20
-78.1824170684677
 30
0.0
 10
-113.5067207455964962
 20
-78.1824170684677
 30
0.0
  0
ENDBLK
  5
11B
100
AcDbEntity
  8
0
100
AcDbBlockEnd
  0
BLOCK
  5
11C
100
AcDbEntity
  8
0
100
AcDbBlockBegin
  2
block 23
 70
0
 10
0.0
 20
0.0
 30
0.0
  3
block 23
  1

  0
LWPOLYLINE
  5
11D
100
AcDbEntity
  8
_U+5207_U+65AD_U+30D1_U+30B9
 62
1
420
16711680
370
9
 48
1.0
  6
ByLayer
100
AcDbPolyline
 90
5
 70
0
 10
46.6845234878209823
 20
92.9111801851619532
 10
46.6845234878209823
 20
79.0601978149096425
 10
60.5355058580745791
 20
79.0601978149096425
 10
60.5355058580745791
 20
92.9111801851619532
 10
46.6845234878209823
 20
92.9111801851619532
  0
ENDBLK
  5
11E
100
AcDbEntity
  8
0
100
AcDbBlockEnd
  0
BLOCK
  5
11F
100
AcDbEntity
  8
0
100
AcDbBlockBegin
  2
block 62
 70
0
 10
0.0
 20
0.0
 30
0.0
  3
block 62
  1

  0
LWPOLYLINE
  5
120
100
AcDbEntity
  8
_U+5207_U+65AD_U+30D1_U+30B9
 62
1
420
16711680
370
9
 48
1.0
  6
ByLayer
100
AcDbPolyline
 90
5
 70
0
 10
-65.413245193691921
 20
-48.7472018897845132
 10
-65.413245194313717
 20
-62.5981842600432401
 10
-79.2642275645685999
 20
-62.598184259421437
 10
-79.2642275639468039
 20
-48.747201889162703
 10
-65.413245193691921
 20
-48.7472018897845132
  0
ENDBLK
  5
121
100
AcDbEntity
  8
0
100
AcDbBlockEnd
  0
BLOCK
  5
122
100
AcDbEntity
  8
0
100
AcDbBlockBegin
  2
block 39
 70
0
 10
0.0
 20
0.0
 30
0.0
  3
block 39
  1

  0
SPLINE
  5
123
100
AcDbEntity
  8
_U+5207_U+65AD_U+30D1_U+30B9
 62
1
420
16711680
370
9
 48
1.0
  6
ByLayer
100
AcDbSpline
 70
8
 71
3
 72
20
 73
16
 74
0
 40
0.0
 40
0.0
 40
0.0
 40
0.0
 40
1.0
 40
1.0
 40
1.0
 40
2.0
 40
2.0
 40
2.0
 40
3.0
 40
3.0
 40
3.0
 40
4.0
 40
4.0
 40
4.0
 40
5.0
 40
5.0
 40
5.0
 40
5.0
 10
82.9264407180152432
 20
-69.3709190029532294
 30
0.0
 10
82.926440718042187
 20
-68.7633626876736059
 30
0.0
 10
82.4339190111572435
 20
-68.2708409807386118
 30
0.0
 10
81.82636269587762
 20
-68.2708409807110144
 30
0.0
 10
81.2188063806018476
 20
-68.2708409806840564
 30
0.0
 10
80.7262846736681325
 20
-68.7633626875747836
 30
0.0
 10
80.7262846736411745
 20
-69.3709190028544072
 30
0.0
 10
80.7262846736142308
 20
-69.9784753181327375
 30
0.0
 10
81.2188063805030254
 20
-70.4709970250568318
 30
0.0
 10
81.8263626957787977
 20
-70.4709970250837898
 30
0.0
 10
82.4339190110584212
 20
-70.4709970251113731
 30
0.0
 10
82.9264407179882852
 20
-69.9784753182315598
 30
0.0
 10
82.9264407180152432
 20
-69.3709190029532294
 30
0.0
 10
82.9264407180152432
 20
-69.3709190029532294
 30
0.0
 10
82.9264407180152432
 20
-69.3709190029532294
 30
0.0
 10
82.9264407180152432
 20
-69.3709190029532294
 30
0.0
  0
ENDBLK
  5
124
100
AcDbEntity
  8
0
100
AcDbBlockEnd
  0
BLOCK
  5
125
100
AcDbEntity
  8
0
100
AcDbBlockBegin
  2
block 45
 70
0
 10
0.0
 20
0.0
 30
0.0
  3
block 45
  1

  0
SPLINE
  5
126
100
AcDbEntity
  8
_U+5207_U+65AD_U+30D1_U+30B9
 62
1
420
16711680
370
9
 48
1.0
  6
ByLayer
100
AcDbSpline
 70
8
 71
3
 72
128
 73
124
 74
0
 40
0.0
 40
0.0
 40
0.0
 40
0.0
 40
1.0
 40
1.0
 40
1.0
 40
2.0
 40
2.0
 40
2.0
 40
3.0
 40
3.0
 40
3.0
 40
4.0
 40
4.0
 40
4.0
 40
5.0
 40
5.0
 40
5.0
 40
6.0
 40
6.0
 40
6.0
 40
7.0
 40
7.0
 40
7.0
 40
8.0
 40
8.0
 40
8.0
 40
9.0
 40
9.0
 40
9.0
 40
10.0
 40
10.0
 40
10.0
 40
11.0
 40
11.0
 40
11.0
 40
12.0
 40
12.0
 40
12.0
 40
13.0
 40
13.0
 40
13.0
 40
14.0
 40
14.0
 40
14.0
 40
15.0
 40
15.0
 40
15.0
 40
16.0
 40
16.0
 40
16.0
 40
17.0
 40
17.0
 40
17.0
 40
18.0
 40
18.0
 40
18.0
 40
19.0
 40
19.0
 40
19.0
 40
20.0
 40
20.0
 40
20.0
 40
21.0
 40
21.0
 40
21.0
 40
22.0
 40
22.0
 40
22.0
 40
23.0
 40
23.0
 40
23.0
 40
24.0
 40
24.0
 40
24.0
 40
25.0
 40
25.0
 40
25.0
 40
26.0
 40
26.0
 40
26.0
 40
27.0
 40
27.0
 40
27.0
 40
28.0
 40
28.0
 40
28.0
 40
29.0
 40
29.0
 40
29.0
 40
30.0
 40
30.0
 40
30.0
 40
31.0
 40
31.0
 40
31.0
 40
32.0
 40
32.0
 40
32.0
 40
33.0
 40
33.0
 40
33.0
 40
34.0
 40
34.0
 40
34.0
 40
35.0
 40
35.0
 40
35.0
 40
36.0
 40
36.0
 40
36.0
 40
37.0
 40
37.0
 40
37.0
 40
38.0
 40
38.0
 40
38.0
 40
39.0
 40
39.0
 40
39.0
 40
40.0
 40
40.0
 40
40.0
 40
41.0
 40
41.0
 40
41.0
 40
41.0
 10
-62.1966220009544912
 20
-72.0800907602786083
 30
0.0
 10
-62.1028471608191808
 20
-71.9863159201535581
 30
0.0
 10
-61.9756611838019609
 20
-71.9336337635384666
 30
0.0
 10
-61.8430435330745425
 20
-71.9336337635442504
 30
0.0
 10
-61.8430435330745425
 20
-71.9336337635442504
 30
0.0
 10
-25.8404900797072301
 20
-71.9336337651606783
 30
0.0
 10
-25.8404900797072301
 20
-71.9336337651606783
 30
0.0
 10
-25.8404900797072301
 20
-71.9336337651606783
 30
0.0
 10
-23.8403482211871101
 20
-71.9336337652505193
 30
0.0
 10
-23.8403482211871101
 20
-71.9336337652505193
 30
0.0
 10
-23.8403482211871101
 20
-71.9336337652505193
 30
0.0
 10
-6.8391424237590268
 20
-71.9336337660135001
 30
0.0
 10
-6.8391424237590268
 20
-71.9336337660135001
 30
0.0
 10
-6.5629804622692216
 20
-71.9336337660263325
 30
0.0
 10
-6.3391069591177667
 20
-71.7097602628896453
 30
0.0
 10
-6.3391069591055738
 20
-71.4335983014023981
 30
0.0
 10
-6.3391069591055738
 20
-71.4335983014023981
 30
0.0
 10
-6.3391069566247653
 20
-16.1796794597688205
 30
0.0
 10
-6.3391069566247653
 20
-16.1796794597688205
 30
0.0
 10
-6.3391069566122527
 20
-15.9035174982751695
 30
0.0
 10
-6.5629804597434953
 20
-15.6796439951307693
 30
0.0
 10
-6.8391424212332987
 20
-15.6796439951179405
 30
0.0
 10
-6.8391424212332987
 20
-15.6796439951179405
 30
0.0
 10
-23.8403482186562492
 20
-15.6796439943549597
 30
0.0
 10
-23.8403482186562492
 20
-15.6796439943549597
 30
0.0
 10
-23.8403482186562492
 20
-15.6796439943549597
 30
0.0
 10
-25.84049007718151
 20
-15.6796439942651205
 30
0.0
 10
-25.84049007718151
 20
-15.6796439942651205
 30
0.0
 10
-25.84049007718151
 20
-15.6796439942651205
 30
0.0
 10
-43.8417668038625905
 20
-15.6796439934565797
 30
0.0
 10
-43.8417668038625905
 20
-15.6796439934565797
 30
0.0
 10
-44.1179287653565666
 20
-15.6796439934443903
 30
0.0
 10
-44.3418022684849333
 20
-15.4557704902878008
 30
0.0
 10
-44.3418022684720867
 20
-15.1796085288018396
 30
0.0
 10
-44.3418022684720867
 20
-15.1796085288018396
 30
0.0
 10
-44.3418022683039723
 20
-11.4293425440770999
 30
0.0
 10
-44.3418022683039723
 20
-11.4293425440770999
 30
0.0
 10
-44.3418022682917723
 20
-11.1531805825860104
 30
0.0
 10
-44.565675771422697
 20
-10.92930707943135
 30
0.0
 10
-44.8418377329137812
 20
-10.92930707941915
 30
0.0
 10
-44.8418377329137812
 20
-10.92930707941915
 30
0.0
 10
-62.8431144595990432
 20
-10.9293070786106092
 30
0.0
 10
-62.8431144595990432
 20
-10.9293070786106092
 30
0.0
 10
-63.1192764210875623
 20
-10.9293070785984199
 30
0.0
 10
-63.3431499242204126
 20
-10.7054335754533803
 30
0.0
 10
-63.3431499242075731
 20
-10.4292716139635804
 30
0.0
 10
-63.3431499242075731
 20
-10.4292716139635804
 30
0.0
 10
-63.3431499241517528
 20
-9.1791829523860962
 30
0.0
 10
-63.3431499241517528
 20
-9.1791829523860962
 30
0.0
 10
-63.3431499241389133
 20
-8.9030209908950084
 30
0.0
 10
-63.5670234272682322
 20
-8.6791474877499688
 30
0.0
 10
-63.8431853887538594
 20
-8.6791474877377777
 30
0.0
 10
-63.8431853887538594
 20
-8.6791474877377777
 30
0.0
 10
-80.8443911861858027
 20
-8.6791474869747969
 30
0.0
 10
-80.8443911861858027
 20
-8.6791474869747969
 30
0.0
 10
-81.1205531476730357
 20
-8.6791474869619627
 30
0.0
 10
-81.3444266508203242
 20
-8.9030209900871107
 30
0.0
 10
-81.3444266508328298
 20
-9.1791829515781966
 30
0.0
 10
-81.3444266508328298
 20
-9.1791829515781966
 30
0.0
 10
-81.3444266508886642
 20
-10.4292716131556809
 30
0.0
 10
-81.3444266508886642
 20
-10.4292716131556809
 30
0.0
 10
-81.3444266509018092
 20
-10.7054335746454807
 30
0.0
 10
-81.5683001540535884
 20
-10.9293070777699892
 30
0.0
 10
-81.8444621155417877
 20
-10.9293070777577892
 30
0.0
 10
-81.8444621155417877
 20
-10.9293070777577892
 30
0.0
 10
-99.8457388422283287
 20
-10.9293070769492502
 30
0.0
 10
-99.8457388422283287
 20
-10.9293070769492502
 30
0.0
 10
-100.121900803717196
 20
-10.9293070769370608
 30
0.0
 10
-100.345774306872201
 20
-11.1531805800718296
 30
0.0
 10
-100.3457743068843939
 20
-11.4293425415629208
 30
0.0
 10
-100.3457743068843939
 20
-11.4293425415629208
 30
0.0
 10
-100.3457743069516965
 20
-12.9294489354494804
 30
0.0
 10
-100.3457743069516965
 20
-12.9294489354494804
 30
0.0
 10
-100.3457743069642021
 20
-13.2056108969431403
 30
0.0
 10
-100.5696478101101974
 20
-13.4294844000721305
 30
0.0
 10
-100.8458097716052038
 20
-13.4294844000592999
 30
0.0
 10
-100.8458097716052038
 20
-13.4294844000592999
 30
0.0
 10
-118.847086498282394
 20
-13.4294843992514004
 30
0.0
 10
-118.847086498282394
 20
-13.4294843992514004
 30
0.0
 10
-119.1232484597785941
 20
-13.4294843992385697
 30
0.0
 10
-119.3471219629275026
 20
-13.6533579023701304
 30
0.0
 10
-119.3471219629396955
 20
-13.9295198638612199
 30
0.0
 10
-119.3471219629396955
 20
-13.9295198638612199
 30
0.0
 10
-119.3471219629955016
 20
-15.16411370195787
 30
0.0
 10
-119.3471219629955016
 20
-15.16411370195787
 30
0.0
 10
-119.3471219629955016
 20
-15.16411370195787
 30
0.0
 10
-119.3464264384018065
 20
-31.4248746446559686
 30
0.0
 10
-119.3464264384018065
 20
-31.4248746446559686
 30
0.0
 10
-119.3464264384018065
 20
-31.4248746446559686
 30
0.0
 10
-119.3466304762086025
 20
-63.7177001461483101
 30
0.0
 10
-119.3466304762086025
 20
-63.7177001461483101
 30
0.0
 10
-119.4286791586558962
 20
-64.1010481738694011
 30
0.0
 10
-119.6314780581429034
 20
-64.4479894459005465
 30
0.0
 10
-119.9252481965118022
 20
-64.7075791268379419
 30
0.0
 10
-119.9252481965118022
 20
-64.7075791268379419
 30
0.0
 10
-139.0021974265499978
 20
-75.7449568554426662
 30
0.0
 10
-139.0021974265499978
 20
-75.7449568554426662
 30
0.0
 10
-139.5296148812207093
 20
-76.1413363209319982
 30
0.0
 10
-139.6917026490330898
 20
-76.8617263999315981
 30
0.0
 10
-139.3848889081608036
 20
-77.4458078844627806
 30
0.0
 10
-139.3848889081608036
 20
-77.4458078844627806
 30
0.0
 10
-126.1476042857980957
 20
-100.4856587910328045
 30
0.0
 10
-126.1476042857980957
 20
-100.4856587910328045
 30
0.0
 10
-126.1428595301191962
 20
-100.4928103780337949
 30
0.0
 10
-126.1380094634545941
 20
-100.499891534826105
 30
0.0
 10
-126.1330556709280017
 20
-100.5068999471079962
 30
0.0
 10
-125.8550483887760976
 20
-100.9002126748333978
 30
0.0
 10
-125.3108359942498993
 20
-100.9936862071528054
 30
0.0
 10
-124.9175232665174065
 20
-100.7156789249954016
 30
0.0
 10
-124.9175232665174065
 20
-100.7156789249954016
 30
0.0
 10
-110.167854063791296
 20
-92.226154600029318
 30
0.0
 10
-110.167854063791296
 20
-92.226154600029318
 30
0.0
 10
-110.0766209424738946
 20
-92.1944356060055981
 30
0.0
 10
-109.982919390146094
 20
-92.1703209833620321
 30
0.0
 10
-109.8877086787280035
 20
-92.1540576061340317
 30
0.0
 10
-109.8877086787280035
 20
-92.1540576061340317
 30
0.0
 10
-73.0938414879199883
 20
-86.6846799696239998
 30
0.0
 10
-73.0938414879199883
 20
-86.6846799696239998
 30
0.0
 10
-72.9645941239839004
 20
-86.6715594680627959
 30
0.0
 10
-72.8424538285902088
 20
-86.6192136271829014
 30
0.0
 10
-72.7438166626714349
 20
-86.5346693302470129
 30
0.0
 10
-72.7438166626714349
 20
-86.5346693302470129
 30
0.0
 10
-62.1930683583237425
 20
-72.0754169438638144
 30
0.0
 10
-62.1966220009544912
 20
-72.0800907602786083
 30
0.0
  0
ENDBLK
  5
127
100
AcDbEntity
  8
0
100
AcDbBlockEnd
  0
BLOCK
  5
128
100
AcDbEntity
  8
0
100
AcDbBlockBegin
  2
block 15
 70
0
 10
0.0
 20
0.0
 30
0.0
  3
block 15
  1

  0
SPLINE
  5
129
100
AcDbEntity
  8
_U+5207_U+65AD_U+30D1_U+30B9
 62
1
420
16711680
370
9
 48
1.0
  6
ByLayer
100
AcDbSpline
 70
8
 71
3
 72
20
 73
16
 74
0
 40
0.0
 40
0.0
 40
0.0
 40
0.0
 40
1.0
 40
1.0
 40
1.0
 40
2.0
 40
2.0
 40
2.0
 40
3.0
 40
3.0
 40
3.0
 40
4.0
 40
4.0
 40
4.0
 40
5.0
 40
5.0
 40
5.0
 40
5.0
 10
113.7793466943454064
 20
27.8484381494279596
 30
0.0
 10
113.7793466943454064
 20
28.4559944647075795
 30
0.0
 10
114.2718684012496055
 20
28.9485161716169088
 30
0.0
 10
114.8794247165266995
 20
28.9485161716169088
 30
0.0
 10
115.4869810318062946
 20
28.9485161716169088
 30
0.0
 10
115.9795027387104938
 20
28.4559944647075795
 30
0.0
 10
115.9795027387104938
 20
27.8484381494279596
 30
0.0
 10
115.9795027387104938
 20
27.2408818341573209
 30
0.0
 10
115.4869810318062946
 20
26.7483601272441405
 30
0.0
 10
114.8794247165266995
 20
26.7483601272441405
 30
0.0
 10
114.2718684012496055
 20
26.7483601272441405
 30
0.0
 10
113.7793466943454064
 20
27.2408818341573209
 30
0.0
 10
113.7793466943454064
 20
27.8484381494279596
 30
0.0
 10
113.7793466943454064
 20
27.8484381494279596
 30
0.0
 10
113.7793466943454064
 20
27.8484381494279596
 30
0.0
 10
113.7793466943454064
 20
27.8484381494279596
 30
0.0
  0
ENDBLK
  5
12A
100
AcDbEntity
  8
0
100
AcDbBlockEnd
  0
BLOCK
  5
12B
100
AcDbEntity
  8
0
100
AcDbBlockBegin
  2
block 68
 70
0
 10
0.0
 20
0.0
 30
0.0
  3
block 68
  1

  0
LWPOLYLINE
  5
12C
100
AcDbEntity
  8
_U+5207_U+65AD_U+30D1_U+30B9
 62
1
420
16711680
370
9
 48
1.0
  6
ByLayer
100
AcDbPolyline
 90
5
 70
0
 10
-103.4159405057982042
 20
-53.4975388020713822
 10
-103.4159405064200001
 20
-67.3485211723224069
 10
-117.2669228766773983
 20
-67.3485211717006109
 10
-117.2669228760556024
 20
-53.4975388014495721
 10
-103.4159405057982042
 20
-53.4975388020713822
  0
ENDBLK
  5
12D
100
AcDbEntity
  8
0
100
AcDbBlockEnd
  0
BLOCK
  5
12E
100
AcDbEntity
  8
0
100
AcDbBlockBegin
  2
block 76
 70
0
 10
0.0
 20
0.0
 30
0.0
  3
block 76
  1

  0
INSERT
  5
12F
100
AcDbEntity
  8
_U+5207_U+65AD_U+30D1_U+30B9
 62
256
370
-1
 48
1.0
  6
ByLayer
100
AcDbBlockReference
  2
block 77
 10
0.0
 20
0.0
 30
0.0
  0
INSERT
  5
130
100
AcDbEntity
  8
_U+5207_U+65AD_U+30D1_U+30B9
 62
256
370
-1
 48
1.0
  6
ByLayer
100
AcDbBlockReference
  2
block 78
 10
0.0
 20
0.0
 30
0.0
  0
INSERT
  5
131
100
AcDbEntity
  8
_U+5207_U+65AD_U+30D1_U+30B9
 62
256
370
-1
 48
1.0
  6
ByLayer
100
AcDbBlockReference
  2
block 79
 10
0.0
 20
0.0
 30
0.0
  0
ENDBLK
  5
132
100
AcDbEntity
  8
0
100
AcDbBlockEnd
  0
BLOCK
  5
133
100
AcDbEntity
  8
0
100
AcDbBlockBegin
  2
block 40
 70
0
 10
0.0
 20
0.0
 30
0.0
  3
block 40
  1

  0
SPLINE
  5
134
100
AcDbEntity
  8
_U+5207_U+65AD_U+30D1_U+30B9
 62
1
420
16711680
370
9
 48
1.0
  6
ByLayer
100
AcDbSpline
 70
8
 71
3
 72
20
 73
16
 74
0
 40
0.0
 40
0.0
 40
0.0
 40
0.0
 40
1.0
 40
1.0
 40
1.0
 40
2.0
 40
2.0
 40
2.0
 40
3.0
 40
3.0
 40
3.0
 40
4.0
 40
4.0
 40
4.0
 40
5.0
 40
5.0
 40
5.0
 40
5.0
 10
50.1481596793322808
 20
-29.6236457029895917
 30
0.0
 10
50.1481596793595585
 20
-29.0160893877099717
 30
0.0
 10
49.6556379724733219
 20
-28.5235676807858809
 30
0.0
 10
49.0480816571940323
 20
-28.52356768075893
 30
0.0
 10
48.4405253419179331
 20
-28.523567680731329
 30
0.0
 10
47.9480036349880621
 20
-29.0160893876111494
 30
0.0
 10
47.9480036349607914
 20
-29.6236457028907694
 30
0.0
 10
47.9480036349338405
 20
-30.2312020181691103
 30
0.0
 10
48.4405253418194306
 20
-30.7237237251041115
 30
0.0
 10
49.048081657095203
 20
-30.7237237251316984
 30
0.0
 10
49.6556379723748265
 20
-30.7237237251586492
 30
0.0
 10
50.1481596793053299
 20
-30.2312020182679291
 30
0.0
 10
50.1481596793322808
 20
-29.6236457029895917
 30
0.0
 10
50.1481596793322808
 20
-29.6236457029895917
 30
0.0
 10
50.1481596793322808
 20
-29.6236457029895917
 30
0.0
 10
50.1481596793322808
 20
-29.6236457029895917
 30
0.0
  0
ENDBLK
  5
135
100
AcDbEntity
  8
0
100
AcDbBlockEnd
  0
BLOCK
  5
136
100
AcDbEntity
  8
0
100
AcDbBlockBegin
  2
block 26
 70
0
 10
0.0
 20
0.0
 30
0.0
  3
block 26
  1

  0
LWPOLYLINE
  5
137
100
AcDbEntity
  8
_U+5207_U+65AD_U+30D1_U+30B9
 62
1
420
16711680
370
9
 48
1.0
  6
ByLayer
100
AcDbPolyline
 90
5
 70
0
 10
65.6858711437627676
 20
95.2863486421527597
 10
65.6858711437627676
 20
81.4353662719017279
 10
79.5368535140176505
 20
81.4353662719017279
 10
79.5368535140176505
 20
95.2863486421527597
 10
65.6858711437627676
 20
95.2863486421527597
  0
ENDBLK
  5
138
100
AcDbEntity
  8
0
100
AcDbBlockEnd
  0
BLOCK
  5
139
100
AcDbEntity
  8
0
100
AcDbBlockBegin
  2
block 13
 70
0
 10
0.0
 20
0.0
 30
0.0
  3
block 13
  1

  0
SPLINE
  5
13A
100
AcDbEntity
  8
_U+5207_U+65AD_U+30D1_U+30B9
 62
1
420
16711680
370
9
 48
1.0
  6
ByLayer
100
AcDbSpline
 70
8
 71
3
 72
20
 73
16
 74
0
 40
0.0
 40
0.0
 40
0.0
 40
0.0
 40
1.0
 40
1.0
 40
1.0
 40
2.0
 40
2.0
 40
2.0
 40
3.0
 40
3.0
 40
3.0
 40
4.0
 40
4.0
 40
4.0
 40
5.0
 40
5.0
 40
5.0
 40
5.0
 10
24.0158264786857387
 20
71.7278223534056281
 30
0.0
 10
24.0158264786857387
 20
72.3353786686814004
 30
0.0
 10
24.5083481855912204
 20
72.8279003755907439
 30
0.0
 10
25.1159045008695507
 20
72.8279003755907439
 30
0.0
 10
25.7234608161491813
 20
72.8279003755907439
 30
0.0
 10
26.2159825230597896
 20
72.3353786686814004
 30
0.0
 10
26.2159825230597896
 20
71.7278223534056281
 30
0.0
 10
26.2159825230597896
 20
71.1202660381311489
 30
0.0
 10
25.7234608161491813
 20
70.6277443312218196
 30
0.0
 10
25.1159045008695507
 20
70.6277443312218196
 30
0.0
 10
24.5083481855912204
 20
70.6277443312218196
 30
0.0
 10
24.0158264786857387
 20
71.1202660381311489
 30
0.0
 10
24.0158264786857387
 20
71.7278223534056281
 30
0.0
 10
24.0158264786857387
 20
71.7278223534056281
 30
0.0
 10
24.0158264786857387
 20
71.7278223534056281
 30
0.0
 10
24.0158264786857387
 20
71.7278223534056281
 30
0.0
  0
ENDBLK
  5
13B
100
AcDbEntity
  8
0
100
AcDbBlockEnd
  0
BLOCK
  5
13C
100
AcDbEntity
  8
0
100
AcDbBlockBegin
  2
block 74
 70
0
 10
0.0
 20
0.0
 30
0.0
  3
block 74
  1

  0
SPLINE
  5
13D
100
AcDbEntity
  8
_U+5207_U+65AD_U+30D1_U+30B9
 62
1
420
16711680
370
9
 48
1.0
  6
ByLayer
100
AcDbSpline
 70
8
 71
3
 72
20
 73
16
 74
0
 40
0.0
 40
0.0
 40
0.0
 40
0.0
 40
1.0
 40
1.0
 40
1.0
 40
2.0
 40
2.0
 40
2.0
 40
3.0
 40
3.0
 40
3.0
 40
4.0
 40
4.0
 40
4.0
 40
5.0
 40
5.0
 40
5.0
 40
5.0
 10
125.3334858814164932
 20
44.8479790770425097
 30
0.0
 10
125.3334855200756977
 20
45.4555353923137915
 30
0.0
 10
125.8260069340609988
 20
45.9480573921471773
 30
0.0
 10
126.433563249338107
 20
45.9480577534872694
 30
0.0
 10
127.0411195646125009
 20
45.9480581148267078
 30
0.0
 10
127.5336415644471941
 20
45.4555367008420887
 30
0.0
 10
127.5336419257879044
 20
44.8479803855714465
 30
0.0
 10
127.5336422871286999
 20
44.2404240702924696
 30
0.0
 10
127.0411208731414945
 20
43.74790207045843
 30
0.0
 10
126.433564557867598
 20
43.7479017091183522
 30
0.0
 10
125.8260082425906035
 20
43.7479013477782601
 30
0.0
 10
125.3334862427572034
 20
44.2404227617628933
 30
0.0
 10
125.3334858814164932
 20
44.8479790770425097
 30
0.0
 10
125.3334858814164932
 20
44.8479790770425097
 30
0.0
 10
125.3334858814164932
 20
44.8479790770425097
 30
0.0
 10
125.3334858814164932
 20
44.8479790770425097
 30
0.0
  0
ENDBLK
  5
13E
100
AcDbEntity
  8
0
100
AcDbBlockEnd
  0
BLOCK
  5
13F
100
AcDbEntity
  8
0
100
AcDbBlockBegin
  2
block 37
 70
0
 10
0.0
 20
0.0
 30
0.0
  3
block 37
  1

  0
LWPOLYLINE
  5
140
100
AcDbEntity
  8
_U+5207_U+65AD_U+30D1_U+30B9
 62
1
420
16711680
370
9
 48
1.0
  6
ByLayer
100
AcDbPolyline
 90
5
 70
0
 10
122.8282799809615966
 20
31.3209144940989788
 10
115.9109753329070003
 20
19.3208891179971083
 10
127.911000709016605
 20
12.4035844699451197
 10
134.8283053570685865
 20
24.4036098460546995
 10
122.8282799809615966
 20
31.3209144940989788
  0
ENDBLK
  5
141
100
AcDbEntity
  8
0
100
AcDbBlockEnd
  0
BLOCK
  5
142
100
AcDbEntity
  8
0
100
AcDbBlockBegin
  2
block 42
 70
0
 10
0.0
 20
0.0
 30
0.0
  3
block 42
  1

  0
SPLINE
  5
143
100
AcDbEntity
  8
_U+5207_U+65AD_U+30D1_U+30B9
 62
1
420
16711680
370
9
 48
1.0
  6
ByLayer
100
AcDbSpline
 70
8
 71
3
 72
20
 73
16
 74
0
 40
0.0
 40
0.0
 40
0.0
 40
0.0
 40
1.0
 40
1.0
 40
1.0
 40
2.0
 40
2.0
 40
2.0
 40
3.0
 40
3.0
 40
3.0
 40
4.0
 40
4.0
 40
4.0
 40
5.0
 40
5.0
 40
5.0
 40
5.0
 10
126.1787774946166962
 20
-52.261190046626929
 30
0.0
 10
126.1787774946435974
 20
-51.6536337313485916
 30
0.0
 10
125.6862557877574034
 20
-51.1611120244174415
 30
0.0
 10
125.0786994724777941
 20
-51.161112024389837
 30
0.0
 10
124.4711431572033007
 20
-51.1611120243628932
 30
0.0
 10
123.9786214502695998
 20
-51.6536337312497693
 30
0.0
 10
123.9786214502425992
 20
-52.2611900465281067
 30
0.0
 10
123.9786214502144048
 20
-52.8687463618077231
 30
0.0
 10
124.4711431571043931
 20
-53.3612680687356686
 30
0.0
 10
125.0786994723789007
 20
-53.3612680687626195
 30
0.0
 10
125.6862557876585953
 20
-53.3612680687902099
 30
0.0
 10
126.1787774945884024
 20
-52.8687463619065525
 30
0.0
 10
126.1787774946166962
 20
-52.261190046626929
 30
0.0
 10
126.1787774946166962
 20
-52.261190046626929
 30
0.0
 10
126.1787774946166962
 20
-52.261190046626929
 30
0.0
 10
126.1787774946166962
 20
-52.261190046626929
 30
0.0
  0
ENDBLK
  5
144
100
AcDbEntity
  8
0
100
AcDbBlockEnd
  0
BLOCK
  5
145
100
AcDbEntity
  8
0
100
AcDbBlockBegin
  2
block 58
 70
0
 10
0.0
 20
0.0
 30
0.0
  3
block 58
  1

  0
LWPOLYLINE
  5
146
100
AcDbEntity
  8
_U+5207_U+65AD_U+30D1_U+30B9
 62
1
420
16711680
370
9
 48
1.0
  6
ByLayer
100
AcDbPolyline
 90
5
 70
0
 10
-46.4118975370035116
 20
-32.1210226916895465
 10
-46.4118975376253076
 20
-45.9720050619418572
 10
-60.2628799078792383
 20
-45.972005061320047
 10
-60.2628799072574282
 20
-32.1210226910677434
 10
-46.4118975370035116
 20
-32.1210226916895465
  0
ENDBLK
  5
147
100
AcDbEntity
  8
0
100
AcDbBlockEnd
  0
BLOCK
  5
148
100
AcDbEntity
  8
0
100
AcDbBlockBegin
  2
block 28
 70
0
 10
0.0
 20
0.0
 30
0.0
  3
block 28
  1

  0
LWPOLYLINE
  5
149
100
AcDbEntity
  8
_U+5207_U+65AD_U+30D1_U+30B9
 62
1
420
16711680
370
9
 48
1.0
  6
ByLayer
100
AcDbPolyline
 90
5
 70
0
 10
65.6858711437627676
 20
57.2836533302704609
 10
65.6858711437627676
 20
43.4326709600117269
 10
79.5368535140176505
 20
43.4326709600117269
 10
79.5368535140176505
 20
57.2836533302704609
 10
65.6858711437627676
 20
57.2836533302704609
  0
ENDBLK
  5
14A
100
AcDbEntity
  8
0
100
AcDbBlockEnd
  0
BLOCK
  5
14B
100
AcDbEntity
  8
0
100
AcDbBlockBegin
  2
block 34
 70
0
 10
0.0
 20
0.0
 30
0.0
  3
block 34
  1

  0
LWPOLYLINE
  5
14C
100
AcDbEntity
  8
_U+5207_U+65AD_U+30D1_U+30B9
 62
1
420
16711680
370
9
 48
1.0
  6
ByLayer
100
AcDbPolyline
 90
5
 70
0
 10
103.6885664556553053
 20
52.533316416277323
 10
103.6885664556553053
 20
38.682334046026277
 10
117.539548825912803
 20
38.682334046026277
 10
117.539548825912803
 20
52.533316416277323
 10
103.6885664556553053
 20
52.533316416277323
  0
ENDBLK
  5
14D
100
AcDbEntity
  8
0
100
AcDbBlockEnd
  0
BLOCK
  5
14E
100
AcDbEntity
  8
0
100
AcDbBlockBegin
  2
block 11
 70
0
 10
0.0
 20
0.0
 30
0.0
  3
block 11
  1

  0
SPLINE
  5
14F
100
AcDbEntity
  8
_U+5207_U+65AD_U+30D1_U+30B9
 62
1
420
16711680
370
9
 48
1.0
  6
ByLayer
100
AcDbSpline
 70
8
 71
3
 72
128
 73
124
 74
0
 40
0.0
 40
0.0
 40
0.0
 40
0.0
 40
1.0
 40
1.0
 40
1.0
 40
2.0
 40
2.0
 40
2.0
 40
3.0
 40
3.0
 40
3.0
 40
4.0
 40
4.0
 40
4.0
 40
5.0
 40
5.0
 40
5.0
 40
6.0
 40
6.0
 40
6.0
 40
7.0
 40
7.0
 40
7.0
 40
8.0
 40
8.0
 40
8.0
 40
9.0
 40
9.0
 40
9.0
 40
10.0
 40
10.0
 40
10.0
 40
11.0
 40
11.0
 40
11.0
 40
12.0
 40
12.0
 40
12.0
 40
13.0
 40
13.0
 40
13.0
 40
14.0
 40
14.0
 40
14.0
 40
15.0
 40
15.0
 40
15.0
 40
16.0
 40
16.0
 40
16.0
 40
17.0
 40
17.0
 40
17.0
 40
18.0
 40
18.0
 40
18.0
 40
19.0
 40
19.0
 40
19.0
 40
20.0
 40
20.0
 40
20.0
 40
21.0
 40
21.0
 40
21.0
 40
22.0
 40
22.0
 40
22.0
 40
23.0
 40
23.0
 40
23.0
 40
24.0
 40
24.0
 40
24.0
 40
25.0
 40
25.0
 40
25.0
 40
26.0
 40
26.0
 40
26.0
 40
27.0
 40
27.0
 40
27.0
 40
28.0
 40
28.0
 40
28.0
 40
29.0
 40
29.0
 40
29.0
 40
30.0
 40
30.0
 40
30.0
 40
31.0
 40
31.0
 40
31.0
 40
32.0
 40
32.0
 40
32.0
 40
33.0
 40
33.0
 40
33.0
 40
34.0
 40
34.0
 40
34.0
 40
35.0
 40
35.0
 40
35.0
 40
36.0
 40
36.0
 40
36.0
 40
37.0
 40
37.0
 40
37.0
 40
38.0
 40
38.0
 40
38.0
 40
39.0
 40
39.0
 40
39.0
 40
40.0
 40
40.0
 40
40.0
 40
41.0
 40
41.0
 40
41.0
 40
41.0
 10
62.4692479499774365
 20
33.9507644599207481
 30
0.0
 10
62.3754731098466308
 20
34.0445393000502818
 30
0.0
 10
62.2482871328319831
 20
34.09722145667115
 30
0.0
 10
62.1156694821045576
 20
34.09722145667115
 30
0.0
 10
62.1156694821045576
 20
34.09722145667115
 30
0.0
 10
26.1131160287372488
 20
34.09722145667115
 30
0.0
 10
26.1131160287372488
 20
34.09722145667115
 30
0.0
 10
26.1131160287372488
 20
34.09722145667115
 30
0.0
 10
24.1129741702171287
 20
34.09722145667115
 30
0.0
 10
24.1129741702171287
 20
34.09722145667115
 30
0.0
 10
24.1129741702171287
 20
34.09722145667115
 30
0.0
 10
7.1117683727890419
 20
34.09722145667115
 30
0.0
 10
7.1117683727890419
 20
34.09722145667115
 30
0.0
 10
6.8356064112992394
 20
34.09722145667115
 30
0.0
 10
6.6117329081580491
 20
34.3210949598174722
 30
0.0
 10
6.6117329081580491
 20
34.5972569213047123
 30
0.0
 10
6.6117329081580491
 20
34.5972569213047123
 30
0.0
 10
6.6117329081580491
 20
89.8511757629382828
 30
0.0
 10
6.6117329081580491
 20
89.8511757629382828
 30
0.0
 10
6.6117329081580491
 20
90.1273377244319391
 30
0.0
 10
6.8356064112992394
 20
90.3512112275667221
 30
0.0
 10
7.1117683727890419
 20
90.3512112275667221
 30
0.0
 10
7.1117683727890419
 20
90.3512112275667221
 30
0.0
 10
24.1129741702119986
 20
90.3512112275667221
 30
0.0
 10
24.1129741702119986
 20
90.3512112275667221
 30
0.0
 10
24.1129741702119986
 20
90.3512112275667221
 30
0.0
 10
26.1131160287372488
 20
90.3512112275667221
 30
0.0
 10
26.1131160287372488
 20
90.3512112275667221
 30
0.0
 10
26.1131160287372488
 20
90.3512112275667221
 30
0.0
 10
44.1143927554183435
 20
90.3512112275667221
 30
0.0
 10
44.1143927554183435
 20
90.3512112275667221
 30
0.0
 10
44.3905547169119927
 20
90.3512112275667221
 30
0.0
 10
44.6144282200506126
 20
90.5750847307130442
 30
0.0
 10
44.6144282200506126
 20
90.8512466921989983
 30
0.0
 10
44.6144282200506126
 20
90.8512466921989983
 30
0.0
 10
44.6144282200506126
 20
94.6015126769237327
 30
0.0
 10
44.6144282200506126
 20
94.6015126769237327
 30
0.0
 10
44.6144282200506126
 20
94.8776746384148169
 30
0.0
 10
44.8383017231917975
 20
95.10154814155986
 30
0.0
 10
45.1144636846828888
 20
95.10154814155986
 30
0.0
 10
45.1144636846828888
 20
95.10154814155986
 30
0.0
 10
63.1157404113678169
 20
95.10154814155986
 30
0.0
 10
63.1157404113678169
 20
95.10154814155986
 30
0.0
 10
63.3919023728563502
 20
95.10154814155986
 30
0.0
 10
63.6157758759988212
 20
95.3254216446946288
 30
0.0
 10
63.6157758759988212
 20
95.601583606184434
 30
0.0
 10
63.6157758759988212
 20
95.601583606184434
 30
0.0
 10
63.6157758759988212
 20
96.8516722677619271
 30
0.0
 10
63.6157758759988212
 20
96.8516722677619271
 30
0.0
 10
63.6157758759988212
 20
97.1278342292530112
 30
0.0
 10
63.8396493791374411
 20
97.35170773238778
 30
0.0
 10
64.1158113406233952
 20
97.35170773238778
 30
0.0
 10
64.1158113406233952
 20
97.35170773238778
 30
0.0
 10
81.1170171380553313
 20
97.35170773238778
 30
0.0
 10
81.1170171380553313
 20
97.35170773238778
 30
0.0
 10
81.3931790995425644
 20
97.35170773238778
 30
0.0
 10
81.6170526026799052
 20
97.1278342292530112
 30
0.0
 10
81.6170526026799052
 20
96.8516722677619271
 30
0.0
 10
81.6170526026799052
 20
96.8516722677619271
 30
0.0
 10
81.6170526026799052
 20
95.601583606184434
 30
0.0
 10
81.6170526026799052
 20
95.601583606184434
 30
0.0
 10
81.6170526026799052
 20
95.3254216446946288
 30
0.0
 10
81.8409261058223763
 20
95.10154814155986
 30
0.0
 10
82.1170880673109025
 20
95.10154814155986
 30
0.0
 10
82.1170880673109025
 20
95.10154814155986
 30
0.0
 10
100.1183647939971024
 20
95.10154814155986
 30
0.0
 10
100.1183647939971024
 20
95.10154814155986
 30
0.0
 10
100.3945267554856002
 20
95.10154814155986
 30
0.0
 10
100.6184002586307003
 20
94.8776746384148169
 30
0.0
 10
100.6184002586307003
 20
94.6015126769237327
 30
0.0
 10
100.6184002586307003
 20
94.6015126769237327
 30
0.0
 10
100.6184002586307003
 20
93.1014062830371785
 30
0.0
 10
100.6184002586307003
 20
93.1014062830371785
 30
0.0
 10
100.6184002586307003
 20
92.8252443215435221
 30
0.0
 10
100.8422737617667053
 20
92.6013708184049023
 30
0.0
 10
101.1184357232616975
 20
92.6013708184049023
 30
0.0
 10
101.1184357232616975
 20
92.6013708184049023
 30
0.0
 10
119.119712449938902
 20
92.6013708184049023
 30
0.0
 10
119.119712449938902
 20
92.6013708184049023
 30
0.0
 10
119.395874411435102
 20
92.6013708184049023
 30
0.0
 10
119.619747914573793
 20
92.3774973152637102
 30
0.0
 10
119.619747914573793
 20
92.101335353772626
 30
0.0
 10
119.619747914573793
 20
92.101335353772626
 30
0.0
 10
119.619747914573793
 20
90.8667415156759688
 30
0.0
 10
119.619747914573793
 20
90.8667415156759688
 30
0.0
 10
119.619747914573793
 20
90.8667415156759688
 30
0.0
 10
119.619052389250399
 20
74.6059805729778702
 30
0.0
 10
119.619052389250399
 20
74.6059805729778702
 30
0.0
 10
119.619052389250399
 20
74.6059805729778702
 30
0.0
 10
119.6192564256069062
 20
42.3131550714855322
 30
0.0
 10
119.6192564256069062
 20
42.3131550714855322
 30
0.0
 10
119.7013051080376016
 20
41.929807043760583
 30
0.0
 10
119.9041040075084936
 20
41.5828657717204493
 30
0.0
 10
120.1978741458661943
 20
41.3232760907695891
 30
0.0
 10
120.1978741458661943
 20
41.3232760907695891
 30
0.0
 10
139.2748233754086868
 20
30.2858983613088384
 30
0.0
 10
139.2748233754086868
 20
30.2858983613088384
 30
0.0
 10
139.8022408300614075
 20
29.88951889579576
 30
0.0
 10
139.9643285978418135
 20
29.1691288167884615
 30
0.0
 10
139.6575148569430951
 20
28.5850473322714009
 30
0.0
 10
139.6575148569430951
 20
28.5850473322714009
 30
0.0
 10
126.4202302335459933
 20
5.5451964262956226
 30
0.0
 10
126.4202302335459933
 20
5.5451964262956226
 30
0.0
 10
126.4154854778664969
 20
5.5380448392945683
 30
0.0
 10
126.4106354112018948
 20
5.5309636825029118
 30
0.0
 10
126.4056816186746062
 20
5.5239552702210739
 30
0.0
 10
126.1276743365057058
 20
5.1306425425078483
 30
0.0
 10
125.5834619419747042
 20
5.0371690102127964
 30
0.0
 10
125.1901492142551007
 20
5.3151762923881689
 30
0.0
 10
125.1901492142551007
 20
5.3151762923881689
 30
0.0
 10
110.4404800119100969
 20
13.8047006180165006
 30
0.0
 10
110.4404800119100969
 20
13.8047006180165006
 30
0.0
 10
110.3492468905940029
 20
13.8364196120440592
 30
0.0
 10
110.2555453382674955
 20
13.8605342346921105
 30
0.0
 10
110.1603346268500019
 20
13.8767976119246104
 30
0.0
 10
110.1603346268500019
 20
13.8767976119246104
 30
0.0
 10
73.3664674362877776
 20
19.3461752500863788
 30
0.0
 10
73.3664674362877776
 20
19.3461752500863788
 30
0.0
 10
73.2372200723516897
 20
19.3592957516533488
 30
0.0
 10
73.115079776960556
 20
19.4116415925383805
 30
0.0
 10
73.0164426110453064
 20
19.4961858894787596
 30
0.0
 10
73.0164426110453064
 20
19.4961858894787596
 30
0.0
 10
62.4656943073470217
 20
33.9554382763361815
 30
0.0
 10
62.4692479499774365
 20
33.9507644599207481
 30
0.0
  0
ENDBLK
  5
150
100
AcDbEntity
  8
0
100
AcDbBlockEnd
  0
BLOCK
  5
151
100
AcDbEntity
  8
0
100
AcDbBlockBegin
  2
block 51
 70
0
 10
0.0
 20
0.0
 30
0.0
  3
block 51
  1

  0
LWPOLYLINE
  5
152
100
AcDbEntity
  8
_U+5207_U+65AD_U+30D1_U+30B9
 62
1
420
16711680
370
9
 48
1.0
  6
ByLayer
100
AcDbPolyline
 90
5
 70
0
 10
-8.4086941884386128
 20
-17.870011951438201
 10
-8.4086941890604194
 20
-31.7209943216943593
 10
-22.2596765593153094
 20
-31.7209943210719203
 10
-22.2596765586934993
 20
-17.8700119508157513
 10
-8.4086941884386128
 20
-17.870011951438201
  0
ENDBLK
  5
153
100
AcDbEntity
  8
0
100
AcDbBlockEnd
  0
BLOCK
  5
154
100
AcDbEntity
  8
0
100
AcDbBlockBegin
  2
block 63
 70
0
 10
0.0
 20
0.0
 30
0.0
  3
block 63
  1

  0
LWPOLYLINE
  5
155
100
AcDbEntity
  8
_U+5207_U+65AD_U+30D1_U+30B9
 62
1
420
16711680
370
9
 48
1.0
  6
ByLayer
100
AcDbPolyline
 90
5
 70
0
 10
-84.41459284803652
 20
-13.1196750340401902
 10
-84.4145928486589696
 20
-26.9706574042925098
 10
-98.2655752189151315
 20
-26.9706574036706996
 10
-98.2655752182926818
 20
-13.1196750334183907
 10
-84.41459284803652
 20
-13.1196750340401902
  0
ENDBLK
  5
156
100
AcDbEntity
  8
0
100
AcDbBlockEnd
  0
BLOCK
  5
157
100
AcDbEntity
  8
0
100
AcDbBlockBegin
  2
block 59
 70
0
 10
0.0
 20
0.0
 30
0.0
  3
block 59
  1

  0
LWPOLYLINE
  5
158
100
AcDbEntity
  8
_U+5207_U+65AD_U+30D1_U+30B9
 62
1
420
16711680
370
9
 48
1.0
  6
ByLayer
100
AcDbPolyline
 90
5
 70
0
 10
-46.4118975378566532
 20
-51.1223703476403202
 10
-46.4118975384784633
 20
-64.9733527178913448
 10
-60.262879908732053
 20
-64.9733527172695489
 10
-60.26287990811025
 20
-51.12237034701851
 10
-46.4118975378566532
 20
-51.1223703476403202
  0
ENDBLK
  5
159
100
AcDbEntity
  8
0
100
AcDbBlockEnd
  0
BLOCK
  5
15A
100
AcDbEntity
  8
0
100
AcDbBlockBegin
  2
block 24
 70
0
 10
0.0
 20
0.0
 30
0.0
  3
block 24
  1

  0
LWPOLYLINE
  5
15B
100
AcDbEntity
  8
_U+5207_U+65AD_U+30D1_U+30B9
 62
1
420
16711680
370
9
 48
1.0
  6
ByLayer
100
AcDbPolyline
 90
5
 70
0
 10
46.6845234878209823
 20
73.9098325292188889
 10
46.6845234878209823
 20
60.0588501589665711
 10
60.5355058580745791
 20
60.0588501589665711
 10
60.5355058580745791
 20
73.9098325292188889
 10
46.6845234878209823
 20
73.9098325292188889
  0
ENDBLK
  5
15C
100
AcDbEntity
  8
0
100
AcDbBlockEnd
  0
BLOCK
  5
15D
100
AcDbEntity
  8
0
100
AcDbBlockBegin
  2
block 70
 70
0
 10
0.0
 20
0.0
 30
0.0
  3
block 70
  1

  0
LWPOLYLINE
  5
15E
100
AcDbEntity
  8
_U+5207_U+65AD_U+30D1_U+30B9
 62
1
420
16711680
370
9
 48
1.0
  6
ByLayer
100
AcDbPolyline
 90
5
 70
0
 10
-97.9430620746766181
 20
-71.948303682762301
 10
-94.3717587959754241
 20
-85.3309605756479641
 10
-107.7544156888585007
 20
-88.9022638543523698
 10
-111.3257189675584016
 20
-75.5196069614654277
 10
-97.9430620746766181
 20
-71.948303682762301
  0
ENDBLK
  5
15F
100
AcDbEntity
  8
0
100
AcDbBlockEnd
  0
BLOCK
  5
160
100
AcDbEntity
  8
0
100
AcDbBlockBegin
  2
block 64
 70
0
 10
0.0
 20
0.0
 30
0.0
  3
block 64
  1

  0
LWPOLYLINE
  5
161
100
AcDbEntity
  8
_U+5207_U+65AD_U+30D1_U+30B9
 62
1
420
16711680
370
9
 48
1.0
  6
ByLayer
100
AcDbPolyline
 90
5
 70
0
 10
-84.4145928488899813
 20
-32.1210226899832634
 10
-84.4145928495121041
 20
-45.9720050602355812
 10
-98.2655752197682659
 20
-45.9720050596137781
 10
-98.2655752191461431
 20
-32.1210226893614603
 10
-84.4145928488899813
 20
-32.1210226899832634
  0
ENDBLK
  5
162
100
AcDbEntity
  8
0
100
AcDbBlockEnd
  0
BLOCK
  5
163
100
AcDbEntity
  8
0
100
AcDbBlockBegin
  2
block 48
 70
0
 10
0.0
 20
0.0
 30
0.0
  3
block 48
  1

  0
SPLINE
  5
164
100
AcDbEntity
  8
_U+5207_U+65AD_U+30D1_U+30B9
 62
1
420
16711680
370
9
 48
1.0
  6
ByLayer
100
AcDbSpline
 70
8
 71
3
 72
20
 73
16
 74
0
 40
0.0
 40
0.0
 40
0.0
 40
0.0
 40
1.0
 40
1.0
 40
1.0
 40
2.0
 40
2.0
 40
2.0
 40
3.0
 40
3.0
 40
3.0
 40
4.0
 40
4.0
 40
4.0
 40
5.0
 40
5.0
 40
5.0
 40
5.0
 10
-23.7344051197857908
 20
-53.3181784897681084
 30
0.0
 10
-23.7344051197585095
 20
-52.7106221744936221
 30
0.0
 10
-24.2269268266469915
 20
-52.2181004675547698
 30
0.0
 10
-24.8344831419189092
 20
-52.2181004675271723
 30
0.0
 10
-25.4420394571998187
 20
-52.2181004675002214
 30
0.0
 10
-25.9345611641312885
 20
-52.7106221743947998
 30
0.0
 10
-25.9345611641585592
 20
-53.3181784896692932
 30
0.0
 10
-25.9345611641858298
 20
-53.9257348049489096
 30
0.0
 10
-25.442039457298641
 20
-54.418256511876848
 30
0.0
 10
-24.8344831420177314
 20
-54.4182565119037989
 30
0.0
 10
-24.2269268267458102
 20
-54.4182565119314035
 30
0.0
 10
-23.7344051198130614
 20
-53.9257348050477319
 30
0.0
 10
-23.7344051197857908
 20
-53.3181784897681084
 30
0.0
 10
-23.7344051197857908
 20
-53.3181784897681084
 30
0.0
 10
-23.7344051197857908
 20
-53.3181784897681084
 30
0.0
 10
-23.7344051197857908
 20
-53.3181784897681084
 30
0.0
  0
ENDBLK
  5
165
100
AcDbEntity
  8
0
100
AcDbBlockEnd
  0
BLOCK
  5
166
100
AcDbEntity
  8
0
100
AcDbBlockBegin
  2
block 61
 70
0
 10
0.0
 20
0.0
 30
0.0
  3
block 61
  1

  0
LWPOLYLINE
  5
167
100
AcDbEntity
  8
_U+5207_U+65AD_U+30D1_U+30B9
 62
1
420
16711680
370
9
 48
1.0
  6
ByLayer
100
AcDbPolyline
 90
5
 70
0
 10
-65.4132451928390992
 20
-29.7458542338414311
 10
-65.4132451934609094
 20
-43.5968366040963176
 10
-79.2642275637157923
 20
-43.5968366034745074
 10
-79.2642275630939821
 20
-29.7458542332196316
 10
-65.4132451928390992
 20
-29.7458542338414311
  0
ENDBLK
  5
168
100
AcDbEntity
  8
0
100
AcDbBlockEnd
  0
BLOCK
  5
169
100
AcDbEntity
  8
0
100
AcDbBlockBegin
  2
block 52
 70
0
 10
0.0
 20
0.0
 30
0.0
  3
block 52
  1

  0
LWPOLYLINE
  5
16A
100
AcDbEntity
  8
_U+5207_U+65AD_U+30D1_U+30B9
 62
1
420
16711680
370
9
 48
1.0
  6
ByLayer
100
AcDbPolyline
 90
5
 70
0
 10
-8.4086941892917526
 20
-36.8713596073812724
 10
-8.4086941899135574
 20
-50.7223419776412925
 10
-22.2596765601684403
 20
-50.7223419770188428
 10
-22.2596765595466408
 20
-36.8713596067588227
 10
-8.4086941892917526
 20
-36.8713596073812724
  0
ENDBLK
  5
16B
100
AcDbEntity
  8
0
100
AcDbBlockEnd
  0
BLOCK
  5
16C
100
AcDbEntity
  8
0
100
AcDbBlockBegin
  2
block 19
 70
0
 10
0.0
 20
0.0
 30
0.0
  3
block 19
  1

  0
LWPOLYLINE
  5
16D
100
AcDbEntity
  8
_U+5207_U+65AD_U+30D1_U+30B9
 62
1
420
16711680
370
9
 48
1.0
  6
ByLayer
100
AcDbPolyline
 90
5
 70
0
 10
8.6813201398958562
 20
50.1581479592865165
 10
8.6813201398958562
 20
36.3071655890316265
 10
22.532302510150739
 20
36.3071655890316265
 10
22.532302510150739
 20
50.1581479592865165
 10
8.6813201398958562
 20
50.1581479592865165
  0
ENDBLK
  5
16E
100
AcDbEntity
  8
0
100
AcDbBlockEnd
  0
BLOCK
  5
16F
100
AcDbEntity
  8
0
100
AcDbBlockBegin
  2
block 44
 70
0
 10
0.0
 20
0.0
 30
0.0
  3
block 44
  1

  0
INSERT
  5
170
100
AcDbEntity
  8
_U+5207_U+65AD_U+30D1_U+30B9
 62
256
370
-1
 48
1.0
  6
ByLayer
100
AcDbBlockReference
  2
block 45
 10
0.0
 20
0.0
 30
0.0
  0
INSERT
  5
171
100
AcDbEntity
  8
_U+5207_U+65AD_U+30D1_U+30B9
 62
256
370
-1
 48
1.0
  6
ByLayer
100
AcDbBlockReference
  2
block 46
 10
0.0
 20
0.0
 30
0.0
  0
INSERT
  5
172
100
AcDbEntity
  8
_U+5207_U+65AD_U+30D1_U+30B9
 62
256
370
-1
 48
1.0
  6
ByLayer
100
AcDbBlockReference
  2
block 47
 10
0.0
 20
0.0
 30
0.0
  0
INSERT
  5
173
100
AcDbEntity
  8
_U+5207_U+65AD_U+30D1_U+30B9
 62
256
370
-1
 48
1.0
  6
ByLayer
100
AcDbBlockReference
  2
block 48
 10
0.0
 20
0.0
 30
0.0
  0
INSERT
  5
174
100
AcDbEntity
  8
_U+5207_U+65AD_U+30D1_U+30B9
 62
256
370
-1
 48
1.0
  6
ByLayer
100
AcDbBlockReference
  2
block 49
 10
0.0
 20
0.0
 30
0.0
  0
INSERT
  5
175
100
AcDbEntity
  8
_U+5207_U+65AD_U+30D1_U+30B9
 62
256
370
-1
 48
1.0
  6
ByLayer
100
AcDbBlockReference
  2
block 50
 10
0.0
 20
0.0
 30
0.0
  0
INSERT
  5
176
100
AcDbEntity
  8
_U+5207_U+65AD_U+30D1_U+30B9
 62
256
370
-1
 48
1.0
  6
ByLayer
100
AcDbBlockReference
  2
block 51
 10
0.0
 20
0.0
 30
0.0
  0
INSERT
  5
177
100
AcDbEntity
  8
_U+5207_U+65AD_U+30D1_U+30B9
 62
256
370
-1
 48
1.0
  6
ByLayer
100
AcDbBlockReference
  2
block 52
 10
0.0
 20
0.0
 30
0.0
  0
INSERT
  5
178
100
AcDbEntity
  8
_U+5207_U+65AD_U+30D1_U+30B9
 62
256
370
-1
 48
1.0
  6
ByLayer
100
AcDbBlockReference
  2
block 53
 10
0.0
 20
0.0
 30
0.0
  0
INSERT
  5
179
100
AcDbEntity
  8
_U+5207_U+65AD_U+30D1_U+30B9
 62
256
370
-1
 48
1.0
  6
ByLayer
100
AcDbBlockReference
  2
block 54
 10
0.0
 20
0.0
 30
0.0
  0
INSERT
  5
17A
100
AcDbEntity
  8
_U+5207_U+65AD_U+30D1_U+30B9
 62
256
370
-1
 48
1.0
  6
ByLayer
100
AcDbBlockReference
  2
block 55
 10
0.0
 20
0.0
 30
0.0
  0
INSERT
  5
17B
100
AcDbEntity
  8
_U+5207_U+65AD_U+30D1_U+30B9
 62
256
370
-1
 48
1.0
  6
ByLayer
100
AcDbBlockReference
  2
block 56
 10
0.0
 20
0.0
 30
0.0
  0
INSERT
  5
17C
100
AcDbEntity
  8
_U+5207_U+65AD_U+30D1_U+30B9
 62
256
370
-1
 48
1.0
  6
ByLayer
100
AcDbBlockReference
  2
block 57
 10
0.0
 20
0.0
 30
0.0
  0
INSERT
  5
17D
100
AcDbEntity
  8
_U+5207_U+65AD_U+30D1_U+30B9
 62
256
370
-1
 48
1.0
  6
ByLayer
100
AcDbBlockReference
  2
block 58
 10
0.0
 20
0.0
 30
0.0
  0
INSERT
  5
17E
100
AcDbEntity
  8
_U+5207_U+65AD_U+30D1_U+30B9
 62
256
370
-1
 48
1.0
  6
ByLayer
100
AcDbBlockReference
  2
block 59
 10
0.0
 20
0.0
 30
0.0
  0
INSERT
  5
17F
100
AcDbEntity
  8
_U+5207_U+65AD_U+30D1_U+30B9
 62
256
370
-1
 48
1.0
  6
ByLayer
100
AcDbBlockReference
  2
block 60
 10
0.0
 20
0.0
 30
0.0
  0
INSERT
  5
180
100
AcDbEntity
  8
_U+5207_U+65AD_U+30D1_U+30B9
 62
256
370
-1
 48
1.0
  6
ByLayer
100
AcDbBlockReference
  2
block 61
 10
0.0
 20
0.0
 30
0.0
  0
INSERT
  5
181
100
AcDbEntity
  8
_U+5207_U+65AD_U+30D1_U+30B9
 62
256
370
-1
 48
1.0
  6
ByLayer
100
AcDbBlockReference
  2
block 62
 10
0.0
 20
0.0
 30
0.0
  0
INSERT
  5
182
100
AcDbEntity
  8
_U+5207_U+65AD_U+30D1_U+30B9
 62
256
370
-1
 48
1.0
  6
ByLayer
100
AcDbBlockReference
  2
block 63
 10
0.0
 20
0.0
 30
0.0
  0
INSERT
  5
183
100
AcDbEntity
  8
_U+5207_U+65AD_U+30D1_U+30B9
 62
256
370
-1
 48
1.0
  6
ByLayer
100
AcDbBlockReference
  2
block 64
 10
0.0
 20
0.0
 30
0.0
  0
INSERT
  5
184
100
AcDbEntity
  8
_U+5207_U+65AD_U+30D1_U+30B9
 62
256
370
-1
 48
1.0
  6
ByLayer
100
AcDbBlockReference
  2
block 65
 10
0.0
 20
0.0
 30
0.0
  0
INSERT
  5
185
100
AcDbEntity
  8
_U+5207_U+65AD_U+30D1_U+30B9
 62
256
370
-1
 48
1.0
  6
ByLayer
100
AcDbBlockReference
  2
block 66
 10
0.0
 20
0.0
 30
0.0
  0
INSERT
  5
186
100
AcDbEntity
  8
_U+5207_U+65AD_U+30D1_U+30B9
 62
256
370
-1
 48
1.0
  6
ByLayer
100
AcDbBlockReference
  2
block 67
 10
0.0
 20
0.0
 30
0.0
  0
INSERT
  5
187
100
AcDbEntity
  8
_U+5207_U+65AD_U+30D1_U+30B9
 62
256
370
-1
 48
1.0
  6
ByLayer
100
AcDbBlockReference
  2
block 68
 10
0.0
 20
0.0
 30
0.0
  0
INSERT
  5
188
100
AcDbEntity
  8
_U+5207_U+65AD_U+30D1_U+30B9
 62
256
370
-1
 48
1.0
  6
ByLayer
100
AcDbBlockReference
  2
block 69
 10
0.0
 20
0.0
 30
0.0
  0
INSERT
  5
189
100
AcDbEntity
  8
_U+5207_U+65AD_U+30D1_U+30B9
 62
256
370
-1
 48
1.0
  6
ByLayer
100
AcDbBlockReference
  2
block 70
 10
0.0
 20
0.0
 30
0.0
  0
INSERT
  5
18A
100
AcDbEntity
  8
_U+5207_U+65AD_U+30D1_U+30B9
 62
256
370
-1
 48
1.0
  6
ByLayer
100
AcDbBlockReference
  2
block 71
 10
0.0
 20
0.0
 30
0.0
  0
ENDBLK
  5
18B
100
AcDbEntity
  8
0
100
AcDbBlockEnd
  0
BLOCK
  5
18C
100
AcDbEntity
  8
0
100
AcDbBlockBegin
  2
block 67
 70
0
 10
0.0
 20
0.0
 30
0.0
  3
block 67
  1

  0
LWPOLYLINE
  5
18D
100
AcDbEntity
  8
_U+5207_U+65AD_U+30D1_U+30B9
 62
1
420
16711680
370
9
 48
1.0
  6
ByLayer
100
AcDbPolyline
 90
5
 70
0
 10
-103.4159405049447003
 20
-34.4961911461244526
 10
-103.4159405055664962
 20
-48.3471735163831866
 10
-117.2669228758239939
 20
-48.3471735157613764
 10
-117.2669228752021979
 20
-34.4961911455026495
 10
-103.4159405049447003
 20
-34.4961911461244526
  0
ENDBLK
  5
18E
100
AcDbEntity
  8
0
100
AcDbBlockEnd
  0
BLOCK
  5
18F
100
AcDbEntity
  8
0
100
AcDbBlockBegin
  2
block 14
 70
0
 10
0.0
 20
0.0
 30
0.0
  3
block 14
  1

  0
SPLINE
  5
190
100
AcDbEntity
  8
_U+5207_U+65AD_U+30D1_U+30B9
 62
1
420
16711680
370
9
 48
1.0
  6
ByLayer
100
AcDbSpline
 70
8
 71
3
 72
20
 73
16
 74
0
 40
0.0
 40
0.0
 40
0.0
 40
0.0
 40
1.0
 40
1.0
 40
1.0
 40
2.0
 40
2.0
 40
2.0
 40
3.0
 40
3.0
 40
3.0
 40
4.0
 40
4.0
 40
4.0
 40
5.0
 40
5.0
 40
5.0
 40
5.0
 10
24.0070310696516209
 20
52.7126767321580587
 30
0.0
 10
24.0070310696516209
 20
53.3202330474325379
 30
0.0
 10
24.4995527765622292
 20
53.8127547543495766
 30
0.0
 10
25.1071090918341504
 20
53.8127547543495766
 30
0.0
 10
25.71466540711506
 20
53.8127547543495766
 30
0.0
 10
26.2071871140243893
 20
53.3202330474325379
 30
0.0
 10
26.2071871140243893
 20
52.7126767321580587
 30
0.0
 10
26.2071871140243893
 20
52.1051204168784423
 30
0.0
 10
25.71466540711506
 20
51.61259870997295
 30
0.0
 10
25.1071090918341504
 20
51.61259870997295
 30
0.0
 10
24.4995527765622292
 20
51.61259870997295
 30
0.0
 10
24.0070310696516209
 20
52.1051204168784423
 30
0.0
 10
24.0070310696516209
 20
52.7126767321580587
 30
0.0
 10
24.0070310696516209
 20
52.7126767321580587
 30
0.0
 10
24.0070310696516209
 20
52.7126767321580587
 30
0.0
 10
24.0070310696516209
 20
52.7126767321580587
 30
0.0
  0
ENDBLK
  5
191
100
AcDbEntity
  8
0
100
AcDbBlockEnd
  0
BLOCK
  5
192
100
AcDbEntity
  8
0
100
AcDbBlockBegin
  2
block 30
 70
0
 10
0.0
 20
0.0
 30
0.0
  3
block 30
  1

  0
LWPOLYLINE
  5
193
100
AcDbEntity
  8
_U+5207_U+65AD_U+30D1_U+30B9
 62
1
420
16711680
370
9
 48
1.0
  6
ByLayer
100
AcDbPolyline
 90
5
 70
0
 10
84.6872187997071251
 20
73.9098325292188889
 10
84.6872187997071251
 20
60.0588501589665711
 10
98.5382011699632869
 20
60.0588501589665711
 10
98.5382011699632869
 20
73.9098325292188889
 10
84.6872187997071251
 20
73.9098325292188889
  0
ENDBLK
  5
194
100
AcDbEntity
  8
0
100
AcDbBlockEnd
  0
BLOCK
  5
195
100
AcDbEntity
  8
0
100
AcDbBlockBegin
  2
block 22
 70
0
 10
0.0
 20
0.0
 30
0.0
  3
block 22
  1

  0
LWPOLYLINE
  5
196
100
AcDbEntity
  8
_U+5207_U+65AD_U+30D1_U+30B9
 62
1
420
16711680
370
9
 48
1.0
  6
ByLayer
100
AcDbPolyline
 90
5
 70
0
 10
27.6831758318689189
 20
50.1581479592865165
 10
27.6831758318689189
 20
36.3071655890316265
 10
41.5341582021254112
 20
36.3071655890316265
 10
41.5341582021254112
 20
50.1581479592865165
 10
27.6831758318689189
 20
50.1581479592865165
  0
ENDBLK
  5
197
100
AcDbEntity
  8
0
100
AcDbBlockEnd
  0
BLOCK
  5
198
100
AcDbEntity
  8
0
100
AcDbBlockBegin
  2
block 6
 70
0
 10
0.0
 20
0.0
 30
0.0
  3
block 6
  1

  0
SPLINE
  5
199
100
AcDbEntity
  8
_U+5207_U+65AD_U+30D1_U+30B9
 62
1
420
16711680
370
9
 48
1.0
  6
ByLayer
100
AcDbSpline
 70
8
 71
3
 72
20
 73
16
 74
0
 40
0.0
 40
0.0
 40
0.0
 40
0.0
 40
1.0
 40
1.0
 40
1.0
 40
2.0
 40
2.0
 40
2.0
 40
3.0
 40
3.0
 40
3.0
 40
4.0
 40
4.0
 40
4.0
 40
5.0
 40
5.0
 40
5.0
 40
5.0
 10
-49.8755337284500015
 20
77.8183206330914174
 30
0.0
 10
-49.8755337284500015
 20
78.425876948371041
 30
0.0
 10
-49.3830120215419512
 20
78.918398655272668
 30
0.0
 10
-48.7754557062623277
 20
78.918398655272668
 30
0.0
 10
-48.1678993909865625
 20
78.918398655272668
 30
0.0
 10
-47.6753776840785122
 20
78.425876948371041
 30
0.0
 10
-47.6753776840785122
 20
77.8183206330914174
 30
0.0
 10
-47.6753776840785122
 20
77.2107643178130871
 30
0.0
 10
-48.1678993909865625
 20
76.7182426108998925
 30
0.0
 10
-48.7754557062623277
 20
76.7182426108998925
 30
0.0
 10
-49.3830120215419512
 20
76.7182426108998925
 30
0.0
 10
-49.8755337284500015
 20
77.2107643178130871
 30
0.0
 10
-49.8755337284500015
 20
77.8183206330914174
 30
0.0
 10
-49.8755337284500015
 20
77.8183206330914174
 30
0.0
 10
-49.8755337284500015
 20
77.8183206330914174
 30
0.0
 10
-49.8755337284500015
 20
77.8183206330914174
 30
0.0
  0
ENDBLK
  5
19A
100
AcDbEntity
  8
0
100
AcDbBlockEnd
  0
BLOCK
  5
19B
100
AcDbEntity
  8
0
100
AcDbBlockBegin
  2
block 53
 70
0
 10
0.0
 20
0.0
 30
0.0
  3
block 53
  1

  0
LWPOLYLINE
  5
19C
100
AcDbEntity
  8
_U+5207_U+65AD_U+30D1_U+30B9
 62
1
420
16711680
370
9
 48
1.0
  6
ByLayer
100
AcDbPolyline
 90
5
 70
0
 10
-8.4086941901445691
 20
-55.8727072633281878
 10
-8.4086941907666972
 20
-69.7236896335830778
 10
-22.2596765610215783
 20
-69.7236896329606282
 10
-22.2596765603994591
 20
-55.8727072627057524
 10
-8.4086941901445691
 20
-55.8727072633281878
  0
ENDBLK
  5
19D
100
AcDbEntity
  8
0
100
AcDbBlockEnd
  0
BLOCK
  5
19E
100
AcDbEntity
  8
0
100
AcDbBlockBegin
  2
block 41
 70
0
 10
0.0
 20
0.0
 30
0.0
  3
block 41
  1

  0
SPLINE
  5
19F
100
AcDbEntity
  8
_U+5207_U+65AD_U+30D1_U+30B9
 62
1
420
16711680
370
9
 48
1.0
  6
ByLayer
100
AcDbSpline
 70
8
 71
3
 72
20
 73
16
 74
0
 40
0.0
 40
0.0
 40
0.0
 40
0.0
 40
1.0
 40
1.0
 40
1.0
 40
2.0
 40
2.0
 40
2.0
 40
3.0
 40
3.0
 40
3.0
 40
4.0
 40
4.0
 40
4.0
 40
5.0
 40
5.0
 40
5.0
 40
5.0
 10
126.1699820864385941
 20
-33.2460444253793526
 30
0.0
 10
126.1699820864654953
 20
-32.6384881101035802
 30
0.0
 10
125.6774603795767007
 20
-32.1459664031679395
 30
0.0
 10
125.0699040643009994
 20
-32.1459664031409815
 30
0.0
 10
124.4623477490213048
 20
-32.1459664031133912
 30
0.0
 10
123.9698260420914977
 20
-32.6384881100047579
 30
0.0
 10
123.9698260420644971
 20
-33.2460444252805303
 30
0.0
 10
123.9698260420375959
 20
-33.8536007405550166
 30
0.0
 10
124.4623477489224967
 20
-34.3461224474861666
 30
0.0
 10
125.069904064202106
 20
-34.346122447513757
 30
0.0
 10
125.6774603794779068
 20
-34.3461224475407079
 30
0.0
 10
126.1699820864115935
 20
-33.8536007406538388
 30
0.0
 10
126.1699820864385941
 20
-33.2460444253793526
 30
0.0
 10
126.1699820864385941
 20
-33.2460444253793526
 30
0.0
 10
126.1699820864385941
 20
-33.2460444253793526
 30
0.0
 10
126.1699820864385941
 20
-33.2460444253793526
 30
0.0
  0
ENDBLK
  5
1A0
100
AcDbEntity
  8
0
100
AcDbBlockEnd
  0
BLOCK
  5
1A1
100
AcDbEntity
  8
0
100
AcDbBlockBegin
  2
block 33
 70
0
 10
0.0
 20
0.0
 30
0.0
  3
block 33
  1

  0
LWPOLYLINE
  5
1A2
100
AcDbEntity
  8
_U+5207_U+65AD_U+30D1_U+30B9
 62
1
420
16711680
370
9
 48
1.0
  6
ByLayer
100
AcDbPolyline
 90
5
 70
0
 10
103.6885664556553053
 20
71.5346640722242313
 10
103.6885664556553053
 20
57.6836817019654973
 10
117.539548825912803
 20
57.6836817019654973
 10
117.539548825912803
 20
71.5346640722242313
 10
103.6885664556553053
 20
71.5346640722242313
  0
ENDBLK
  5
1A3
100
AcDbEntity
  8
0
100
AcDbBlockEnd
  0
BLOCK
  5
1A4
100
AcDbEntity
  8
0
100
AcDbBlockBegin
  2
block 73
 70
0
 10
0.0
 20
0.0
 30
0.0
  3
block 73
  1

  0
SPLINE
  5
1A5
100
AcDbEntity
  8
_U+5207_U+65AD_U+30D1_U+30B9
 62
1
420
16711680
370
9
 48
1.0
  6
ByLayer
100
AcDbSpline
 70
8
 71
3
 72
32
 73
28
 74
0
 40
0.0
 40
0.0
 40
0.0
 40
0.0
 40
1.0
 40
1.0
 40
1.0
 40
2.0
 40
2.0
 40
2.0
 40
3.0
 40
3.0
 40
3.0
 40
4.0
 40
4.0
 40
4.0
 40
5.0
 40
5.0
 40
5.0
 40
6.0
 40
6.0
 40
6.0
 40
7.0
 40
7.0
 40
7.0
 40
8.0
 40
8.0
 40
8.0
 40
9.0
 40
9.0
 40
9.0
 40
9.0
 10
122.8562712132562069
 20
91.8213706903654412
 30
0.0
 10
122.8562712132562069
 20
91.8213706903654412
 30
0.0
 10
122.8562702843417043
 20
44.4647839694360272
 30
0.0
 10
122.8562702843417043
 20
44.4647839694360272
 30
0.0
 10
122.9161198665076
 20
43.9420330453728667
 30
0.0
 10
123.1504764371859011
 20
43.6836330518147875
 30
0.0
 10
123.4951607625022945
 20
43.3830198622255168
 30
0.0
 10
123.4951607625022945
 20
43.3830198622255168
 30
0.0
 10
142.3349506191474063
 20
32.5266044532826228
 30
0.0
 10
142.3349506191474063
 20
32.5266044532826228
 30
0.0
 10
142.7396544397890068
 20
32.3564875802144201
 30
0.0
 10
143.2056386821022045
 20
32.5466578754213884
 30
0.0
 10
143.3757555551717076
 20
32.9513616960674867
 30
0.0
 10
143.4008161714453138
 20
33.0109802804425101
 30
0.0
 10
143.4185074412274901
 20
33.073434395479218
 30
0.0
 10
143.4284370580309087
 20
33.1373391120547325
 30
0.0
 10
143.4284370580309087
 20
33.1373391120547325
 30
0.0
 10
143.427268385881888
 20
91.8110614025824248
 30
0.0
 10
143.427268385881888
 20
91.8110614025824248
 30
0.0
 10
143.4272682216364103
 20
92.08722336407223
 30
0.0
 10
143.2033945853472119
 20
92.3110967340679167
 30
0.0
 10
142.9272326238587141
 20
92.3110965698212027
 30
0.0
 10
142.9272326238587141
 20
92.3110965698212027
 30
0.0
 10
123.3564986721562065
 20
92.3219041185666498
 30
0.0
 10
123.3564986721562065
 20
92.3219041185666498
 30
0.0
 10
123.0802617038453945
 20
92.321541177435023
 30
0.0
 10
122.8564652427912023
 20
92.0976078289646267
 30
0.0
 10
122.8562712132562069
 20
91.8213706903654412
 30
0.0
  0
ENDBLK
  5
1A6
100
AcDbEntity
  8
0
100
AcDbBlockEnd
  0
BLOCK
  5
1A7
100
AcDbEntity
  8
0
100
AcDbBlockBegin
  2
block 3
 70
0
 10
0.0
 20
0.0
 30
0.0
  3
block 3
  1

  0
SPLINE
  5
1A8
100
AcDbEntity
  8
_U+5F6B_U+523B_U+30D1_U+30B9
 62
256
370
0
 48
1.0
  6
ByLayer
100
AcDbSpline
 70
8
 71
3
 72
35
 73
31
 74
0
 40
0.0
 40
0.0
 40
0.0
 40
0.0
 40
1.0
 40
1.0
 40
1.0
 40
2.0
 40
2.0
 40
2.0
 40
3.0
 40
3.0
 40
3.0
 40
4.0
 40
4.0
 40
4.0
 40
5.0
 40
5.0
 40
5.0
 40
6.0
 40
6.0
 40
6.0
 40
7.0
 40
7.0
 40
7.0
 40
8.0
 40
8.0
 40
8.0
 40
9.0
 40
9.0
 40
9.0
 40
10.0
 40
10.0
 40
10.0
 40
10.0
 10
121.7579666817379973
 20
-65.9391490852747779
 30
0.0
 10
121.5151003933695932
 20
-67.2477715227424113
 30
0.0
 10
120.3961129587626999
 20
-67.8885136028788736
 30
0.0
 10
119.2771952087475
 20
-67.8971312640813665
 30
0.0
 10
117.9879218596420003
 20
-67.9164184105834892
 30
0.0
 10
116.685725890098297
 20
-67.0645629878042939
 30
0.0
 10
116.685725890098297
 20
-65.3437716744900996
 30
0.0
 10
116.685725890098297
 20
-63.6312186284876802
 30
0.0
 10
117.970756221828097
 20
-62.7902572302483506
 30
0.0
 10
119.2604863921470013
 20
-62.7902572302483506
 30
0.0
 10
120.3880218033653051
 20
-62.7902572302483506
 30
0.0
 10
121.5151003933695932
 20
-63.438935611134923
 30
0.0
 10
121.7579666817379973
 20
-64.7589863216797994
 30
0.0
 10
121.7579666817379973
 20
-64.7589863216797994
 30
0.0
 10
120.8355672237202043
 20
-64.7589863216797994
 30
0.0
 10
120.8355672237202043
 20
-64.7589863216797994
 30
0.0
 10
120.6184145497766025
 20
-63.9707219604088166
 30
0.0
 10
119.9476538959795988
 20
-63.5866117235331672
 30
0.0
 10
119.269026626025493
 20
-63.5866117235331672
 30
0.0
 10
118.4360015285350016
 20
-63.5866117235331672
 30
0.0
 10
117.5861979298529008
 20
-64.1630049777634923
 30
0.0
 10
117.5861979298529008
 20
-65.3437716744900996
 30
0.0
 10
117.5861979298529008
 20
-66.5327069539380602
 30
0.0
 10
118.4278406885458992
 20
-67.1090991847848386
 30
0.0
 10
119.2771952087475
 20
-67.1090991847848386
 30
0.0
 10
119.9566519690790045
 20
-67.1090991847848386
 30
0.0
 10
120.6184145497766025
 20
-66.7245331500774057
 30
0.0
 10
120.8355672237202043
 20
-65.9391490852747779
 30
0.0
 10
120.8355672237202043
 20
-65.9391490852747779
 30
0.0
 10
121.7579666817379973
 20
-65.9391490852747779
 30
0.0
 10
121.7579666817379973
 20
-65.9391490852747779
 30
0.0
  0
HATCH
  5
1A9
100
AcDbEntity
  8
_U+5F6B_U+523B_U+30D1_U+30B9
 62
7
420
16777215
370
-1
 48
1.0
  6
ByLayer
100
AcDbHatch
 10
0.0
 20
0.0
 30
0.0
210
0.0
220
0.0
230
1.0
  2
SOLID
 70
1
 71
0
 91
1
 92
1
 93
1
 72
4
 94
3
 73
0
 74
0
 95
35
 96
31
 40
0.0
 40
0.0
 40
0.0
 40
0.0
 40
1.0
 40
1.0
 40
1.0
 40
2.0
 40
2.0
 40
2.0
 40
3.0
 40
3.0
 40
3.0
 40
4.0
 40
4.0
 40
4.0
 40
5.0
 40
5.0
 40
5.0
 40
6.0
 40
6.0
 40
6.0
 40
7.0
 40
7.0
 40
7.0
 40
8.0
 40
8.0
 40
8.0
 40
9.0
 40
9.0
 40
9.0
 40
10.0
 40
10.0
 40
10.0
 40
10.0
 10
121.7579666817379973
 20
-65.9391490852747779
 10
121.5151003933695932
 20
-67.2477715227424113
 10
120.3961129587626999
 20
-67.8885136028788736
 10
119.2771952087475
 20
-67.8971312640813665
 10
117.9879218596420003
 20
-67.9164184105834892
 10
116.685725890098297
 20
-67.0645629878042939
 10
116.685725890098297
 20
-65.3437716744900996
 10
116.685725890098297
 20
-63.6312186284876802
 10
117.970756221828097
 20
-62.7902572302483506
 10
119.2604863921470013
 20
-62.7902572302483506
 10
120.3880218033653051
 20
-62.7902572302483506
 10
121.5151003933695932
 20
-63.438935611134923
 10
121.7579666817379973
 20
-64.7589863216797994
 10
121.7579666817379973
 20
-64.7589863216797994
 10
120.8355672237202043
 20
-64.7589863216797994
 10
120.8355672237202043
 20
-64.7589863216797994
 10
120.6184145497766025
 20
-63.9707219604088166
 10
119.9476538959795988
 20
-63.5866117235331672
 10
119.269026626025493
 20
-63.5866117235331672
 10
118.4360015285350016
 20
-63.5866117235331672
 10
117.5861979298529008
 20
-64.1630049777634923
 10
117.5861979298529008
 20
-65.3437716744900996
 10
117.5861979298529008
 20
-66.5327069539380602
 10
118.4278406885458992
 20
-67.1090991847848386
 10
119.2771952087475
 20
-67.1090991847848386
 10
119.9566519690790045
 20
-67.1090991847848386
 10
120.6184145497766025
 20
-66.7245331500774057
 10
120.8355672237202043
 20
-65.9391490852747779
 10
120.8355672237202043
 20
-65.9391490852747779
 10
121.7579666817379973
 20
-65.9391490852747779
 10
121.7579666817379973
 20
-65.9391490852747779
 97
0
 75
0
 76
1
 98
0
1001
ACAD
1010
0.0
1020
0.0
1030
0
  0
SPLINE
  5
1AA
100
AcDbEntity
  8
_U+5F6B_U+523B_U+30D1_U+30B9
 62
256
370
0
 48
1.0
  6
ByLayer
100
AcDbSpline
 70
8
 71
3
 72
17
 73
13
 74
0
 40
0.0
 40
0.0
 40
0.0
 40
0.0
 40
1.0
 40
1.0
 40
1.0
 40
2.0
 40
2.0
 40
2.0
 40
3.0
 40
3.0
 40
3.0
 40
4.0
 40
4.0
 40
4.0
 40
4.0
 10
124.8116616414442035
 20
-67.9164184105834892
 30
0.0
 10
123.4786108831358007
 20
-67.9164184105834892
 30
0.0
 10
122.1554630796165952
 20
-67.0542032118024309
 30
0.0
 10
122.1554630796165952
 20
-65.3520873691283839
 30
0.0
 10
122.1554630796165952
 20
-63.6417332591387321
 30
0.0
 10
123.4919206401958007
 20
-62.7902572302483506
 30
0.0
 10
124.8365390407660982
 20
-62.7902572302483506
 30
0.0
 10
126.1735242822098968
 20
-62.7902572302483506
 30
0.0
 10
127.4928859228979974
 20
-63.6503509203425111
 30
0.0
 10
127.4928859228979974
 20
-65.3520873691283839
 30
0.0
 10
127.4928859228979974
 20
-67.0645629878042939
 30
0.0
 10
126.1564348966610964
 20
-67.9164184105834892
 30
0.0
 10
124.8116616414442035
 20
-67.9164184105834892
 30
0.0
  0
SPLINE
  5
1AB
100
AcDbEntity
  8
_U+5F6B_U+523B_U+30D1_U+30B9
 62
256
370
0
 48
1.0
  6
ByLayer
100
AcDbSpline
 70
8
 71
3
 72
17
 73
13
 74
0
 40
0.0
 40
0.0
 40
0.0
 40
0.0
 40
1.0
 40
1.0
 40
1.0
 40
2.0
 40
2.0
 40
2.0
 40
3.0
 40
3.0
 40
3.0
 40
4.0
 40
4.0
 40
4.0
 40
4.0
 10
124.8116616414442035
 20
-67.1090991847848386
 30
0.0
 10
125.7074415853413001
 20
-67.119838354675494
 30
0.0
 10
126.6048165321201964
 20
-66.5237098988448281
 30
0.0
 10
126.6048165321201964
 20
-65.3520873691283839
 30
0.0
 10
126.6048165321201964
 20
-64.179566682446449
 30
0.0
 10
125.7163689558410056
 20
-63.5866117235331672
 30
0.0
 10
124.8365390407660982
 20
-63.5866117235331672
 30
0.0
 10
123.9400003090893989
 20
-63.5866117235331672
 30
0.0
 10
123.0520018112925982
 20
-64.1713980997257494
 30
0.0
 10
123.0520018112925982
 20
-65.3520873691283839
 30
0.0
 10
123.0520018112925982
 20
-66.5155413161234748
 30
0.0
 10
123.9313749051534046
 20
-67.1005589509069296
 30
0.0
 10
124.8116616414442035
 20
-67.1090991847848386
 30
0.0
  0
HATCH
  5
1AC
100
AcDbEntity
  8
_U+5F6B_U+523B_U+30D1_U+30B9
 62
7
420
16777215
370
-1
 48
1.0
  6
ByLayer
100
AcDbHatch
 10
0.0
 20
0.0
 30
0.0
210
0.0
220
0.0
230
1.0
  2
SOLID
 70
1
 71
0
 91
2
 92
1
 93
1
 72
4
 94
3
 73
0
 74
0
 95
17
 96
13
 40
0.0
 40
0.0
 40
0.0
 40
0.0
 40
1.0
 40
1.0
 40
1.0
 40
2.0
 40
2.0
 40
2.0
 40
3.0
 40
3.0
 40
3.0
 40
4.0
 40
4.0
 40
4.0
 40
4.0
 10
124.8116616414442035
 20
-67.9164184105834892
 10
123.4786108831358007
 20
-67.9164184105834892
 10
122.1554630796165952
 20
-67.0542032118024309
 10
122.1554630796165952
 20
-65.3520873691283839
 10
122.1554630796165952
 20
-63.6417332591387321
 10
123.4919206401958007
 20
-62.7902572302483506
 10
124.8365390407660982
 20
-62.7902572302483506
 10
126.1735242822098968
 20
-62.7902572302483506
 10
127.4928859228979974
 20
-63.6503509203425111
 10
127.4928859228979974
 20
-65.3520873691283839
 10
127.4928859228979974
 20
-67.0645629878042939
 10
126.1564348966610964
 20
-67.9164184105834892
 10
124.8116616414442035
 20
-67.9164184105834892
 97
0
 92
1
 93
1
 72
4
 94
3
 73
0
 74
0
 95
17
 96
13
 40
0.0
 40
0.0
 40
0.0
 40
0.0
 40
1.0
 40
1.0
 40
1.0
 40
2.0
 40
2.0
 40
2.0
 40
3.0
 40
3.0
 40
3.0
 40
4.0
 40
4.0
 40
4.0
 40
4.0
 10
124.8116616414442035
 20
-67.1090991847848386
 10
125.7074415853413001
 20
-67.119838354675494
 10
126.6048165321201964
 20
-66.5237098988448281
 10
126.6048165321201964
 20
-65.3520873691283839
 10
126.6048165321201964
 20
-64.179566682446449
 10
125.7163689558410056
 20
-63.5866117235331672
 10
124.8365390407660982
 20
-63.5866117235331672
 10
123.9400003090893989
 20
-63.5866117235331672
 10
123.0520018112925982
 20
-64.1713980997257494
 10
123.0520018112925982
 20
-65.3520873691283839
 10
123.0520018112925982
 20
-66.5155413161234748
 10
123.9313749051534046
 20
-67.1005589509069296
 10
124.8116616414442035
 20
-67.1090991847848386
 97
0
 75
0
 76
1
 98
0
1001
ACAD
1010
0.0
1020
0.0
1030
0
  0
SPLINE
  5
1AD
100
AcDbEntity
  8
_U+5F6B_U+523B_U+30D1_U+30B9
 62
256
370
0
 48
1.0
  6
ByLayer
100
AcDbSpline
 70
8
 71
3
 72
29
 73
25
 74
0
 40
0.0
 40
0.0
 40
0.0
 40
0.0
 40
1.0
 40
1.0
 40
1.0
 40
2.0
 40
2.0
 40
2.0
 40
3.0
 40
3.0
 40
3.0
 40
4.0
 40
4.0
 40
4.0
 40
5.0
 40
5.0
 40
5.0
 40
6.0
 40
6.0
 40
6.0
 40
7.0
 40
7.0
 40
7.0
 40
8.0
 40
8.0
 40
8.0
 40
8.0
 10
129.072278248050111
 20
-62.8820550660285917
 30
0.0
 10
129.072278248050111
 20
-62.8820550660285917
 30
0.0
 10
129.072278248050111
 20
-63.4837737746809623
 30
0.0
 10
129.072278248050111
 20
-63.4837737746809623
 30
0.0
 10
129.5465980371741921
 20
-62.8181620379542522
 30
0.0
 10
130.2723320912782015
 20
-62.661720129053009
 30
0.0
 10
131.0620985426411096
 20
-62.8432639765157433
 30
0.0
 10
131.0620985426411096
 20
-62.8432639765157433
 30
0.0
 10
131.0620985426411096
 20
-63.6312186284876802
 30
0.0
 10
131.0620985426411096
 20
-63.6312186284876802
 30
0.0
 10
130.0418619175416097
 20
-63.3299798802736404
 30
0.0
 10
129.072278248050111
 20
-64.0713619966318078
 30
0.0
 10
129.072278248050111
 20
-65.1409043418939575
 30
0.0
 10
129.072278248050111
 20
-65.1409043418939575
 30
0.0
 10
129.072278248050111
 20
-67.8241714963233733
 30
0.0
 10
129.072278248050111
 20
-67.8241714963233733
 30
0.0
 10
129.072278248050111
 20
-67.8241714963233733
 30
0.0
 10
128.1842874929841969
 20
-67.8241714963233733
 30
0.0
 10
128.1842874929841969
 20
-67.8241714963233733
 30
0.0
 10
128.1842874929841969
 20
-67.8241714963233733
 30
0.0
 10
128.1842874929841969
 20
-62.8820550660285917
 30
0.0
 10
128.1842874929841969
 20
-62.8820550660285917
 30
0.0
 10
128.1842874929841969
 20
-62.8820550660285917
 30
0.0
 10
129.072278248050111
 20
-62.8820550660285917
 30
0.0
 10
129.072278248050111
 20
-62.8820550660285917
 30
0.0
  0
HATCH
  5
1AE
100
AcDbEntity
  8
_U+5F6B_U+523B_U+30D1_U+30B9
 62
7
420
16777215
370
-1
 48
1.0
  6
ByLayer
100
AcDbHatch
 10
0.0
 20
0.0
 30
0.0
210
0.0
220
0.0
230
1.0
  2
SOLID
 70
1
 71
0
 91
1
 92
1
 93
1
 72
4
 94
3
 73
0
 74
0
 95
29
 96
25
 40
0.0
 40
0.0
 40
0.0
 40
0.0
 40
1.0
 40
1.0
 40
1.0
 40
2.0
 40
2.0
 40
2.0
 40
3.0
 40
3.0
 40
3.0
 40
4.0
 40
4.0
 40
4.0
 40
5.0
 40
5.0
 40
5.0
 40
6.0
 40
6.0
 40
6.0
 40
7.0
 40
7.0
 40
7.0
 40
8.0
 40
8.0
 40
8.0
 40
8.0
 10
129.072278248050111
 20
-62.8820550660285917
 10
129.072278248050111
 20
-62.8820550660285917
 10
129.072278248050111
 20
-63.4837737746809623
 10
129.072278248050111
 20
-63.4837737746809623
 10
129.5465980371741921
 20
-62.8181620379542522
 10
130.2723320912782015
 20
-62.661720129053009
 10
131.0620985426411096
 20
-62.8432639765157433
 10
131.0620985426411096
 20
-62.8432639765157433
 10
131.0620985426411096
 20
-63.6312186284876802
 10
131.0620985426411096
 20
-63.6312186284876802
 10
130.0418619175416097
 20
-63.3299798802736404
 10
129.072278248050111
 20
-64.0713619966318078
 10
129.072278248050111
 20
-65.1409043418939575
 10
129.072278248050111
 20
-65.1409043418939575
 10
129.072278248050111
 20
-67.8241714963233733
 10
129.072278248050111
 20
-67.8241714963233733
 10
129.072278248050111
 20
-67.8241714963233733
 10
128.1842874929841969
 20
-67.8241714963233733
 10
128.1842874929841969
 20
-67.8241714963233733
 10
128.1842874929841969
 20
-67.8241714963233733
 10
128.1842874929841969
 20
-62.8820550660285917
 10
128.1842874929841969
 20
-62.8820550660285917
 10
128.1842874929841969
 20
-62.8820550660285917
 10
129.072278248050111
 20
-62.8820550660285917
 10
129.072278248050111
 20
-62.8820550660285917
 97
0
 75
0
 76
1
 98
0
1001
ACAD
1010
0.0
1020
0.0
1030
0
  0
SPLINE
  5
1AF
100
AcDbEntity
  8
_U+5F6B_U+523B_U+30D1_U+30B9
 62
256
370
0
 48
1.0
  6
ByLayer
100
AcDbSpline
 70
8
 71
3
 72
41
 73
37
 74
0
 40
0.0
 40
0.0
 40
0.0
 40
0.0
 40
1.0
 40
1.0
 40
1.0
 40
2.0
 40
2.0
 40
2.0
 40
3.0
 40
3.0
 40
3.0
 40
4.0
 40
4.0
 40
4.0
 40
5.0
 40
5.0
 40
5.0
 40
6.0
 40
6.0
 40
6.0
 40
7.0
 40
7.0
 40
7.0
 40
8.0
 40
8.0
 40
8.0
 40
9.0
 40
9.0
 40
9.0
 40
10.0
 40
10.0
 40
10.0
 40
11.0
 40
11.0
 40
11.0
 40
12.0
 40
12.0
 40
12.0
 40
12.0
 10
132.5522028857114094
 20
-62.8735060480204595
 30
0.0
 10
132.5522028857114094
 20
-62.8735060480204595
 30
0.0
 10
132.5522028857114094
 20
-63.4837737746809623
 30
0.0
 10
132.5522028857114094
 20
-63.4837737746809623
 30
0.0
 10
132.9157474018510072
 20
-62.9544109006581607
 30
0.0
 10
133.4449567799753993
 20
-62.7988052068604432
 30
0.0
 10
134.0724651716263054
 20
-62.7988052068604432
 30
0.0
 10
135.5801842309917049
 20
-62.7988052068604432
 30
0.0
 10
136.2205469172392895
 20
-63.7402517866735607
 30
0.0
 10
136.2205469172392895
 20
-65.1595798125334653
 30
0.0
 10
136.2205469172392895
 20
-65.1595798125334653
 30
0.0
 10
136.2205469172392895
 20
-67.8241714963233733
 30
0.0
 10
136.2205469172392895
 20
-67.8241714963233733
 30
0.0
 10
136.2205469172392895
 20
-67.8241714963233733
 30
0.0
 10
135.3320993409606956
 20
-67.8241714963233733
 30
0.0
 10
135.3320993409606956
 20
-67.8241714963233733
 30
0.0
 10
135.3320993409606956
 20
-67.8241714963233733
 30
0.0
 10
135.3320993409606956
 20
-65.1707680609059139
 30
0.0
 10
135.3320993409606956
 20
-65.1707680609059139
 30
0.0
 10
135.3320993409606956
 20
-64.2443656102172866
 30
0.0
 10
135.093468327235712
 20
-63.6121627412232868
 30
0.0
 10
134.0428259918546132
 20
-63.5947735869045232
 30
0.0
 10
133.0823168047801914
 20
-63.5760981162669623
 30
0.0
 10
132.5522028857114094
 20
-64.2630410808574197
 30
0.0
 10
132.5522028857114094
 20
-65.1321318260422544
 30
0.0
 10
132.5522028857114094
 20
-65.1321318260422544
 30
0.0
 10
132.5522028857114094
 20
-67.8241714963233733
 30
0.0
 10
132.5522028857114094
 20
-67.8241714963233733
 30
0.0
 10
132.5522028857114094
 20
-67.8241714963233733
 30
0.0
 10
131.6513527655073119
 20
-67.8241714963233733
 30
0.0
 10
131.6513527655073119
 20
-67.8241714963233733
 30
0.0
 10
131.6513527655073119
 20
-67.8241714963233733
 30
0.0
 10
131.6513527655073119
 20
-62.8735060480204595
 30
0.0
 10
131.6513527655073119
 20
-62.8735060480204595
 30
0.0
 10
131.6513527655073119
 20
-62.8735060480204595
 30
0.0
 10
132.5522028857114094
 20
-62.8735060480204595
 30
0.0
 10
132.5522028857114094
 20
-62.8735060480204595
 30
0.0
  0
HATCH
  5
1B0
100
AcDbEntity
  8
_U+5F6B_U+523B_U+30D1_U+30B9
 62
7
420
16777215
370
-1
 48
1.0
  6
ByLayer
100
AcDbHatch
 10
0.0
 20
0.0
 30
0.0
210
0.0
220
0.0
230
1.0
  2
SOLID
 70
1
 71
0
 91
1
 92
1
 93
1
 72
4
 94
3
 73
0
 74
0
 95
41
 96
37
 40
0.0
 40
0.0
 40
0.0
 40
0.0
 40
1.0
 40
1.0
 40
1.0
 40
2.0
 40
2.0
 40
2.0
 40
3.0
 40
3.0
 40
3.0
 40
4.0
 40
4.0
 40
4.0
 40
5.0
 40
5.0
 40
5.0
 40
6.0
 40
6.0
 40
6.0
 40
7.0
 40
7.0
 40
7.0
 40
8.0
 40
8.0
 40
8.0
 40
9.0
 40
9.0
 40
9.0
 40
10.0
 40
10.0
 40
10.0
 40
11.0
 40
11.0
 40
11.0
 40
12.0
 40
12.0
 40
12.0
 40
12.0
 10
132.5522028857114094
 20
-62.8735060480204595
 10
132.5522028857114094
 20
-62.8735060480204595
 10
132.5522028857114094
 20
-63.4837737746809623
 10
132.5522028857114094
 20
-63.4837737746809623
 10
132.9157474018510072
 20
-62.9544109006581607
 10
133.4449567799753993
 20
-62.7988052068604432
 10
134.0724651716263054
 20
-62.7988052068604432
 10
135.5801842309917049
 20
-62.7988052068604432
 10
136.2205469172392895
 20
-63.7402517866735607
 10
136.2205469172392895
 20
-65.1595798125334653
 10
136.2205469172392895
 20
-65.1595798125334653
 10
136.2205469172392895
 20
-67.8241714963233733
 10
136.2205469172392895
 20
-67.8241714963233733
 10
136.2205469172392895
 20
-67.8241714963233733
 10
135.3320993409606956
 20
-67.8241714963233733
 10
135.3320993409606956
 20
-67.8241714963233733
 10
135.3320993409606956
 20
-67.8241714963233733
 10
135.3320993409606956
 20
-65.1707680609059139
 10
135.3320993409606956
 20
-65.1707680609059139
 10
135.3320993409606956
 20
-64.2443656102172866
 10
135.093468327235712
 20
-63.6121627412232868
 10
134.0428259918546132
 20
-63.5947735869045232
 10
133.0823168047801914
 20
-63.5760981162669623
 10
132.5522028857114094
 20
-64.2630410808574197
 10
132.5522028857114094
 20
-65.1321318260422544
 10
132.5522028857114094
 20
-65.1321318260422544
 10
132.5522028857114094
 20
-67.8241714963233733
 10
132.5522028857114094
 20
-67.8241714963233733
 10
132.5522028857114094
 20
-67.8241714963233733
 10
131.6513527655073119
 20
-67.8241714963233733
 10
131.6513527655073119
 20
-67.8241714963233733
 10
131.6513527655073119
 20
-67.8241714963233733
 10
131.6513527655073119
 20
-62.8735060480204595
 10
131.6513527655073119
 20
-62.8735060480204595
 10
131.6513527655073119
 20
-62.8735060480204595
 10
132.5522028857114094
 20
-62.8735060480204595
 10
132.5522028857114094
 20
-62.8735060480204595
 97
0
 75
0
 76
1
 98
0
1001
ACAD
1010
0.0
1020
0.0
1030
0
  0
SPLINE
  5
1B1
100
AcDbEntity
  8
_U+5F6B_U+523B_U+30D1_U+30B9
 62
256
370
0
 48
1.0
  6
ByLayer
100
AcDbSpline
 70
8
 71
3
 72
32
 73
28
 74
0
 40
0.0
 40
0.0
 40
0.0
 40
0.0
 40
1.0
 40
1.0
 40
1.0
 40
2.0
 40
2.0
 40
2.0
 40
3.0
 40
3.0
 40
3.0
 40
4.0
 40
4.0
 40
4.0
 40
5.0
 40
5.0
 40
5.0
 40
6.0
 40
6.0
 40
6.0
 40
7.0
 40
7.0
 40
7.0
 40
8.0
 40
8.0
 40
8.0
 40
9.0
 40
9.0
 40
9.0
 40
9.0
 10
141.8992836834449918
 20
-65.5632781390931569
 30
0.0
 10
141.8992836834449918
 20
-65.5632781390931569
 30
0.0
 10
137.706408242935197
 20
-65.5632781390931569
 30
0.0
 10
137.706408242935197
 20
-65.5632781390931569
 30
0.0
 10
137.706408242935197
 20
-66.5327069539380602
 30
0.0
 10
138.628807700951711
 20
-67.119838354675494
 30
0.0
 10
139.3716996501372876
 20
-67.119838354675494
 30
0.0
 10
139.9862790373678934
 20
-67.119838354675494
 30
0.0
 10
140.5545104282267914
 20
-66.8529231393570882
 30
0.0
 10
140.8490222877460099
 20
-66.2958103122782347
 30
0.0
 10
140.8490222877460099
 20
-66.2958103122782347
 30
0.0
 10
141.7713427726471025
 20
-66.2958103122782347
 30
0.0
 10
141.7713427726471025
 20
-66.2958103122782347
 30
0.0
 10
141.3953247145499006
 20
-67.3760918274297609
 30
0.0
 10
140.3794704760113063
 20
-67.9164184105834892
 30
0.0
 10
139.3630819889341979
 20
-67.9164184105834892
 30
0.0
 10
138.090974277643312
 20
-67.9164184105834892
 30
0.0
 10
136.8094204327773866
 20
-67.0542032118024309
 30
0.0
 10
136.8094204327773866
 20
-65.3520873691283839
 30
0.0
 10
136.8094204327773866
 20
-63.6503509203425111
 30
0.0
 10
138.0734369886714887
 20
-62.7988052068604432
 30
0.0
 10
139.3803250540721024
 20
-62.7988052068604432
 30
0.0
 10
140.6099329070150077
 20
-62.7988052068604432
 30
0.0
 10
141.8138442011621123
 20
-63.5760981162669623
 30
0.0
 10
141.9168225451832939
 20
-65.1321318260422544
 30
0.0
 10
141.9335375317490104
 20
-65.2791198586355677
 30
0.0
 10
141.924989555138211
 20
-65.4355695102697013
 30
0.0
 10
141.8992836834449918
 20
-65.5632781390931569
 30
0.0
  0
SPLINE
  5
1B2
100
AcDbEntity
  8
_U+5F6B_U+523B_U+30D1_U+30B9
 62
256
370
0
 48
1.0
  6
ByLayer
100
AcDbSpline
 70
8
 71
3
 72
14
 73
10
 74
0
 40
0.0
 40
0.0
 40
0.0
 40
0.0
 40
1.0
 40
1.0
 40
1.0
 40
2.0
 40
2.0
 40
2.0
 40
3.0
 40
3.0
 40
3.0
 40
3.0
 10
140.9730283446733097
 20
-64.8227244951049499
 30
0.0
 10
140.8017668458878973
 20
-63.9325348040282435
 30
0.0
 10
140.0936552508119064
 20
-63.5866117235331672
 30
0.0
 10
139.3803250540721024
 20
-63.5866117235331672
 30
0.0
 10
138.6583709438500023
 20
-63.5866117235331672
 30
0.0
 10
137.9287872612731007
 20
-63.9428248954396778
 30
0.0
 10
137.7403601246737139
 20
-64.8227244951049499
 30
0.0
 10
137.7403601246737139
 20
-64.8227244951049499
 30
0.0
 10
140.9730283446733097
 20
-64.8227244951049499
 30
0.0
 10
140.9730283446733097
 20
-64.8227244951049499
 30
0.0
  0
HATCH
  5
1B3
100
AcDbEntity
  8
_U+5F6B_U+523B_U+30D1_U+30B9
 62
7
420
16777215
370
-1
 48
1.0
  6
ByLayer
100
AcDbHatch
 10
0.0
 20
0.0
 30
0.0
210
0.0
220
0.0
230
1.0
  2
SOLID
 70
1
 71
0
 91
2
 92
1
 93
1
 72
4
 94
3
 73
0
 74
0
 95
32
 96
28
 40
0.0
 40
0.0
 40
0.0
 40
0.0
 40
1.0
 40
1.0
 40
1.0
 40
2.0
 40
2.0
 40
2.0
 40
3.0
 40
3.0
 40
3.0
 40
4.0
 40
4.0
 40
4.0
 40
5.0
 40
5.0
 40
5.0
 40
6.0
 40
6.0
 40
6.0
 40
7.0
 40
7.0
 40
7.0
 40
8.0
 40
8.0
 40
8.0
 40
9.0
 40
9.0
 40
9.0
 40
9.0
 10
141.8992836834449918
 20
-65.5632781390931569
 10
141.8992836834449918
 20
-65.5632781390931569
 10
137.706408242935197
 20
-65.5632781390931569
 10
137.706408242935197
 20
-65.5632781390931569
 10
137.706408242935197
 20
-66.5327069539380602
 10
138.628807700951711
 20
-67.119838354675494
 10
139.3716996501372876
 20
-67.119838354675494
 10
139.9862790373678934
 20
-67.119838354675494
 10
140.5545104282267914
 20
-66.8529231393570882
 10
140.8490222877460099
 20
-66.2958103122782347
 10
140.8490222877460099
 20
-66.2958103122782347
 10
141.7713427726471025
 20
-66.2958103122782347
 10
141.7713427726471025
 20
-66.2958103122782347
 10
141.3953247145499006
 20
-67.3760918274297609
 10
140.3794704760113063
 20
-67.9164184105834892
 10
139.3630819889341979
 20
-67.9164184105834892
 10
138.090974277643312
 20
-67.9164184105834892
 10
136.8094204327773866
 20
-67.0542032118024309
 10
136.8094204327773866
 20
-65.3520873691283839
 10
136.8094204327773866
 20
-63.6503509203425111
 10
138.0734369886714887
 20
-62.7988052068604432
 10
139.3803250540721024
 20
-62.7988052068604432
 10
140.6099329070150077
 20
-62.7988052068604432
 10
141.8138442011621123
 20
-63.5760981162669623
 10
141.9168225451832939
 20
-65.1321318260422544
 10
141.9335375317490104
 20
-65.2791198586355677
 10
141.924989555138211
 20
-65.4355695102697013
 10
141.8992836834449918
 20
-65.5632781390931569
 97
0
 92
1
 93
1
 72
4
 94
3
 73
0
 74
0
 95
14
 96
10
 40
0.0
 40
0.0
 40
0.0
 40
0.0
 40
1.0
 40
1.0
 40
1.0
 40
2.0
 40
2.0
 40
2.0
 40
3.0
 40
3.0
 40
3.0
 40
3.0
 10
140.9730283446733097
 20
-64.8227244951049499
 10
140.8017668458878973
 20
-63.9325348040282435
 10
140.0936552508119064
 20
-63.5866117235331672
 10
139.3803250540721024
 20
-63.5866117235331672
 10
138.6583709438500023
 20
-63.5866117235331672
 10
137.9287872612731007
 20
-63.9428248954396778
 10
137.7403601246737139
 20
-64.8227244951049499
 10
137.7403601246737139
 20
-64.8227244951049499
 10
140.9730283446733097
 20
-64.8227244951049499
 10
140.9730283446733097
 20
-64.8227244951049499
 97
0
 75
0
 76
1
 98
0
1001
ACAD
1010
0.0
1020
0.0
1030
0
  0
ENDBLK
  5
1B4
100
AcDbEntity
  8
0
100
AcDbBlockEnd
  0
BLOCK
  5
1B5
100
AcDbEntity
  8
0
100
AcDbBlockBegin
  2
block 12
 70
0
 10
0.0
 20
0.0
 30
0.0
  3
block 12
  1

  0
SPLINE
  5
1B6
100
AcDbEntity
  8
_U+5207_U+65AD_U+30D1_U+30B9
 62
1
420
16711680
370
9
 48
1.0
  6
ByLayer
100
AcDbSpline
 70
8
 71
3
 72
20
 73
16
 74
0
 40
0.0
 40
0.0
 40
0.0
 40
0.0
 40
1.0
 40
1.0
 40
1.0
 40
2.0
 40
2.0
 40
2.0
 40
3.0
 40
3.0
 40
3.0
 40
4.0
 40
4.0
 40
4.0
 40
5.0
 40
5.0
 40
5.0
 40
5.0
 10
100.0376488859491957
 20
75.3502210723821975
 30
0.0
 10
100.0376488859491957
 20
75.9577773876579698
 30
0.0
 10
100.5301705928598039
 20
76.450299094563448
 30
0.0
 10
101.1377269081394985
 20
76.450299094563448
 30
0.0
 10
101.7452832234190936
 20
76.450299094563448
 30
0.0
 10
102.2378049303219996
 20
75.9577773876579698
 30
0.0
 10
102.2378049303219996
 20
75.3502210723821975
 30
0.0
 10
102.2378049303219996
 20
74.7426647571000018
 30
0.0
 10
101.7452832234190936
 20
74.2501430501906725
 30
0.0
 10
101.1377269081394985
 20
74.2501430501906725
 30
0.0
 10
100.5301705928598039
 20
74.2501430501906725
 30
0.0
 10
100.0376488859491957
 20
74.7426647571000018
 30
0.0
 10
100.0376488859491957
 20
75.3502210723821975
 30
0.0
 10
100.0376488859491957
 20
75.3502210723821975
 30
0.0
 10
100.0376488859491957
 20
75.3502210723821975
 30
0.0
 10
100.0376488859491957
 20
75.3502210723821975
 30
0.0
  0
ENDBLK
  5
1B7
100
AcDbEntity
  8
0
100
AcDbBlockEnd
  0
BLOCK
  5
1B8
100
AcDbEntity
  8
0
100
AcDbBlockBegin
  2
block 8
 70
0
 10
0.0
 20
0.0
 30
0.0
  3
block 8
  1

  0
SPLINE
  5
1B9
100
AcDbEntity
  8
_U+5207_U+65AD_U+30D1_U+30B9
 62
1
420
16711680
370
9
 48
1.0
  6
ByLayer
100
AcDbSpline
 70
8
 71
3
 72
20
 73
16
 74
0
 40
0.0
 40
0.0
 40
0.0
 40
0.0
 40
1.0
 40
1.0
 40
1.0
 40
2.0
 40
2.0
 40
2.0
 40
3.0
 40
3.0
 40
3.0
 40
4.0
 40
4.0
 40
4.0
 40
5.0
 40
5.0
 40
5.0
 40
5.0
 10
-125.9061515447502018
 20
55.1807762928672787
 30
0.0
 10
-125.9061515447502018
 20
55.7883326081456232
 30
0.0
 10
-125.4136298378420946
 20
56.2808543150549525
 30
0.0
 10
-124.806073522562798
 20
56.2808543150549525
 30
0.0
 10
-124.1985172072883046
 20
56.2808543150549525
 30
0.0
 10
-123.7059955003761047
 20
55.7883326081456232
 30
0.0
 10
-123.7059955003761047
 20
55.1807762928672787
 30
0.0
 10
-123.7059955003761047
 20
54.5732199775876623
 30
0.0
 10
-124.1985172072883046
 20
54.0806982706821771
 30
0.0
 10
-124.806073522562798
 20
54.0806982706821771
 30
0.0
 10
-125.4136298378420946
 20
54.0806982706821771
 30
0.0
 10
-125.9061515447502018
 20
54.5732199775876623
 30
0.0
 10
-125.9061515447502018
 20
55.1807762928672787
 30
0.0
 10
-125.9061515447502018
 20
55.1807762928672787
 30
0.0
 10
-125.9061515447502018
 20
55.1807762928672787
 30
0.0
 10
-125.9061515447502018
 20
55.1807762928672787
 30
0.0
  0
ENDBLK
  5
1BA
100
AcDbEntity
  8
0
100
AcDbBlockEnd
  0
BLOCK
  5
1BB
100
AcDbEntity
  8
0
100
AcDbBlockBegin
  2
block 46
 70
0
 10
0.0
 20
0.0
 30
0.0
  3
block 46
  1

  0
SPLINE
  5
1BC
100
AcDbEntity
  8
_U+5207_U+65AD_U+30D1_U+30B9
 62
1
420
16711680
370
9
 48
1.0
  6
ByLayer
100
AcDbSpline
 70
8
 71
3
 72
20
 73
16
 74
0
 40
0.0
 40
0.0
 40
0.0
 40
0.0
 40
1.0
 40
1.0
 40
1.0
 40
2.0
 40
2.0
 40
2.0
 40
3.0
 40
3.0
 40
3.0
 40
4.0
 40
4.0
 40
4.0
 40
5.0
 40
5.0
 40
5.0
 40
5.0
 10
-99.7650229350672788
 20
-30.680634146130771
 30
0.0
 10
-99.7650229350403208
 20
-30.0730778308549986
 30
0.0
 10
-100.2575446419285043
 20
-29.5805561239270602
 30
0.0
 10
-100.8651009572080994
 20
-29.5805561239001094
 30
0.0
 10
-101.4726572724876945
 20
-29.580556123872519
 30
0.0
 10
-101.9651789794130963
 20
-30.0730778307561799
 30
0.0
 10
-101.9651789794400969
 20
-30.6806341460319487
 30
0.0
 10
-101.9651789794676944
 20
-31.2881904613141408
 30
0.0
 10
-101.4726572725862042
 20
-31.7807121682452909
 30
0.0
 10
-100.8651009573068933
 20
-31.7807121682728813
 30
0.0
 10
-100.2575446420272982
 20
-31.7807121682998286
 30
0.0
 10
-99.7650229350948763
 20
-31.2881904614129596
 30
0.0
 10
-99.7650229350672788
 20
-30.680634146130771
 30
0.0
 10
-99.7650229350672788
 20
-30.680634146130771
 30
0.0
 10
-99.7650229350672788
 20
-30.680634146130771
 30
0.0
 10
-99.7650229350672788
 20
-30.680634146130771
 30
0.0
  0
ENDBLK
  5
1BD
100
AcDbEntity
  8
0
100
AcDbBlockEnd
  0
BLOCK
  5
1BE
100
AcDbEntity
  8
0
100
AcDbBlockBegin
  2
block 43
 70
0
 10
0.0
 20
0.0
 30
0.0
  3
block 43
  1

  0
SPLINE
  5
1BF
100
AcDbEntity
  8
_U+5207_U+65AD_U+30D1_U+30B9
 62
1
420
16711680
370
9
 48
1.0
  6
ByLayer
100
AcDbSpline
 70
8
 71
3
 72
20
 73
16
 74
0
 40
0.0
 40
0.0
 40
0.0
 40
0.0
 40
1.0
 40
1.0
 40
1.0
 40
2.0
 40
2.0
 40
2.0
 40
3.0
 40
3.0
 40
3.0
 40
4.0
 40
4.0
 40
4.0
 40
5.0
 40
5.0
 40
5.0
 40
5.0
 10
36.4064618688097994
 20
-77.1254286253265064
 30
0.0
 10
36.40646186883707
 20
-76.5178723100468972
 30
0.0
 10
35.9139401619524534
 20
-76.0253506031118889
 30
0.0
 10
35.3063838466728228
 20
-76.0253506030849451
 30
0.0
 10
34.6988275313957715
 20
-76.0253506030573476
 30
0.0
 10
34.2063058244643017
 20
-76.5178723099487144
 30
0.0
 10
34.2063058244370168
 20
-77.1254286252283379
 30
0.0
 10
34.2063058244097533
 20
-77.7329849404989659
 30
0.0
 10
34.6988275312969492
 20
-78.225506647431402
 30
0.0
 10
35.3063838465740005
 20
-78.2255066474589995
 30
0.0
 10
35.9139401618532972
 20
-78.2255066474859433
 30
0.0
 10
36.4064618687828485
 20
-77.7329849405971487
 30
0.0
 10
36.4064618688097994
 20
-77.1254286253265064
 30
0.0
 10
36.4064618688097994
 20
-77.1254286253265064
 30
0.0
 10
36.4064618688097994
 20
-77.1254286253265064
 30
0.0
 10
36.4064618688097994
 20
-77.1254286253265064
 30
0.0
  0
ENDBLK
  5
1C0
100
AcDbEntity
  8
0
100
AcDbBlockEnd
  0
BLOCK
  5
1C1
100
AcDbEntity
  8
0
100
AcDbBlockBegin
  2
block 47
 70
0
 10
0.0
 20
0.0
 30
0.0
  3
block 47
  1

  0
SPLINE
  5
1C2
100
AcDbEntity
  8
_U+5207_U+65AD_U+30D1_U+30B9
 62
1
420
16711680
370
9
 48
1.0
  6
ByLayer
100
AcDbSpline
 70
8
 71
3
 72
20
 73
16
 74
0
 40
0.0
 40
0.0
 40
0.0
 40
0.0
 40
1.0
 40
1.0
 40
1.0
 40
2.0
 40
2.0
 40
2.0
 40
3.0
 40
3.0
 40
3.0
 40
4.0
 40
4.0
 40
4.0
 40
5.0
 40
5.0
 40
5.0
 40
5.0
 10
-23.7432005279661205
 20
-34.3030328685205319
 30
0.0
 10
-23.7432005279388498
 20
-33.6954765532447595
 30
0.0
 10
-24.2357222348222017
 20
-33.20295484631297
 30
0.0
 10
-24.8432785501005391
 20
-33.2029548462860191
 30
0.0
 10
-25.450834865380159
 20
-33.2029548462584216
 30
0.0
 10
-25.9433565723129114
 20
-33.6954765531459373
 30
0.0
 10
-25.9433565723401784
 20
-34.3030328684217096
 30
0.0
 10
-25.9433565723674597
 20
-34.910589183696203
 30
0.0
 10
-25.4508348654789813
 20
-35.4031108906273531
 30
0.0
 10
-24.8432785501993614
 20
-35.4031108906549434
 30
0.0
 10
-24.2357222349210204
 20
-35.4031108906818872
 30
0.0
 10
-23.7432005279934017
 20
-34.9105891837950182
 30
0.0
 10
-23.7432005279661205
 20
-34.3030328685205319
 30
0.0
 10
-23.7432005279661205
 20
-34.3030328685205319
 30
0.0
 10
-23.7432005279661205
 20
-34.3030328685205319
 30
0.0
 10
-23.7432005279661205
 20
-34.3030328685205319
 30
0.0
  0
ENDBLK
  5
1C3
100
AcDbEntity
  8
0
100
AcDbBlockEnd
  0
BLOCK
  5
1C4
100
AcDbEntity
  8
0
100
AcDbBlockBegin
  2
block 54
 70
0
 10
0.0
 20
0.0
 30
0.0
  3
block 54
  1

  0
LWPOLYLINE
  5
1C5
100
AcDbEntity
  8
_U+5207_U+65AD_U+30D1_U+30B9
 62
1
420
16711680
370
9
 48
1.0
  6
ByLayer
100
AcDbPolyline
 90
5
 70
0
 10
-27.4105498804116792
 20
-17.8700119505847397
 10
-27.4105498810334787
 20
-31.7209943208409086
 10
-41.2615322512896512
 20
-31.7209943202190985
 10
-41.2615322506681679
 20
-17.8700119499629295
 10
-27.4105498804116792
 20
-17.8700119505847397
  0
ENDBLK
  5
1C6
100
AcDbEntity
  8
0
100
AcDbBlockEnd
  0
BLOCK
  5
1C7
100
AcDbEntity
  8
0
100
AcDbBlockBegin
  2
block 21
 70
0
 10
0.0
 20
0.0
 30
0.0
  3
block 21
  1

  0
LWPOLYLINE
  5
1C8
100
AcDbEntity
  8
_U+5207_U+65AD_U+30D1_U+30B9
 62
1
420
16711680
370
9
 48
1.0
  6
ByLayer
100
AcDbPolyline
 90
5
 70
0
 10
27.6831758318689189
 20
69.159495615233439
 10
27.6831758318689189
 20
55.3085132449734189
 10
41.5341582021254112
 20
55.3085132449734189
 10
41.5341582021254112
 20
69.159495615233439
 10
27.6831758318689189
 20
69.159495615233439
  0
ENDBLK
  5
1C9
100
AcDbEntity
  8
0
100
AcDbBlockEnd
  0
BLOCK
  5
1CA
100
AcDbEntity
  8
0
100
AcDbBlockBegin
  2
block 7
 70
0
 10
0.0
 20
0.0
 30
0.0
  3
block 7
  1

  0
SPLINE
  5
1CB
100
AcDbEntity
  8
_U+5207_U+65AD_U+30D1_U+30B9
 62
1
420
16711680
370
9
 48
1.0
  6
ByLayer
100
AcDbSpline
 70
8
 71
3
 72
20
 73
16
 74
0
 40
0.0
 40
0.0
 40
0.0
 40
0.0
 40
1.0
 40
1.0
 40
1.0
 40
2.0
 40
2.0
 40
2.0
 40
3.0
 40
3.0
 40
3.0
 40
4.0
 40
4.0
 40
4.0
 40
5.0
 40
5.0
 40
5.0
 40
5.0
 10
-125.8973561357185957
 20
74.1959219141148623
 30
0.0
 10
-125.8973561357185957
 20
74.8034782293906346
 30
0.0
 10
-125.4048344288080017
 20
75.295999936303815
 30
0.0
 10
-124.7972781135323004
 20
75.295999936303815
 30
0.0
 10
-124.1897217982526058
 20
75.295999936303815
 30
0.0
 10
-123.6972000913448966
 20
74.8034782293906346
 30
0.0
 10
-123.6972000913448966
 20
74.1959219141148623
 30
0.0
 10
-123.6972000913448966
 20
73.5883655988403689
 30
0.0
 10
-124.1897217982526058
 20
73.0958438919310396
 30
0.0
 10
-124.7972781135323004
 20
73.0958438919310396
 30
0.0
 10
-125.4048344288080017
 20
73.0958438919310396
 30
0.0
 10
-125.8973561357185957
 20
73.5883655988403689
 30
0.0
 10
-125.8973561357185957
 20
74.1959219141148623
 30
0.0
 10
-125.8973561357185957
 20
74.1959219141148623
 30
0.0
 10
-125.8973561357185957
 20
74.1959219141148623
 30
0.0
 10
-125.8973561357185957
 20
74.1959219141148623
 30
0.0
  0
ENDBLK
  5
1CC
100
AcDbEntity
  8
0
100
AcDbBlockEnd
  0
BLOCK
  5
1CD
100
AcDbEntity
  8
0
100
AcDbBlockBegin
  2
block 36
 70
0
 10
0.0
 20
0.0
 30
0.0
  3
block 36
  1

  0
LWPOLYLINE
  5
1CE
100
AcDbEntity
  8
_U+5207_U+65AD_U+30D1_U+30B9
 62
1
420
16711680
370
9
 48
1.0
  6
ByLayer
100
AcDbPolyline
 90
5
 70
0
 10
98.2156880237059937
 20
34.0825515358321596
 10
94.6443847444035242
 20
20.6998946431069299
 10
108.027041637126203
 20
17.1285913638018883
 10
111.5983449164273935
 20
30.5112482565284004
 10
98.2156880237059937
 20
34.0825515358321596
  0
ENDBLK
  5
1CF
100
AcDbEntity
  8
0
100
AcDbBlockEnd
  0
BLOCK
  5
1D0
100
AcDbEntity
  8
0
100
AcDbBlockBegin
  2
block 72
 70
0
 10
0.0
 20
0.0
 30
0.0
  3
block 72
  1

  0
INSERT
  5
1D1
100
AcDbEntity
  8
_U+5207_U+65AD_U+30D1_U+30B9
 62
256
370
-1
 48
1.0
  6
ByLayer
100
AcDbBlockReference
  2
block 73
 10
0.0
 20
0.0
 30
0.0
  0
INSERT
  5
1D2
100
AcDbEntity
  8
_U+5207_U+65AD_U+30D1_U+30B9
 62
256
370
-1
 48
1.0
  6
ByLayer
100
AcDbBlockReference
  2
block 74
 10
0.0
 20
0.0
 30
0.0
  0
INSERT
  5
1D3
100
AcDbEntity
  8
_U+5207_U+65AD_U+30D1_U+30B9
 62
256
370
-1
 48
1.0
  6
ByLayer
100
AcDbBlockReference
  2
block 75
 10
0.0
 20
0.0
 30
0.0
  0
ENDBLK
  5
1D4
100
AcDbEntity
  8
0
100
AcDbBlockEnd
  0
BLOCK
  5
1D5
100
AcDbEntity
  8
0
100
AcDbBlockBegin
  2
block 32
 70
0
 10
0.0
 20
0.0
 30
0.0
  3
block 32
  1

  0
LWPOLYLINE
  5
1D6
100
AcDbEntity
  8
_U+5207_U+65AD_U+30D1_U+30B9
 62
1
420
16711680
370
9
 48
1.0
  6
ByLayer
100
AcDbPolyline
 90
5
 70
0
 10
103.6885664556553053
 20
90.5360117281711609
 10
103.6885664556553053
 20
76.685029357918836
 10
117.539548825912803
 20
76.685029357918836
 10
117.539548825912803
 20
90.5360117281711609
 10
103.6885664556553053
 20
90.5360117281711609
  0
ENDBLK
  5
1D7
100
AcDbEntity
  8
0
100
AcDbBlockEnd
  0
BLOCK
  5
1D8
100
AcDbEntity
  8
0
100
AcDbBlockBegin
  2
block 31
 70
0
 10
0.0
 20
0.0
 30
0.0
  3
block 31
  1

  0
LWPOLYLINE
  5
1D9
100
AcDbEntity
  8
_U+5207_U+65AD_U+30D1_U+30B9
 62
1
420
16711680
370
9
 48
1.0
  6
ByLayer
100
AcDbPolyline
 90
5
 70
0
 10
84.6872187997071251
 20
54.9084848732681223
 10
84.6872187997071251
 20
41.0575025030170835
 10
98.5382011699632869
 20
41.0575025030170835
 10
98.5382011699632869
 20
54.9084848732681223
 10
84.6872187997071251
 20
54.9084848732681223
  0
ENDBLK
  5
1DA
100
AcDbEntity
  8
0
100
AcDbBlockEnd
  0
BLOCK
  5
1DB
100
AcDbEntity
  8
0
100
AcDbBlockBegin
  2
block 75
 70
0
 10
0.0
 20
0.0
 30
0.0
  3
block 75
  1

  0
SPLINE
  5
1DC
100
AcDbEntity
  8
_U+5207_U+65AD_U+30D1_U+30B9
 62
1
420
16711680
370
9
 48
1.0
  6
ByLayer
100
AcDbSpline
 70
8
 71
3
 72
20
 73
16
 74
0
 40
0.0
 40
0.0
 40
0.0
 40
0.0
 40
1.0
 40
1.0
 40
1.0
 40
2.0
 40
2.0
 40
2.0
 40
3.0
 40
3.0
 40
3.0
 40
4.0
 40
4.0
 40
4.0
 40
5.0
 40
5.0
 40
5.0
 40
5.0
 10
139.8345194113699961
 20
36.3473848027282571
 30
0.0
 10
139.8345190500286037
 20
36.9549411180066016
 30
0.0
 10
140.3270404640171023
 20
37.4474631178316528
 30
0.0
 10
140.9345967792883982
 20
37.4474634791723773
 30
0.0
 10
141.5421530945666859
 20
37.4474638405124693
 30
0.0
 10
142.0346750944027008
 20
36.9549424265355384
 30
0.0
 10
142.0346754557428142
 20
36.347386111257201
 30
0.0
 10
142.0346758170848034
 20
35.7398297959737334
 30
0.0
 10
141.5421544030963048
 20
35.2473077961403334
 30
0.0
 10
140.9345980878179887
 20
35.2473074348002484
 30
0.0
 10
140.3270417725460106
 20
35.2473070734595169
 30
0.0
 10
139.8345197727107063
 20
35.7398284874447896
 30
0.0
 10
139.8345194113699961
 20
36.3473848027282571
 30
0.0
 10
139.8345194113699961
 20
36.3473848027282571
 30
0.0
 10
139.8345194113699961
 20
36.3473848027282571
 30
0.0
 10
139.8345194113699961
 20
36.3473848027282571
 30
0.0
  0
ENDBLK
  5
1DD
100
AcDbEntity
  8
0
100
AcDbBlockEnd
  0
BLOCK
  5
1DE
100
AcDbEntity
  8
0
100
AcDbBlockBegin
  2
block 25
 70
0
 10
0.0
 20
0.0
 30
0.0
  3
block 25
  1

  0
LWPOLYLINE
  5
1DF
100
AcDbEntity
  8
_U+5207_U+65AD_U+30D1_U+30B9
 62
1
420
16711680
370
9
 48
1.0
  6
ByLayer
100
AcDbPolyline
 90
5
 70
0
 10
46.6845234878209823
 20
54.9084848732681223
 10
46.6845234878209823
 20
41.0575025030170835
 10
60.5355058580745791
 20
41.0575025030170835
 10
60.5355058580745791
 20
54.9084848732681223
 10
46.6845234878209823
 20
54.9084848732681223
  0
ENDBLK
  5
1E0
100
AcDbEntity
  8
0
100
AcDbBlockEnd
  0
ENDSEC
  0
SECTION
  2
ENTITIES
  0
INSERT
  5
1E1
100
AcDbEntity
  8
_U+5207_U+65AD_U+30D1_U+30B9
 62
256
370
-1
 48
1.0
  6
ByLayer
100
AcDbBlockReference
  2
block 72
 10
0.0
 20
0.0
 30
0.0
  0
INSERT
  5
1E2
100
AcDbEntity
  8
_U+5207_U+65AD_U+30D1_U+30B9
 62
256
370
-1
 48
1.0
  6
ByLayer
100
AcDbBlockReference
  2
block 76
 10
0.0
 20
0.0
 30
0.0
  0
ENDSEC
  0
SECTION
  2
OBJECTS
  0
DICTIONARY
  5
C
100
AcDbDictionary
280
0
281
1
  3
ACAD_GROUP
350
D
  3
ACAD_LAYOUT
350
1A
  3
ACAD_MLINESTYLE
350
17
  3
ACAD_PLOTSETTINGS
350
19
  3
ACAD_PLOTSTYLENAME
350
E
  3
AcDbVariableDictionary
350
1E3
  3
QCAD_OBJECTS
350
1E4
  0
DICTIONARY
  5
D
100
AcDbDictionary
280
0
281
1
  0
ACDBDICTIONARYWDFLT
  5
E
100
AcDbDictionary
281
1
  3
Normal
350
F
100
AcDbDictionaryWithDefault
340
F
  0
ACDBPLACEHOLDER
  5
F
  0
DICTIONARY
  5
17
100
AcDbDictionary
280
0
281
1
  3
Standard
350
18
  0
MLINESTYLE
  5
18
100
AcDbMlineStyle
  2
STANDARD
 70
0
  3

 62
256
 51
90.0
 52
90.0
 71
2
 49
0.5
 62
256
  6
BYLAYER
 49
-0.5
 62
256
  6
BYLAYER
  0
DICTIONARY
  5
19
100
AcDbDictionary
280
0
281
1
  0
DICTIONARY
  5
1A
100
AcDbDictionary
281
1
  3
Layout1
350
1E
  3
Layout2
350
26
  3
Model
350
22
  0
LAYOUT
  5
1E
100
AcDbPlotSettings
  1

  2
none_device
  4

  6

 40
0.0
 41
0.0
 42
0.0
 43
0.0
 44
0.0
 45
0.0
 46
0.0
 47
0.0
 48
0.0
 49
0.0
140
0.0
141
0.0
142
1.0
143
1.0
 70
688
 72
0
 73
0
 74
5
  7

 75
16
147
1.0
148
0.0
149
0.0
100
AcDbLayout
  1
Layout1
 70
1
 71
1
 10
0.0
 20
0.0
 11
420.0
 21
297.0
 12
0.0
 22
0.0
 32
0.0
 14
100000000000000000000.0
 24
100000000000000000000.0
 34
100000000000000000000.0
 15
-100000000000000000000.0
 25
-100000000000000000000.0
 35
-100000000000000000000.0
146
0.0
 13
0.0
 23
0.0
 33
0.0
 16
1.0
 26
0.0
 36
0.0
 17
0.0
 27
1.0
 37
0.0
 76
0
330
1B
  0
LAYOUT
  5
22
100
AcDbPlotSettings
  1

  2
none_device
  4

  6

 40
0.0
 41
0.0
 42
0.0
 43
0.0
 44
0.0
 45
0.0
 46
0.0
 47
0.0
 48
0.0
 49
0.0
140
0.0
141
0.0
142
1.0
143
1.0
 70
1712
 72
0
 73
0
 74
0
  7

 75
0
147
1.0
148
0.0
149
0.0
100
AcDbLayout
  1
Model
 70
1
 71
0
 10
0.0
 20
0.0
 11
12.0
 21
9.0
 12
0.0
 22
0.0
 32
0.0
 14
0.0
 24
0.0
 34
0.0
 15
0.0
 25
0.0
 35
0.0
146
0.0
 13
0.0
 23
0.0
 33
0.0
 16
1.0
 26
0.0
 36
0.0
 17
0.0
 27
1.0
 37
0.0
 76
0
330
1F
  0
LAYOUT
  5
26
100
AcDbPlotSettings
  1

  2
none_device
  4

  6

 40
0.0
 41
0.0
 42
0.0
 43
0.0
 44
0.0
 45
0.0
 46
0.0
 47
0.0
 48
0.0
 49
0.0
140
0.0
141
0.0
142
1.0
143
1.0
 70
688
 72
0
 73
0
 74
5
  7

 75
16
147
1.0
148
0.0
149
0.0
100
AcDbLayout
  1
Layout2
 70
1
 71
2
 10
0.0
 20
0.0
 11
12.0
 21
9.0
 12
0.0
 22
0.0
 32
0.0
 14
0.0
 24
0.0
 34
0.0
 15
0.0
 25
0.0
 35
0.0
146
0.0
 13
0.0
 23
0.0
 33
0.0
 16
1.0
 26
0.0
 36
0.0
 17
0.0
 27
1.0
 37
0.0
 76
0
330
23
  0
DICTIONARY
  5
1E3
100
AcDbDictionary
281
1
  3
DIMASSOC
350
1E6
  3
HIDETEXT
350
1E5
  0
DICTIONARYVAR
  5
1E5
100
DictionaryVariables
280
0
  1
2
  0
DICTIONARYVAR
  5
1E6
100
DictionaryVariables
280
0
  1
1
  0
DICTIONARY
  5
1E4
100
AcDbDictionary
281
1
  3
ColorSettings/BackgroundColor
350
1E7
  3
ColorSettings/ColorMode
350
1E8
  3
Grid/DisplayGrid00
350
1E9
  3
Grid/DisplayGrid01
350
1EA
  3
Grid/DisplayGrid02
350
1EB
  3
Grid/DisplayGrid03
350
1EC
  3
Grid/GridSpacingX00
350
1ED
  3
Grid/GridSpacingX01
350
1EE
  3
Grid/GridSpacingX02
350
1EF
  3
Grid/GridSpacingX03
350
1F0
  3
Grid/GridSpacingY00
350
1F1
  3
Grid/GridSpacingY01
350
1F2
  3
Grid/GridSpacingY02
350
1F3
  3
Grid/GridSpacingY03
350
1F4
  3
Grid/IsometricGrid00
350
1F5
  3
Grid/IsometricGrid01
350
1F6
  3
Grid/IsometricGrid02
350
1F7
  3
Grid/IsometricGrid03
350
1F8
  3
Grid/IsometricProjection00
350
1F9
  3
Grid/IsometricProjection01
350
1FA
  3
Grid/IsometricProjection02
350
1FB
  3
Grid/IsometricProjection03
350
1FC
  3
Grid/MetaGridSpacingX00
350
1FD
  3
Grid/MetaGridSpacingX01
350
1FE
  3
Grid/MetaGridSpacingX02
350
1FF
  3
Grid/MetaGridSpacingX03
350
200
  3
Grid/MetaGridSpacingY00
350
201
  3
Grid/MetaGridSpacingY01
350
202
  3
Grid/MetaGridSpacingY02
350
203
  3
Grid/MetaGridSpacingY03
350
204
  3
MultiPageSettings/Columns
350
205
  3
MultiPageSettings/GlueMarginsBottom
350
206
  3
MultiPageSettings/GlueMarginsLeft
350
207
  3
MultiPageSettings/GlueMarginsRight
350
208
  3
MultiPageSettings/GlueMarginsTop
350
209
  3
MultiPageSettings/PrintCropMarks
350
20A
  3
MultiPageSettings/Rows
350
20B
  3
PageSettings/OffsetX
350
20C
  3
PageSettings/OffsetY
350
20D
  3
PageSettings/PageOrientation
350
20E
  3
PageSettings/PaperHeight
350
20F
  3
PageSettings/PaperWidth
350
210
  3
PageSettings/Scale
350
211
  3
PageSettings/ShowPaperBorders
350
212
  3
UnitSettings/PaperUnit
350
213
  3
ViewportCenter
350
214
  3
ViewportHeight
350
215
  3
ViewportWidth
350
216
  0
XRECORD
  5
1E7
330
1E4
100
AcDbXrecord
280
1
1000
White
  0
XRECORD
  5
1E8
330
1E4
100
AcDbXrecord
280
1
1000
FullColor
  0
XRECORD
  5
1E9
330
1E4
100
AcDbXrecord
280
1
290
1
  0
XRECORD
  5
1EA
330
1E4
100
AcDbXrecord
280
1
290
1
  0
XRECORD
  5
1EB
330
1E4
100
AcDbXrecord
280
1
290
1
  0
XRECORD
  5
1EC
330
1E4
100
AcDbXrecord
280
1
290
1
  0
XRECORD
  5
1ED
330
1E4
100
AcDbXrecord
280
1
1000
auto
  0
XRECORD
  5
1EE
330
1E4
100
AcDbXrecord
280
1
1000
auto
  0
XRECORD
  5
1EF
330
1E4
100
AcDbXrecord
280
1
1000
auto
  0
XRECORD
  5
1F0
330
1E4
100
AcDbXrecord
280
1
1000
auto
  0
XRECORD
  5
1F1
330
1E4
100
AcDbXrecord
280
1
1000
auto
  0
XRECORD
  5
1F2
330
1E4
100
AcDbXrecord
280
1
1000
auto
  0
XRECORD
  5
1F3
330
1E4
100
AcDbXrecord
280
1
1000
auto
  0
XRECORD
  5
1F4
330
1E4
100
AcDbXrecord
280
1
1000
auto
  0
XRECORD
  5
1F5
330
1E4
100
AcDbXrecord
280
1
290
0
  0
XRECORD
  5
1F6
330
1E4
100
AcDbXrecord
280
1
290
0
  0
XRECORD
  5
1F7
330
1E4
100
AcDbXrecord
280
1
290
0
  0
XRECORD
  5
1F8
330
1E4
100
AcDbXrecord
280
1
290
0
  0
XRECORD
  5
1F9
330
1E4
100
AcDbXrecord
280
1
 90
65537
  0
XRECORD
  5
1FA
330
1E4
100
AcDbXrecord
280
1
 90
65537
  0
XRECORD
  5
1FB
330
1E4
100
AcDbXrecord
280
1
 90
65537
  0
XRECORD
  5
1FC
330
1E4
100
AcDbXrecord
280
1
 90
65537
  0
XRECORD
  5
1FD
330
1E4
100
AcDbXrecord
280
1
1000
auto
  0
XRECORD
  5
1FE
330
1E4
100
AcDbXrecord
280
1
1000
auto
  0
XRECORD
  5
1FF
330
1E4
100
AcDbXrecord
280
1
1000
auto
  0
XRECORD
  5
200
330
1E4
100
AcDbXrecord
280
1
1000
auto
  0
XRECORD
  5
201
330
1E4
100
AcDbXrecord
280
1
1000
auto
  0
XRECORD
  5
202
330
1E4
100
AcDbXrecord
280
1
1000
auto
  0
XRECORD
  5
203
330
1E4
100
AcDbXrecord
280
1
1000
auto
  0
XRECORD
  5
204
330
1E4
100
AcDbXrecord
280
1
1000
auto
  0
XRECORD
  5
205
330
1E4
100
AcDbXrecord
280
1
 90
1
  0
XRECORD
  5
206
330
1E4
100
AcDbXrecord
280
1
 40
10.0
  0
XRECORD
  5
207
330
1E4
100
AcDbXrecord
280
1
 40
10.0
  0
XRECORD
  5
208
330
1E4
100
AcDbXrecord
280
1
 40
10.0
  0
XRECORD
  5
209
330
1E4
100
AcDbXrecord
280
1
 40
10.0
  0
XRECORD
  5
20A
330
1E4
100
AcDbXrecord
280
1
290
0
  0
XRECORD
  5
20B
330
1E4
100
AcDbXrecord
280
1
 90
1
  0
XRECORD
  5
20C
330
1E4
100
AcDbXrecord
280
1
 40
0.0
  0
XRECORD
  5
20D
330
1E4
100
AcDbXrecord
280
1
 40
0.0
  0
XRECORD
  5
20E
330
1E4
100
AcDbXrecord
280
1
1000
Portrait
  0
XRECORD
  5
20F
330
1E4
100
AcDbXrecord
280
1
 40
297.0
  0
XRECORD
  5
210
330
1E4
100
AcDbXrecord
280
1
 40
210.0
  0
XRECORD
  5
211
330
1E4
100
AcDbXrecord
280
1
1000
1:1
  0
XRECORD
  5
212
330
1E4
100
AcDbXrecord
280
1
290
1
  0
XRECORD
  5
213
330
1E4
100
AcDbXrecord
280
1
 90
4
  0
XRECORD
  5
215
330
1E4
100
AcDbXrecord
280
1
 40
251.8881927813024788
  0
XRECORD
  5
216
330
1E4
100
AcDbXrecord
280
1
 40
471.2960659671212511
  0
ENDSEC
  0
EOF
