M48
;DRILL file {KiCad 5.0.1} date 2019年03月25日 星期一 02时10分50秒
;FORMAT={-:-/ absolute / inch / decimal}
FMAT,2
INCH,TZ
T1C0.0157
T2C0.0276
T3C0.0409
T4C0.0579
%
G90
G05
M72
T1
X2.9269Y-3.7293
X2.9375Y-3.0625
X2.9375Y-3.1419
X3.1572Y-3.3125
X3.1572Y-3.501
X3.8125Y-3.8438
X3.875Y-3.3125
X4.1937Y-3.375
T3
X4.2938Y-3.1375
X4.3937Y-3.1375
X5.0438Y-3.8875
X5.1437Y-3.8875
X4.2938Y-3.8875
X4.3937Y-3.8875
X5.0438Y-3.1375
X5.1437Y-3.1375
T4
X4.1937Y-2.8375
X4.2453Y-2.78
X4.4422Y-2.7603
X4.4437Y-2.7375
X4.9437Y-3.5875
X4.9953Y-3.53
X5.1922Y-3.5103
X5.1937Y-3.4875
X4.1937Y-3.5875
X4.2453Y-3.53
X4.4422Y-3.5103
X4.4437Y-3.4875
X4.9437Y-2.8375
X4.9953Y-2.78
X5.1922Y-2.7603
X5.1937Y-2.7375
T2
X2.6501Y-2.6014G85X2.6501Y-2.6486
G05
X2.6501Y-2.7785G85X2.6501Y-2.8258
G05
X2.9375Y-2.6014G85X2.9375Y-2.6486
G05
X2.9375Y-2.7785G85X2.9375Y-2.8258
G05
T0
M30
