G04 #@! TF.GenerationSoftware,KiCad,Pcbnew,5.0.1*
G04 #@! TF.CreationDate,2019-03-25T02:10:47+08:00*
G04 #@! TF.ProjectId,mykb,6D796B622E6B696361645F7063620000,rev?*
G04 #@! TF.SameCoordinates,Original*
G04 #@! TF.FileFunction,Copper,L1,Top,Signal*
G04 #@! TF.FilePolarity,Positive*
%FSLAX46Y46*%
G04 Gerber Fmt 4.6, Leading zero omitted, Abs format (unit mm)*
G04 Created by KiCad (PCBNEW 5.0.1) date 2019年03月25日 星期一 02时10分47秒*
%MOMM*%
%LPD*%
G01*
G04 APERTURE LIST*
G04 #@! TA.AperFunction,ComponentPad*
%ADD10R,1.905000X1.905000*%
G04 #@! TD*
G04 #@! TA.AperFunction,ComponentPad*
%ADD11C,1.905000*%
G04 #@! TD*
G04 #@! TA.AperFunction,ComponentPad*
%ADD12C,2.250000*%
G04 #@! TD*
G04 #@! TA.AperFunction,Conductor*
%ADD13C,2.250000*%
G04 #@! TD*
G04 #@! TA.AperFunction,ComponentPad*
%ADD14O,1.700000X2.700000*%
G04 #@! TD*
G04 #@! TA.AperFunction,ViaPad*
%ADD15C,0.800000*%
G04 #@! TD*
G04 #@! TA.AperFunction,Conductor*
%ADD16C,0.381000*%
G04 #@! TD*
G04 #@! TA.AperFunction,Conductor*
%ADD17C,0.254000*%
G04 #@! TD*
G04 APERTURE END LIST*
D10*
G04 #@! TO.P,MX1,4*
G04 #@! TO.N,Net-(MX1-Pad4)*
X111601250Y-79692500D03*
D11*
G04 #@! TO.P,MX1,3*
G04 #@! TO.N,Net-(MX1-Pad3)*
X109061250Y-79692500D03*
D12*
G04 #@! TO.P,MX1,1*
G04 #@! TO.N,COL0*
X107831250Y-70612500D03*
X107176251Y-71342500D03*
D13*
G04 #@! TD*
G04 #@! TO.N,COL0*
G04 #@! TO.C,MX1*
X106521250Y-72072500D02*
X107831252Y-70612500D01*
D12*
G04 #@! TO.P,MX1,2*
G04 #@! TO.N,Net-(D1-Pad2)*
X112871250Y-69532500D03*
X112851250Y-69822500D03*
D13*
G04 #@! TD*
G04 #@! TO.N,Net-(D1-Pad2)*
G04 #@! TO.C,MX1*
X112831250Y-70112500D02*
X112871250Y-69532500D01*
D12*
G04 #@! TO.P,MX2,2*
G04 #@! TO.N,Net-(D2-Pad2)*
X131901250Y-69822500D03*
D13*
G04 #@! TD*
G04 #@! TO.N,Net-(D2-Pad2)*
G04 #@! TO.C,MX2*
X131881250Y-70112500D02*
X131921250Y-69532500D01*
D12*
G04 #@! TO.P,MX2,2*
G04 #@! TO.N,Net-(D2-Pad2)*
X131921250Y-69532500D03*
G04 #@! TO.P,MX2,1*
G04 #@! TO.N,COL1*
X126226251Y-71342500D03*
D13*
G04 #@! TD*
G04 #@! TO.N,COL1*
G04 #@! TO.C,MX2*
X125571250Y-72072500D02*
X126881252Y-70612500D01*
D12*
G04 #@! TO.P,MX2,1*
G04 #@! TO.N,COL1*
X126881250Y-70612500D03*
D11*
G04 #@! TO.P,MX2,3*
G04 #@! TO.N,Net-(MX2-Pad3)*
X128111250Y-79692500D03*
D10*
G04 #@! TO.P,MX2,4*
G04 #@! TO.N,Net-(MX2-Pad4)*
X130651250Y-79692500D03*
G04 #@! TD*
G04 #@! TO.P,MX3,4*
G04 #@! TO.N,Net-(MX3-Pad4)*
X111601250Y-98742500D03*
D11*
G04 #@! TO.P,MX3,3*
G04 #@! TO.N,Net-(MX3-Pad3)*
X109061250Y-98742500D03*
D12*
G04 #@! TO.P,MX3,1*
G04 #@! TO.N,COL0*
X107831250Y-89662500D03*
X107176251Y-90392500D03*
D13*
G04 #@! TD*
G04 #@! TO.N,COL0*
G04 #@! TO.C,MX3*
X106521250Y-91122500D02*
X107831252Y-89662500D01*
D12*
G04 #@! TO.P,MX3,2*
G04 #@! TO.N,Net-(D3-Pad2)*
X112871250Y-88582500D03*
X112851250Y-88872500D03*
D13*
G04 #@! TD*
G04 #@! TO.N,Net-(D3-Pad2)*
G04 #@! TO.C,MX3*
X112831250Y-89162500D02*
X112871250Y-88582500D01*
D12*
G04 #@! TO.P,MX4,2*
G04 #@! TO.N,Net-(D4-Pad2)*
X131901250Y-88872500D03*
D13*
G04 #@! TD*
G04 #@! TO.N,Net-(D4-Pad2)*
G04 #@! TO.C,MX4*
X131881250Y-89162500D02*
X131921250Y-88582500D01*
D12*
G04 #@! TO.P,MX4,2*
G04 #@! TO.N,Net-(D4-Pad2)*
X131921250Y-88582500D03*
G04 #@! TO.P,MX4,1*
G04 #@! TO.N,COL1*
X126226251Y-90392500D03*
D13*
G04 #@! TD*
G04 #@! TO.N,COL1*
G04 #@! TO.C,MX4*
X125571250Y-91122500D02*
X126881252Y-89662500D01*
D12*
G04 #@! TO.P,MX4,1*
G04 #@! TO.N,COL1*
X126881250Y-89662500D03*
D11*
G04 #@! TO.P,MX4,3*
G04 #@! TO.N,Net-(MX4-Pad3)*
X128111250Y-98742500D03*
D10*
G04 #@! TO.P,MX4,4*
G04 #@! TO.N,Net-(MX4-Pad4)*
X130651250Y-98742500D03*
G04 #@! TD*
D14*
G04 #@! TO.P,USB1,6*
G04 #@! TO.N,VCC*
X67312500Y-71175000D03*
X74612500Y-71175000D03*
X74612500Y-66675000D03*
X67312500Y-66675000D03*
G04 #@! TD*
D15*
G04 #@! TO.N,+5V*
X80193750Y-88925000D03*
X74612500Y-77787500D03*
X80193750Y-84137500D03*
X96837500Y-97631250D03*
X98425000Y-84137500D03*
G04 #@! TO.N,COL0*
X106521250Y-85725000D03*
G04 #@! TO.N,Net-(R1-Pad2)*
X74343750Y-94725000D03*
X74612500Y-79804500D03*
G04 #@! TD*
D16*
G04 #@! TO.N,+5V*
X80193750Y-88925000D02*
X80193750Y-84137500D01*
X80193750Y-80987500D02*
X78581250Y-79375000D01*
X78581250Y-79375000D02*
X76200000Y-79375000D01*
X76200000Y-79375000D02*
X74612500Y-77787500D01*
X80193750Y-84137500D02*
X80193750Y-80987500D01*
X80193750Y-88925000D02*
X80193750Y-99243750D01*
X80193750Y-99243750D02*
X81756250Y-100806250D01*
X81756250Y-100806250D02*
X96043750Y-100806250D01*
X96837500Y-100012500D02*
X96837500Y-97631250D01*
X96043750Y-100806250D02*
X96837500Y-100012500D01*
X96837500Y-97631250D02*
X96837500Y-86518750D01*
X98425000Y-84137500D02*
X97631250Y-84137500D01*
X96837500Y-84931250D02*
X96837500Y-86518750D01*
X97631250Y-84137500D02*
X96837500Y-84931250D01*
D17*
G04 #@! TO.N,COL0*
X106521250Y-88352500D02*
X106521250Y-91122500D01*
X106521250Y-72072500D02*
X106521250Y-85725000D01*
X106521250Y-85725000D02*
X106521250Y-88352500D01*
G04 #@! TO.N,COL1*
X125571250Y-88352500D02*
X125571250Y-91122500D01*
X125571250Y-72072500D02*
X125571250Y-88352500D01*
G04 #@! TO.N,Net-(R1-Pad2)*
X74343750Y-80073250D02*
X74612500Y-79804500D01*
X74343750Y-94725000D02*
X74343750Y-80073250D01*
G04 #@! TD*
M02*
