G04 #@! TF.GenerationSoftware,KiCad,Pcbnew,5.0.1*
G04 #@! TF.CreationDate,2019-03-25T02:10:47+08:00*
G04 #@! TF.ProjectId,mykb,6D796B622E6B696361645F7063620000,rev?*
G04 #@! TF.SameCoordinates,Original*
G04 #@! TF.FileFunction,Legend,Top*
G04 #@! TF.FilePolarity,Positive*
%FSLAX46Y46*%
G04 Gerber Fmt 4.6, Leading zero omitted, Abs format (unit mm)*
G04 Created by KiCad (PCBNEW 5.0.1) date 2019年03月25日 星期一 02时10分47秒*
%MOMM*%
%LPD*%
G01*
G04 APERTURE LIST*
%ADD10C,0.300000*%
%ADD11C,1.852000*%
%ADD12C,4.089800*%
%ADD13O,1.802000X2.802000*%
G04 APERTURE END LIST*
%LPC*%
D10*
X81570535Y-68941071D02*
X81570535Y-67441071D01*
X81570535Y-68155357D02*
X82427678Y-68155357D01*
X82427678Y-68941071D02*
X82427678Y-67441071D01*
X83713392Y-68869642D02*
X83570535Y-68941071D01*
X83284821Y-68941071D01*
X83141964Y-68869642D01*
X83070535Y-68726785D01*
X83070535Y-68155357D01*
X83141964Y-68012500D01*
X83284821Y-67941071D01*
X83570535Y-67941071D01*
X83713392Y-68012500D01*
X83784821Y-68155357D01*
X83784821Y-68298214D01*
X83070535Y-68441071D01*
X84641964Y-68941071D02*
X84499107Y-68869642D01*
X84427678Y-68726785D01*
X84427678Y-67441071D01*
X85427678Y-68941071D02*
X85284821Y-68869642D01*
X85213392Y-68726785D01*
X85213392Y-67441071D01*
X86213392Y-68941071D02*
X86070535Y-68869642D01*
X85999107Y-68798214D01*
X85927678Y-68655357D01*
X85927678Y-68226785D01*
X85999107Y-68083928D01*
X86070535Y-68012500D01*
X86213392Y-67941071D01*
X86427678Y-67941071D01*
X86570535Y-68012500D01*
X86641964Y-68083928D01*
X86713392Y-68226785D01*
X86713392Y-68655357D01*
X86641964Y-68798214D01*
X86570535Y-68869642D01*
X86427678Y-68941071D01*
X86213392Y-68941071D01*
X88356250Y-67441071D02*
X88713392Y-68941071D01*
X88999107Y-67869642D01*
X89284821Y-68941071D01*
X89641964Y-67441071D01*
X90427678Y-68941071D02*
X90284821Y-68869642D01*
X90213392Y-68798214D01*
X90141964Y-68655357D01*
X90141964Y-68226785D01*
X90213392Y-68083928D01*
X90284821Y-68012500D01*
X90427678Y-67941071D01*
X90641964Y-67941071D01*
X90784821Y-68012500D01*
X90856250Y-68083928D01*
X90927678Y-68226785D01*
X90927678Y-68655357D01*
X90856250Y-68798214D01*
X90784821Y-68869642D01*
X90641964Y-68941071D01*
X90427678Y-68941071D01*
X91570535Y-68941071D02*
X91570535Y-67941071D01*
X91570535Y-68226785D02*
X91641964Y-68083928D01*
X91713392Y-68012500D01*
X91856250Y-67941071D01*
X91999107Y-67941071D01*
X92713392Y-68941071D02*
X92570535Y-68869642D01*
X92499107Y-68726785D01*
X92499107Y-67441071D01*
X93927678Y-68941071D02*
X93927678Y-67441071D01*
X93927678Y-68869642D02*
X93784821Y-68941071D01*
X93499107Y-68941071D01*
X93356250Y-68869642D01*
X93284821Y-68798214D01*
X93213392Y-68655357D01*
X93213392Y-68226785D01*
X93284821Y-68083928D01*
X93356250Y-68012500D01*
X93499107Y-67941071D01*
X93784821Y-67941071D01*
X93927678Y-68012500D01*
X94641964Y-68798214D02*
X94713392Y-68869642D01*
X94641964Y-68941071D01*
X94570535Y-68869642D01*
X94641964Y-68798214D01*
X94641964Y-68941071D01*
X94641964Y-68369642D02*
X94570535Y-67512500D01*
X94641964Y-67441071D01*
X94713392Y-67512500D01*
X94641964Y-68369642D01*
X94641964Y-67441071D01*
D11*
G04 #@! TO.C,MX1*
X115411250Y-74612500D03*
X105251250Y-74612500D03*
D12*
X110331250Y-74612500D03*
G04 #@! TD*
G04 #@! TO.C,MX2*
X129381250Y-74612500D03*
D11*
X124301250Y-74612500D03*
X134461250Y-74612500D03*
G04 #@! TD*
G04 #@! TO.C,MX3*
X115411250Y-93662500D03*
X105251250Y-93662500D03*
D12*
X110331250Y-93662500D03*
G04 #@! TD*
G04 #@! TO.C,MX4*
X129381250Y-93662500D03*
D11*
X124301250Y-93662500D03*
X134461250Y-93662500D03*
G04 #@! TD*
D13*
G04 #@! TO.C,USB1*
X67312500Y-71175000D03*
X74612500Y-71175000D03*
X74612500Y-66675000D03*
X67312500Y-66675000D03*
G04 #@! TD*
M02*
